M48
;GenerationSoftware,Autodesk,EAGLE,9.6.2*%
;CreationDate,2025-12-19T18:46:17Z*%
FMAT,2
ICI,OFF
METRIC,TZ,000.000
T9C0.305
T8C0.889
T7C0.920
T6C1.000
T5C1.400
T4C2.300
T3C2.500
T2C3.000
T1C3.175
%
G90
M71
T1
X3810Y3810
X3810Y92710
X123190Y93980
X123190Y3810
T2
X107950Y90805
X107950Y33655
X31750Y33655
X31750Y90805
T3
X73740Y20970
X83740Y20970
X50880Y20970
X60880Y20970
T4
X18880Y45190
X18880Y58330
T5
X26770Y22820
X110390Y17820
X110390Y22820
X97890Y17820
X97890Y22820
X39270Y22820
X39270Y17820
X26770Y17820
T6
X107950Y78740
X107950Y81280
X107950Y83820
X107950Y86360
X107950Y38100
X107950Y55880
X107950Y53340
X107950Y50800
X107950Y48260
X107950Y45720
X107950Y40640
X107950Y43180
X76240Y13970
X107950Y58420
X81240Y13970
X53380Y13970
X55880Y13970
X58380Y13970
X107950Y60960
X78740Y13970
X107950Y63500
X107950Y66040
X107950Y68580
X107950Y71120
X107950Y73660
X107950Y76200
T7
X21590Y55260
X21590Y48260
X21590Y50760
X21590Y52760
T8
X85530Y77190
X85530Y79730
X82990Y77190
X82990Y79730
X80450Y77190
X80450Y79730
X77910Y77190
X77910Y79730
X75370Y77190
X75370Y79730
X72830Y77190
X72830Y79730
X70290Y77190
X70290Y79730
X65210Y51790
X67750Y79730
X65210Y77190
X65210Y79730
X62670Y77190
X62670Y79730
X60130Y77190
X60130Y79730
X57590Y77190
X57590Y79730
X55050Y77190
X55050Y79730
X52510Y77190
X52510Y79730
X49970Y77190
X49970Y79730
X47430Y77190
X47430Y79730
X85530Y51790
X90610Y51790
X90610Y54330
X88070Y51790
X88070Y54330
X85530Y54330
X82990Y51790
X82990Y54330
X80450Y51790
X80450Y54330
X77910Y51790
X77910Y54330
X75370Y51790
X75370Y54330
X72830Y51790
X72830Y54330
X70290Y51790
X70290Y54330
X67750Y51790
X67750Y54330
X65210Y54330
X62670Y51790
X62670Y54330
X67750Y77190
X60130Y51790
X60130Y54330
X57590Y51790
X57590Y54330
X55050Y51790
X55050Y54330
X52510Y51790
X52510Y54330
X49970Y51790
X49970Y54330
X47430Y51790
X47430Y54330
X90610Y77190
X90610Y79730
X88070Y77190
X88070Y79730
T9
X61400Y51192
X73025Y57175
X72865Y70010
X107950Y53340
X107950Y53340
X61123Y55549
X62622Y57048
X75370Y77190
M30