G04 EAGLE Gerber RS-274X export*
G75*
%MOMM*%
%FSLAX34Y34*%
%LPD*%
%INBottom Copper*%
%IPPOS*%
%AMOC8*
5,1,8,0,0,1.08239X$1,22.5*%
G01*
%ADD10R,1.524000X1.524000*%
%ADD11P,1.649562X8X202.500000*%
%ADD12R,1.676400X1.676400*%
%ADD13C,1.676400*%
%ADD14C,4.016000*%
%ADD15R,1.288000X1.288000*%
%ADD16C,1.288000*%
%ADD17C,3.220000*%
%ADD18C,4.445000*%
%ADD19C,1.016000*%
%ADD20C,1.400000*%
%ADD21C,1.960000*%
%ADD22C,0.381000*%
%ADD23C,0.609600*%


D10*
X906100Y517900D03*
D11*
X906100Y543300D03*
X880700Y517900D03*
X880700Y543300D03*
X855300Y517900D03*
X855300Y543300D03*
X829900Y517900D03*
X829900Y543300D03*
X804500Y517900D03*
X804500Y543300D03*
X779100Y517900D03*
X779100Y543300D03*
X753700Y517900D03*
X753700Y543300D03*
X728300Y517900D03*
X728300Y543300D03*
X702900Y517900D03*
X702900Y543300D03*
X677500Y517900D03*
X677500Y543300D03*
X652100Y517900D03*
X652100Y543300D03*
X626700Y517900D03*
X626700Y543300D03*
X601300Y517900D03*
X601300Y543300D03*
X575900Y517900D03*
X575900Y543300D03*
X550500Y517900D03*
X550500Y543300D03*
X525100Y517900D03*
X525100Y543300D03*
X499700Y517900D03*
X499700Y543300D03*
X474300Y517900D03*
X474300Y543300D03*
D10*
X906100Y771900D03*
D11*
X906100Y797300D03*
X880700Y771900D03*
X880700Y797300D03*
X855300Y771900D03*
X855300Y797300D03*
X829900Y771900D03*
X829900Y797300D03*
X804500Y771900D03*
X804500Y797300D03*
X779100Y771900D03*
X779100Y797300D03*
X753700Y771900D03*
X753700Y797300D03*
X728300Y771900D03*
X728300Y797300D03*
X702900Y771900D03*
X702900Y797300D03*
X677500Y771900D03*
X677500Y797300D03*
X652100Y771900D03*
X652100Y797300D03*
X626700Y771900D03*
X626700Y797300D03*
X601300Y771900D03*
X601300Y797300D03*
X575900Y771900D03*
X575900Y797300D03*
X550500Y771900D03*
X550500Y797300D03*
X525100Y771900D03*
X525100Y797300D03*
X499700Y771900D03*
X499700Y797300D03*
X474300Y771900D03*
X474300Y797300D03*
D12*
X1079500Y381000D03*
D13*
X1079500Y406400D03*
X1079500Y431800D03*
X1079500Y457200D03*
X1079500Y482600D03*
X1079500Y508000D03*
X1079500Y533400D03*
X1079500Y558800D03*
X1079500Y584200D03*
X1079500Y609600D03*
X1079500Y635000D03*
X1079500Y660400D03*
X1079500Y685800D03*
X1079500Y711200D03*
X1079500Y736600D03*
X1079500Y762000D03*
X1079500Y787400D03*
X1079500Y812800D03*
X1079500Y838200D03*
X1079500Y863600D03*
D14*
X1079500Y336550D03*
X1079500Y908050D03*
X317500Y336550D03*
X317500Y908050D03*
D15*
X215900Y482600D03*
D16*
X215900Y507600D03*
X215900Y527600D03*
X215900Y552600D03*
D17*
X188800Y451900D03*
X188800Y583300D03*
D18*
X38100Y927100D03*
X38100Y38100D03*
X1231900Y939800D03*
X1231900Y38100D03*
D19*
X1193800Y127000D03*
D20*
X762400Y139700D03*
X787400Y139700D03*
X812400Y139700D03*
X533800Y139700D03*
X558800Y139700D03*
X583800Y139700D03*
D21*
X1103900Y228200D03*
X1103900Y178200D03*
X978900Y178200D03*
X978900Y228200D03*
X392700Y228200D03*
X392700Y178200D03*
X267700Y178200D03*
X267700Y228200D03*
D19*
X1193800Y850900D03*
X76200Y114300D03*
D22*
X554059Y151145D02*
X563541Y151145D01*
X572355Y134959D02*
X579059Y128255D01*
X755195Y139700D02*
X762400Y139700D01*
X542614Y139700D02*
X533800Y139700D01*
X542614Y139700D02*
X554059Y151145D01*
X563541Y151145D02*
X572355Y142331D01*
X572355Y134959D01*
X579059Y128255D02*
X743750Y128255D01*
X755195Y139700D01*
X614635Y522898D02*
X615353Y523615D01*
X583063Y482600D02*
X215900Y482600D01*
X583063Y482600D02*
X614635Y514173D01*
X614635Y522898D01*
X614000Y522263D01*
X614000Y511921D01*
D23*
X614000Y511921D03*
X753700Y771900D03*
D22*
X628650Y646850D01*
X628650Y569335D01*
X627362Y569335D01*
X626219Y570478D01*
D23*
X626219Y570478D03*
X611233Y555492D03*
D22*
X614508Y555492D01*
X626700Y543300D01*
X583800Y139700D02*
X746214Y139700D01*
X803586Y139700D02*
X812400Y139700D01*
X757659Y151145D02*
X746214Y139700D01*
X792141Y151145D02*
X803586Y139700D01*
X792141Y151145D02*
X757659Y151145D01*
X917726Y508000D02*
X1079500Y508000D01*
X917726Y508000D02*
X915561Y505835D01*
X799503Y505835D02*
X792435Y512903D01*
X792435Y529965D02*
X779100Y543300D01*
X792435Y529965D02*
X792435Y512903D01*
X799503Y505835D02*
X915561Y505835D01*
D23*
X1079500Y533400D03*
X1079500Y533400D03*
D22*
X911098Y531235D02*
X901103Y531235D01*
X938663Y558800D02*
X1079500Y558800D01*
X938663Y558800D02*
X911098Y531235D01*
X889038Y543300D02*
X880700Y543300D01*
X889038Y543300D02*
X901103Y531235D01*
X947000Y584200D02*
X1079500Y584200D01*
X947000Y584200D02*
X906100Y543300D01*
X205015Y532109D02*
X205015Y523091D01*
X205015Y532109D02*
X211391Y538485D01*
X816565Y538303D02*
X816565Y548298D01*
X816565Y538303D02*
X804500Y526238D01*
X804500Y517900D01*
X452423Y538485D02*
X211391Y538485D01*
X215900Y512206D02*
X215900Y507600D01*
X215900Y512206D02*
X205015Y523091D01*
X801878Y562985D02*
X816565Y548298D01*
X476923Y562985D02*
X452423Y538485D01*
X476923Y562985D02*
X801878Y562985D01*
X466938Y527600D02*
X215900Y527600D01*
X466938Y527600D02*
X469303Y529965D01*
X714965Y548824D02*
X722776Y556635D01*
X733824Y556635D01*
X741635Y548824D01*
X741635Y538303D01*
X749973Y529965D01*
X767035Y529965D01*
X779100Y517900D01*
X706628Y529965D02*
X469303Y529965D01*
X706628Y529965D02*
X714965Y538303D01*
X714965Y548824D01*
X865200Y381000D02*
X1079500Y381000D01*
X865200Y381000D02*
X728300Y517900D01*
D23*
X728647Y700103D03*
D22*
X728647Y572208D01*
X730250Y570605D01*
X730250Y571748D01*
D23*
X730250Y571748D03*
D22*
X728300Y771900D02*
X721759Y771900D01*
X658641Y771900D02*
X652100Y771900D01*
X708424Y758565D02*
X721759Y771900D01*
X708424Y758565D02*
X671976Y758565D01*
X658641Y771900D01*
M02*
