G04 EAGLE Gerber RS-274X export*
G75*
%MOMM*%
%FSLAX34Y34*%
%LPD*%
%INTop Copper*%
%IPPOS*%
%AMOC8*
5,1,8,0,0,1.08239X$1,22.5*%
G01*
%ADD10C,0.152400*%
%ADD11R,1.524000X1.524000*%
%ADD12P,1.649562X8X202.500000*%
%ADD13R,1.676400X1.676400*%
%ADD14C,1.676400*%
%ADD15C,4.016000*%
%ADD16R,1.288000X1.288000*%
%ADD17C,1.288000*%
%ADD18C,3.220000*%
%ADD19C,4.445000*%
%ADD20C,1.016000*%
%ADD21C,1.400000*%
%ADD22R,0.949959X1.031241*%
%ADD23C,1.960000*%
%ADD24R,1.600000X1.803000*%
%ADD25R,0.800000X0.800000*%
%ADD26C,0.381000*%
%ADD27C,0.609600*%
%ADD28C,0.254000*%

G36*
X1296654Y1016118D02*
X1296654Y1016118D01*
X1296647Y1016237D01*
X1296634Y1016275D01*
X1296629Y1016316D01*
X1296586Y1016426D01*
X1296549Y1016539D01*
X1296527Y1016574D01*
X1296512Y1016611D01*
X1296443Y1016707D01*
X1296379Y1016808D01*
X1296349Y1016836D01*
X1296326Y1016869D01*
X1296234Y1016945D01*
X1296147Y1017026D01*
X1296112Y1017046D01*
X1296081Y1017071D01*
X1295973Y1017122D01*
X1295869Y1017180D01*
X1295829Y1017190D01*
X1295793Y1017207D01*
X1295676Y1017229D01*
X1295561Y1017259D01*
X1295501Y1017263D01*
X1295481Y1017267D01*
X1295460Y1017265D01*
X1295400Y1017269D01*
X-25400Y1017269D01*
X-25518Y1017254D01*
X-25637Y1017247D01*
X-25675Y1017234D01*
X-25716Y1017229D01*
X-25826Y1017186D01*
X-25939Y1017149D01*
X-25974Y1017127D01*
X-26011Y1017112D01*
X-26107Y1017043D01*
X-26208Y1016979D01*
X-26236Y1016949D01*
X-26269Y1016926D01*
X-26345Y1016834D01*
X-26426Y1016747D01*
X-26446Y1016712D01*
X-26471Y1016681D01*
X-26522Y1016573D01*
X-26580Y1016469D01*
X-26590Y1016429D01*
X-26607Y1016393D01*
X-26629Y1016276D01*
X-26659Y1016161D01*
X-26663Y1016101D01*
X-26667Y1016081D01*
X-26665Y1016060D01*
X-26669Y1016000D01*
X-26669Y-38100D01*
X-26654Y-38218D01*
X-26647Y-38337D01*
X-26634Y-38375D01*
X-26629Y-38416D01*
X-26586Y-38526D01*
X-26549Y-38639D01*
X-26527Y-38674D01*
X-26512Y-38711D01*
X-26443Y-38807D01*
X-26379Y-38908D01*
X-26349Y-38936D01*
X-26326Y-38969D01*
X-26234Y-39045D01*
X-26147Y-39126D01*
X-26112Y-39146D01*
X-26081Y-39171D01*
X-25973Y-39222D01*
X-25869Y-39280D01*
X-25829Y-39290D01*
X-25793Y-39307D01*
X-25676Y-39329D01*
X-25561Y-39359D01*
X-25501Y-39363D01*
X-25481Y-39367D01*
X-25460Y-39365D01*
X-25400Y-39369D01*
X1295400Y-39369D01*
X1295518Y-39354D01*
X1295637Y-39347D01*
X1295675Y-39334D01*
X1295716Y-39329D01*
X1295826Y-39286D01*
X1295939Y-39249D01*
X1295974Y-39227D01*
X1296011Y-39212D01*
X1296107Y-39143D01*
X1296208Y-39079D01*
X1296236Y-39049D01*
X1296269Y-39026D01*
X1296345Y-38934D01*
X1296426Y-38847D01*
X1296446Y-38812D01*
X1296471Y-38781D01*
X1296522Y-38673D01*
X1296580Y-38569D01*
X1296590Y-38529D01*
X1296607Y-38493D01*
X1296629Y-38376D01*
X1296659Y-38261D01*
X1296663Y-38201D01*
X1296667Y-38181D01*
X1296665Y-38160D01*
X1296669Y-38100D01*
X1296669Y1016000D01*
X1296654Y1016118D01*
G37*
%LPC*%
G36*
X-1052Y977141D02*
X-1052Y977141D01*
X1270852Y977141D01*
X1272341Y975652D01*
X1272341Y-1052D01*
X1270852Y-2541D01*
X-1052Y-2541D01*
X-2541Y-1052D01*
X-2541Y975652D01*
X-1052Y977141D01*
G37*
%LPD*%
G36*
X1267244Y970908D02*
X1267244Y970908D01*
X1267237Y971027D01*
X1267224Y971065D01*
X1267219Y971106D01*
X1267176Y971216D01*
X1267139Y971329D01*
X1267117Y971364D01*
X1267102Y971401D01*
X1267033Y971497D01*
X1266969Y971598D01*
X1266939Y971626D01*
X1266916Y971659D01*
X1266824Y971735D01*
X1266737Y971816D01*
X1266702Y971836D01*
X1266671Y971861D01*
X1266563Y971912D01*
X1266459Y971970D01*
X1266419Y971980D01*
X1266383Y971997D01*
X1266266Y972019D01*
X1266151Y972049D01*
X1266091Y972053D01*
X1266071Y972057D01*
X1266050Y972055D01*
X1265990Y972059D01*
X3810Y972059D01*
X3692Y972044D01*
X3573Y972037D01*
X3535Y972024D01*
X3494Y972019D01*
X3384Y971976D01*
X3271Y971939D01*
X3236Y971917D01*
X3199Y971902D01*
X3103Y971833D01*
X3002Y971769D01*
X2974Y971739D01*
X2941Y971716D01*
X2865Y971624D01*
X2784Y971537D01*
X2764Y971502D01*
X2739Y971471D01*
X2688Y971363D01*
X2630Y971259D01*
X2620Y971219D01*
X2603Y971183D01*
X2581Y971066D01*
X2551Y970951D01*
X2547Y970891D01*
X2543Y970871D01*
X2545Y970850D01*
X2541Y970790D01*
X2541Y3810D01*
X2556Y3692D01*
X2563Y3573D01*
X2576Y3535D01*
X2581Y3494D01*
X2624Y3384D01*
X2661Y3271D01*
X2683Y3236D01*
X2698Y3199D01*
X2767Y3103D01*
X2831Y3002D01*
X2861Y2974D01*
X2884Y2941D01*
X2976Y2865D01*
X3063Y2784D01*
X3098Y2764D01*
X3129Y2739D01*
X3237Y2688D01*
X3341Y2630D01*
X3381Y2620D01*
X3417Y2603D01*
X3534Y2581D01*
X3649Y2551D01*
X3709Y2547D01*
X3729Y2543D01*
X3750Y2545D01*
X3810Y2541D01*
X1265990Y2541D01*
X1266108Y2556D01*
X1266227Y2563D01*
X1266265Y2576D01*
X1266306Y2581D01*
X1266416Y2624D01*
X1266529Y2661D01*
X1266564Y2683D01*
X1266601Y2698D01*
X1266697Y2767D01*
X1266798Y2831D01*
X1266826Y2861D01*
X1266859Y2884D01*
X1266935Y2976D01*
X1267016Y3063D01*
X1267036Y3098D01*
X1267061Y3129D01*
X1267112Y3237D01*
X1267170Y3341D01*
X1267180Y3381D01*
X1267197Y3417D01*
X1267219Y3534D01*
X1267249Y3649D01*
X1267253Y3709D01*
X1267257Y3729D01*
X1267255Y3750D01*
X1267259Y3810D01*
X1267259Y970790D01*
X1267244Y970908D01*
G37*
%LPC*%
G36*
X34275Y901619D02*
X34275Y901619D01*
X34269Y901732D01*
X34255Y901777D01*
X34249Y901823D01*
X34208Y901928D01*
X34175Y902035D01*
X34150Y902075D01*
X34132Y902119D01*
X34067Y902210D01*
X34007Y902306D01*
X33973Y902338D01*
X33946Y902376D01*
X33859Y902448D01*
X33778Y902526D01*
X33737Y902549D01*
X33701Y902579D01*
X33599Y902627D01*
X33501Y902682D01*
X33432Y902706D01*
X33413Y902715D01*
X33395Y902718D01*
X33349Y902734D01*
X28541Y904022D01*
X22894Y907282D01*
X18282Y911894D01*
X15022Y917541D01*
X13334Y923840D01*
X13334Y930360D01*
X15022Y936659D01*
X18282Y942306D01*
X22894Y946918D01*
X28541Y950178D01*
X34840Y951866D01*
X41360Y951866D01*
X47659Y950178D01*
X53306Y946918D01*
X57918Y942306D01*
X61178Y936659D01*
X62866Y930360D01*
X62866Y923840D01*
X61178Y917541D01*
X57918Y911894D01*
X53306Y907282D01*
X47659Y904022D01*
X42851Y902734D01*
X42747Y902691D01*
X42641Y902657D01*
X42601Y902631D01*
X42557Y902614D01*
X42467Y902547D01*
X42372Y902487D01*
X42340Y902452D01*
X42302Y902424D01*
X42231Y902337D01*
X42154Y902255D01*
X42131Y902214D01*
X42101Y902177D01*
X42055Y902075D01*
X42000Y901976D01*
X41989Y901931D01*
X41969Y901888D01*
X41949Y901777D01*
X41921Y901668D01*
X41916Y901596D01*
X41913Y901575D01*
X41914Y901557D01*
X41911Y901508D01*
X41911Y63692D01*
X41925Y63581D01*
X41931Y63468D01*
X41945Y63423D01*
X41951Y63377D01*
X41992Y63272D01*
X42025Y63165D01*
X42050Y63125D01*
X42068Y63081D01*
X42133Y62990D01*
X42193Y62894D01*
X42227Y62862D01*
X42254Y62824D01*
X42341Y62752D01*
X42422Y62674D01*
X42463Y62651D01*
X42499Y62621D01*
X42601Y62573D01*
X42699Y62518D01*
X42768Y62494D01*
X42787Y62485D01*
X42805Y62482D01*
X42851Y62466D01*
X47659Y61178D01*
X51970Y58689D01*
X52073Y58646D01*
X52173Y58595D01*
X52219Y58584D01*
X52263Y58566D01*
X52374Y58550D01*
X52484Y58525D01*
X52531Y58526D01*
X52577Y58520D01*
X52689Y58531D01*
X52802Y58535D01*
X52847Y58548D01*
X52894Y58553D01*
X52999Y58592D01*
X53107Y58623D01*
X53148Y58647D01*
X53192Y58663D01*
X53284Y58727D01*
X53381Y58785D01*
X53435Y58833D01*
X53453Y58845D01*
X53465Y58859D01*
X53502Y58891D01*
X73227Y78616D01*
X76200Y78616D01*
X76318Y78631D01*
X76437Y78638D01*
X76475Y78651D01*
X76516Y78656D01*
X76626Y78699D01*
X76739Y78736D01*
X76774Y78758D01*
X76811Y78773D01*
X76907Y78842D01*
X77008Y78906D01*
X77036Y78936D01*
X77069Y78959D01*
X77145Y79051D01*
X77226Y79138D01*
X77246Y79173D01*
X77271Y79204D01*
X77322Y79312D01*
X77380Y79416D01*
X77390Y79456D01*
X77407Y79492D01*
X77429Y79609D01*
X77459Y79724D01*
X77463Y79784D01*
X77467Y79804D01*
X77465Y79825D01*
X77469Y79885D01*
X77469Y88900D01*
X77454Y89018D01*
X77447Y89137D01*
X77434Y89175D01*
X77429Y89216D01*
X77386Y89326D01*
X77349Y89439D01*
X77327Y89474D01*
X77312Y89511D01*
X77243Y89607D01*
X77179Y89708D01*
X77149Y89736D01*
X77126Y89769D01*
X77034Y89845D01*
X76947Y89926D01*
X76912Y89946D01*
X76881Y89971D01*
X76773Y90022D01*
X76669Y90080D01*
X76629Y90090D01*
X76593Y90107D01*
X76476Y90129D01*
X76361Y90159D01*
X76301Y90163D01*
X76281Y90167D01*
X76260Y90165D01*
X76200Y90169D01*
X52069Y90169D01*
X52069Y887731D01*
X76200Y887731D01*
X76318Y887746D01*
X76437Y887753D01*
X76475Y887766D01*
X76516Y887771D01*
X76626Y887814D01*
X76739Y887851D01*
X76774Y887873D01*
X76811Y887888D01*
X76907Y887958D01*
X77008Y888021D01*
X77036Y888051D01*
X77069Y888074D01*
X77145Y888166D01*
X77226Y888253D01*
X77246Y888288D01*
X77271Y888319D01*
X77322Y888427D01*
X77380Y888531D01*
X77390Y888571D01*
X77407Y888607D01*
X77429Y888724D01*
X77459Y888839D01*
X77463Y888900D01*
X77467Y888920D01*
X77465Y888940D01*
X77469Y889000D01*
X77469Y938531D01*
X1192531Y938531D01*
X1192531Y889000D01*
X1192546Y888882D01*
X1192553Y888763D01*
X1192566Y888725D01*
X1192571Y888684D01*
X1192614Y888574D01*
X1192651Y888461D01*
X1192673Y888426D01*
X1192688Y888389D01*
X1192758Y888293D01*
X1192821Y888192D01*
X1192851Y888164D01*
X1192874Y888131D01*
X1192966Y888056D01*
X1193053Y887974D01*
X1193088Y887954D01*
X1193119Y887929D01*
X1193227Y887878D01*
X1193331Y887820D01*
X1193371Y887810D01*
X1193407Y887793D01*
X1193524Y887771D01*
X1193639Y887741D01*
X1193700Y887737D01*
X1193720Y887733D01*
X1193740Y887735D01*
X1193800Y887731D01*
X1217931Y887731D01*
X1217931Y288820D01*
X1217934Y288791D01*
X1217932Y288762D01*
X1217954Y288633D01*
X1217971Y288505D01*
X1217981Y288477D01*
X1217987Y288448D01*
X1218040Y288330D01*
X1218088Y288209D01*
X1218105Y288185D01*
X1218117Y288158D01*
X1218198Y288057D01*
X1218274Y287952D01*
X1218297Y287933D01*
X1218316Y287910D01*
X1218419Y287832D01*
X1218519Y287749D01*
X1218546Y287736D01*
X1218570Y287719D01*
X1218714Y287648D01*
X1219263Y287421D01*
X1220871Y285813D01*
X1221741Y283712D01*
X1221741Y281438D01*
X1220871Y279337D01*
X1218303Y276769D01*
X1218242Y276691D01*
X1218174Y276619D01*
X1218145Y276566D01*
X1218108Y276518D01*
X1218068Y276427D01*
X1218020Y276340D01*
X1218005Y276282D01*
X1217981Y276226D01*
X1217966Y276128D01*
X1217941Y276032D01*
X1217935Y275932D01*
X1217931Y275912D01*
X1217933Y275900D01*
X1217931Y275872D01*
X1217931Y90169D01*
X1181100Y90169D01*
X1180982Y90154D01*
X1180863Y90147D01*
X1180825Y90134D01*
X1180784Y90129D01*
X1180674Y90086D01*
X1180561Y90049D01*
X1180526Y90027D01*
X1180489Y90012D01*
X1180393Y89943D01*
X1180292Y89879D01*
X1180264Y89849D01*
X1180231Y89826D01*
X1180156Y89734D01*
X1180074Y89647D01*
X1180054Y89612D01*
X1180029Y89581D01*
X1179978Y89473D01*
X1179920Y89369D01*
X1179910Y89329D01*
X1179893Y89293D01*
X1179871Y89176D01*
X1179841Y89061D01*
X1179837Y89001D01*
X1179833Y88981D01*
X1179835Y88960D01*
X1179831Y88900D01*
X1179831Y47941D01*
X1179838Y47881D01*
X1179836Y47821D01*
X1179858Y47724D01*
X1179871Y47625D01*
X1179893Y47569D01*
X1179906Y47510D01*
X1179951Y47422D01*
X1179988Y47330D01*
X1180023Y47281D01*
X1180050Y47227D01*
X1180116Y47153D01*
X1180174Y47072D01*
X1180221Y47034D01*
X1180261Y46989D01*
X1180343Y46933D01*
X1180419Y46869D01*
X1180474Y46844D01*
X1180524Y46810D01*
X1180617Y46776D01*
X1180707Y46734D01*
X1180766Y46723D01*
X1180823Y46702D01*
X1180982Y46677D01*
X1206820Y44267D01*
X1206832Y44267D01*
X1206844Y44265D01*
X1206991Y44272D01*
X1207138Y44277D01*
X1207149Y44281D01*
X1207161Y44281D01*
X1207302Y44325D01*
X1207443Y44366D01*
X1207453Y44372D01*
X1207465Y44376D01*
X1207590Y44453D01*
X1207716Y44528D01*
X1207725Y44537D01*
X1207735Y44543D01*
X1207837Y44649D01*
X1207941Y44753D01*
X1207947Y44764D01*
X1207956Y44773D01*
X1208028Y44901D01*
X1208103Y45027D01*
X1208106Y45039D01*
X1208112Y45050D01*
X1208164Y45202D01*
X1208822Y47659D01*
X1212082Y53306D01*
X1216694Y57918D01*
X1222341Y61178D01*
X1227149Y62466D01*
X1227253Y62509D01*
X1227359Y62543D01*
X1227399Y62569D01*
X1227443Y62586D01*
X1227533Y62653D01*
X1227628Y62713D01*
X1227660Y62748D01*
X1227698Y62776D01*
X1227769Y62863D01*
X1227846Y62945D01*
X1227869Y62986D01*
X1227899Y63023D01*
X1227945Y63125D01*
X1228000Y63224D01*
X1228011Y63269D01*
X1228031Y63312D01*
X1228051Y63423D01*
X1228079Y63532D01*
X1228084Y63604D01*
X1228087Y63625D01*
X1228086Y63643D01*
X1228089Y63692D01*
X1228089Y914208D01*
X1228075Y914319D01*
X1228069Y914432D01*
X1228055Y914477D01*
X1228049Y914523D01*
X1228008Y914628D01*
X1227975Y914735D01*
X1227950Y914775D01*
X1227932Y914819D01*
X1227867Y914910D01*
X1227807Y915006D01*
X1227773Y915038D01*
X1227746Y915076D01*
X1227659Y915148D01*
X1227578Y915226D01*
X1227537Y915249D01*
X1227501Y915279D01*
X1227399Y915327D01*
X1227301Y915382D01*
X1227232Y915406D01*
X1227213Y915415D01*
X1227195Y915418D01*
X1227149Y915434D01*
X1222341Y916722D01*
X1216694Y919982D01*
X1212082Y924594D01*
X1208822Y930241D01*
X1207134Y936540D01*
X1207134Y943060D01*
X1208822Y949359D01*
X1212082Y955006D01*
X1216694Y959618D01*
X1222341Y962878D01*
X1228640Y964566D01*
X1235160Y964566D01*
X1241459Y962878D01*
X1247106Y959618D01*
X1251718Y955006D01*
X1254978Y949359D01*
X1256666Y943060D01*
X1256666Y936540D01*
X1254978Y930241D01*
X1251718Y924594D01*
X1247106Y919982D01*
X1241459Y916722D01*
X1236651Y915434D01*
X1236547Y915391D01*
X1236441Y915357D01*
X1236401Y915331D01*
X1236357Y915314D01*
X1236267Y915247D01*
X1236172Y915187D01*
X1236140Y915152D01*
X1236102Y915124D01*
X1236031Y915037D01*
X1235954Y914955D01*
X1235931Y914914D01*
X1235901Y914877D01*
X1235855Y914775D01*
X1235800Y914676D01*
X1235789Y914631D01*
X1235769Y914588D01*
X1235749Y914477D01*
X1235721Y914368D01*
X1235716Y914296D01*
X1235713Y914275D01*
X1235714Y914257D01*
X1235711Y914208D01*
X1235711Y63692D01*
X1235725Y63581D01*
X1235731Y63468D01*
X1235745Y63423D01*
X1235751Y63377D01*
X1235792Y63272D01*
X1235825Y63165D01*
X1235850Y63125D01*
X1235868Y63081D01*
X1235933Y62990D01*
X1235993Y62894D01*
X1236027Y62862D01*
X1236054Y62824D01*
X1236141Y62752D01*
X1236222Y62674D01*
X1236263Y62651D01*
X1236299Y62621D01*
X1236401Y62573D01*
X1236499Y62518D01*
X1236568Y62494D01*
X1236587Y62485D01*
X1236605Y62482D01*
X1236651Y62466D01*
X1241459Y61178D01*
X1247106Y57918D01*
X1251718Y53306D01*
X1254978Y47659D01*
X1256666Y41360D01*
X1256666Y34840D01*
X1254978Y28541D01*
X1251718Y22894D01*
X1247106Y18282D01*
X1241459Y15022D01*
X1235160Y13334D01*
X1228640Y13334D01*
X1222341Y15022D01*
X1216694Y18282D01*
X1212082Y22894D01*
X1208822Y28541D01*
X1207134Y34840D01*
X1207134Y35427D01*
X1207127Y35486D01*
X1207129Y35547D01*
X1207107Y35644D01*
X1207094Y35742D01*
X1207072Y35798D01*
X1207059Y35857D01*
X1207014Y35945D01*
X1206977Y36038D01*
X1206942Y36087D01*
X1206915Y36140D01*
X1206849Y36215D01*
X1206791Y36295D01*
X1206744Y36334D01*
X1206704Y36379D01*
X1206622Y36435D01*
X1206546Y36498D01*
X1206491Y36524D01*
X1206441Y36558D01*
X1206348Y36591D01*
X1206258Y36634D01*
X1206199Y36645D01*
X1206142Y36665D01*
X1205983Y36690D01*
X1177324Y39364D01*
X1177303Y39363D01*
X1177206Y39369D01*
X77469Y39369D01*
X77469Y69016D01*
X77452Y69153D01*
X77439Y69292D01*
X77432Y69311D01*
X77429Y69331D01*
X77378Y69460D01*
X77331Y69591D01*
X77320Y69608D01*
X77312Y69627D01*
X77231Y69739D01*
X77153Y69855D01*
X77137Y69868D01*
X77126Y69884D01*
X77018Y69973D01*
X76914Y70065D01*
X76896Y70074D01*
X76881Y70087D01*
X76755Y70146D01*
X76631Y70210D01*
X76611Y70214D01*
X76593Y70223D01*
X76457Y70249D01*
X76321Y70279D01*
X76300Y70279D01*
X76281Y70283D01*
X76142Y70274D01*
X76003Y70270D01*
X75983Y70264D01*
X75963Y70263D01*
X75831Y70220D01*
X75697Y70181D01*
X75680Y70171D01*
X75661Y70165D01*
X75543Y70090D01*
X75423Y70020D01*
X75402Y70001D01*
X75392Y69995D01*
X75378Y69980D01*
X75303Y69913D01*
X58891Y53502D01*
X58822Y53413D01*
X58747Y53330D01*
X58725Y53288D01*
X58696Y53251D01*
X58651Y53147D01*
X58599Y53048D01*
X58588Y53002D01*
X58570Y52959D01*
X58552Y52848D01*
X58526Y52738D01*
X58527Y52691D01*
X58520Y52645D01*
X58530Y52533D01*
X58533Y52420D01*
X58545Y52375D01*
X58550Y52328D01*
X58588Y52222D01*
X58618Y52114D01*
X58650Y52049D01*
X58657Y52029D01*
X58668Y52013D01*
X58689Y51970D01*
X61178Y47659D01*
X62866Y41360D01*
X62866Y34840D01*
X61178Y28541D01*
X57918Y22894D01*
X53306Y18282D01*
X47659Y15022D01*
X41360Y13334D01*
X34840Y13334D01*
X28541Y15022D01*
X22894Y18282D01*
X18282Y22894D01*
X15022Y28541D01*
X13334Y34840D01*
X13334Y41360D01*
X15022Y47659D01*
X18282Y53306D01*
X22894Y57918D01*
X28541Y61178D01*
X33349Y62466D01*
X33453Y62509D01*
X33559Y62543D01*
X33599Y62569D01*
X33643Y62586D01*
X33733Y62653D01*
X33828Y62713D01*
X33860Y62748D01*
X33898Y62776D01*
X33969Y62863D01*
X34046Y62945D01*
X34069Y62986D01*
X34099Y63023D01*
X34145Y63125D01*
X34200Y63224D01*
X34211Y63269D01*
X34231Y63312D01*
X34251Y63423D01*
X34279Y63532D01*
X34284Y63604D01*
X34287Y63625D01*
X34286Y63643D01*
X34289Y63692D01*
X34289Y901508D01*
X34275Y901619D01*
G37*
%LPD*%
D10*
X115937Y811022D02*
X108712Y811022D01*
X108712Y827278D01*
X115937Y827278D01*
X114131Y820053D02*
X108712Y820053D01*
X122229Y827278D02*
X122229Y811022D01*
X122229Y827278D02*
X126745Y827278D01*
X126876Y827276D01*
X127008Y827270D01*
X127139Y827261D01*
X127269Y827247D01*
X127400Y827230D01*
X127529Y827209D01*
X127658Y827185D01*
X127786Y827156D01*
X127914Y827124D01*
X128040Y827088D01*
X128165Y827049D01*
X128290Y827006D01*
X128412Y826959D01*
X128534Y826909D01*
X128654Y826855D01*
X128772Y826798D01*
X128888Y826737D01*
X129003Y826673D01*
X129116Y826606D01*
X129227Y826535D01*
X129335Y826461D01*
X129442Y826384D01*
X129546Y826304D01*
X129648Y826221D01*
X129747Y826136D01*
X129844Y826047D01*
X129938Y825955D01*
X130030Y825861D01*
X130119Y825764D01*
X130204Y825665D01*
X130287Y825563D01*
X130367Y825459D01*
X130444Y825352D01*
X130518Y825244D01*
X130589Y825133D01*
X130656Y825020D01*
X130720Y824905D01*
X130781Y824789D01*
X130838Y824671D01*
X130892Y824551D01*
X130942Y824429D01*
X130989Y824307D01*
X131032Y824182D01*
X131071Y824057D01*
X131107Y823931D01*
X131139Y823803D01*
X131168Y823675D01*
X131192Y823546D01*
X131213Y823417D01*
X131230Y823286D01*
X131244Y823156D01*
X131253Y823025D01*
X131259Y822893D01*
X131261Y822762D01*
X131260Y822762D02*
X131260Y815538D01*
X131261Y815538D02*
X131259Y815407D01*
X131253Y815275D01*
X131244Y815144D01*
X131230Y815014D01*
X131213Y814883D01*
X131192Y814754D01*
X131168Y814625D01*
X131139Y814497D01*
X131107Y814369D01*
X131071Y814243D01*
X131032Y814118D01*
X130989Y813993D01*
X130942Y813871D01*
X130892Y813749D01*
X130838Y813629D01*
X130781Y813511D01*
X130720Y813395D01*
X130656Y813280D01*
X130589Y813167D01*
X130518Y813056D01*
X130444Y812948D01*
X130367Y812841D01*
X130287Y812737D01*
X130204Y812635D01*
X130119Y812536D01*
X130030Y812439D01*
X129938Y812345D01*
X129844Y812253D01*
X129747Y812164D01*
X129648Y812079D01*
X129546Y811996D01*
X129442Y811916D01*
X129335Y811839D01*
X129227Y811765D01*
X129116Y811694D01*
X129003Y811627D01*
X128888Y811563D01*
X128772Y811502D01*
X128654Y811445D01*
X128534Y811391D01*
X128412Y811341D01*
X128290Y811294D01*
X128165Y811251D01*
X128040Y811212D01*
X127914Y811176D01*
X127786Y811144D01*
X127658Y811115D01*
X127529Y811091D01*
X127399Y811070D01*
X127269Y811053D01*
X127139Y811039D01*
X127008Y811030D01*
X126876Y811024D01*
X126745Y811022D01*
X122229Y811022D01*
X138932Y811022D02*
X146157Y811022D01*
X138932Y811022D02*
X138932Y827278D01*
X146157Y827278D01*
X144351Y820053D02*
X138932Y820053D01*
X156826Y811022D02*
X156944Y811024D01*
X157062Y811030D01*
X157180Y811039D01*
X157297Y811053D01*
X157414Y811070D01*
X157531Y811091D01*
X157646Y811116D01*
X157761Y811145D01*
X157875Y811178D01*
X157987Y811214D01*
X158098Y811254D01*
X158208Y811297D01*
X158317Y811344D01*
X158424Y811394D01*
X158529Y811449D01*
X158632Y811506D01*
X158733Y811567D01*
X158833Y811631D01*
X158930Y811698D01*
X159025Y811768D01*
X159117Y811842D01*
X159208Y811918D01*
X159295Y811998D01*
X159380Y812080D01*
X159462Y812165D01*
X159542Y812252D01*
X159618Y812343D01*
X159692Y812435D01*
X159762Y812530D01*
X159829Y812627D01*
X159893Y812727D01*
X159954Y812828D01*
X160011Y812931D01*
X160066Y813036D01*
X160116Y813143D01*
X160163Y813252D01*
X160206Y813362D01*
X160246Y813473D01*
X160282Y813585D01*
X160315Y813699D01*
X160344Y813814D01*
X160369Y813929D01*
X160390Y814046D01*
X160407Y814163D01*
X160421Y814280D01*
X160430Y814398D01*
X160436Y814516D01*
X160438Y814634D01*
X156826Y811022D02*
X156643Y811024D01*
X156461Y811031D01*
X156279Y811042D01*
X156097Y811057D01*
X155915Y811077D01*
X155734Y811100D01*
X155554Y811129D01*
X155374Y811161D01*
X155195Y811198D01*
X155018Y811239D01*
X154841Y811285D01*
X154665Y811334D01*
X154491Y811388D01*
X154317Y811446D01*
X154146Y811508D01*
X153976Y811574D01*
X153807Y811645D01*
X153640Y811719D01*
X153475Y811797D01*
X153312Y811879D01*
X153151Y811965D01*
X152992Y812055D01*
X152835Y812149D01*
X152681Y812246D01*
X152529Y812347D01*
X152379Y812452D01*
X152232Y812560D01*
X152088Y812671D01*
X151946Y812786D01*
X151807Y812905D01*
X151671Y813027D01*
X151538Y813152D01*
X151408Y813280D01*
X151860Y823666D02*
X151862Y823784D01*
X151868Y823902D01*
X151877Y824020D01*
X151891Y824137D01*
X151908Y824254D01*
X151929Y824371D01*
X151954Y824486D01*
X151983Y824601D01*
X152016Y824715D01*
X152052Y824827D01*
X152092Y824938D01*
X152135Y825048D01*
X152182Y825157D01*
X152232Y825264D01*
X152287Y825369D01*
X152344Y825472D01*
X152405Y825573D01*
X152469Y825673D01*
X152536Y825770D01*
X152606Y825865D01*
X152680Y825957D01*
X152756Y826048D01*
X152836Y826135D01*
X152918Y826220D01*
X153003Y826302D01*
X153090Y826382D01*
X153181Y826458D01*
X153273Y826532D01*
X153368Y826602D01*
X153465Y826669D01*
X153565Y826733D01*
X153666Y826794D01*
X153769Y826852D01*
X153874Y826906D01*
X153981Y826956D01*
X154090Y827003D01*
X154200Y827047D01*
X154311Y827086D01*
X154424Y827122D01*
X154537Y827155D01*
X154652Y827184D01*
X154767Y827209D01*
X154884Y827230D01*
X155001Y827247D01*
X155118Y827261D01*
X155236Y827270D01*
X155354Y827276D01*
X155472Y827278D01*
X155633Y827276D01*
X155795Y827270D01*
X155956Y827261D01*
X156117Y827247D01*
X156277Y827230D01*
X156437Y827209D01*
X156597Y827184D01*
X156756Y827155D01*
X156914Y827123D01*
X157071Y827087D01*
X157227Y827047D01*
X157383Y827003D01*
X157537Y826955D01*
X157690Y826904D01*
X157842Y826850D01*
X157993Y826791D01*
X158142Y826730D01*
X158289Y826664D01*
X158435Y826595D01*
X158580Y826523D01*
X158722Y826447D01*
X158863Y826368D01*
X159002Y826286D01*
X159138Y826200D01*
X159273Y826111D01*
X159406Y826019D01*
X159536Y825923D01*
X153665Y820505D02*
X153564Y820567D01*
X153464Y820632D01*
X153367Y820701D01*
X153272Y820773D01*
X153179Y820847D01*
X153089Y820925D01*
X153001Y821006D01*
X152916Y821089D01*
X152834Y821175D01*
X152755Y821264D01*
X152678Y821355D01*
X152605Y821449D01*
X152534Y821545D01*
X152467Y821643D01*
X152403Y821743D01*
X152342Y821846D01*
X152285Y821950D01*
X152231Y822056D01*
X152181Y822164D01*
X152134Y822273D01*
X152090Y822384D01*
X152050Y822496D01*
X152014Y822610D01*
X151982Y822724D01*
X151953Y822840D01*
X151928Y822956D01*
X151907Y823073D01*
X151890Y823191D01*
X151876Y823309D01*
X151867Y823428D01*
X151861Y823547D01*
X151859Y823666D01*
X158633Y817795D02*
X158734Y817733D01*
X158834Y817668D01*
X158931Y817599D01*
X159026Y817527D01*
X159119Y817453D01*
X159209Y817375D01*
X159297Y817294D01*
X159382Y817211D01*
X159464Y817125D01*
X159543Y817036D01*
X159620Y816945D01*
X159693Y816851D01*
X159764Y816755D01*
X159831Y816657D01*
X159895Y816557D01*
X159956Y816454D01*
X160013Y816350D01*
X160067Y816244D01*
X160117Y816136D01*
X160164Y816027D01*
X160208Y815916D01*
X160248Y815804D01*
X160284Y815690D01*
X160316Y815576D01*
X160345Y815460D01*
X160370Y815344D01*
X160391Y815227D01*
X160408Y815109D01*
X160422Y814991D01*
X160431Y814872D01*
X160437Y814753D01*
X160439Y814634D01*
X158632Y817795D02*
X153665Y820505D01*
X174854Y811022D02*
X179370Y811022D01*
X179503Y811024D01*
X179635Y811030D01*
X179767Y811040D01*
X179899Y811053D01*
X180031Y811071D01*
X180161Y811092D01*
X180292Y811117D01*
X180421Y811146D01*
X180549Y811179D01*
X180677Y811215D01*
X180803Y811255D01*
X180928Y811299D01*
X181052Y811347D01*
X181174Y811398D01*
X181295Y811453D01*
X181414Y811511D01*
X181532Y811573D01*
X181647Y811638D01*
X181761Y811707D01*
X181872Y811778D01*
X181981Y811854D01*
X182088Y811932D01*
X182193Y812013D01*
X182295Y812098D01*
X182395Y812185D01*
X182492Y812275D01*
X182587Y812368D01*
X182678Y812464D01*
X182767Y812562D01*
X182853Y812663D01*
X182936Y812767D01*
X183016Y812873D01*
X183092Y812981D01*
X183166Y813091D01*
X183236Y813204D01*
X183303Y813318D01*
X183366Y813435D01*
X183426Y813553D01*
X183483Y813673D01*
X183536Y813795D01*
X183585Y813918D01*
X183631Y814042D01*
X183673Y814168D01*
X183711Y814295D01*
X183746Y814423D01*
X183777Y814552D01*
X183804Y814681D01*
X183827Y814812D01*
X183847Y814943D01*
X183862Y815075D01*
X183874Y815207D01*
X183882Y815339D01*
X183886Y815472D01*
X183886Y815604D01*
X183882Y815737D01*
X183874Y815869D01*
X183862Y816001D01*
X183847Y816133D01*
X183827Y816264D01*
X183804Y816395D01*
X183777Y816524D01*
X183746Y816653D01*
X183711Y816781D01*
X183673Y816908D01*
X183631Y817034D01*
X183585Y817158D01*
X183536Y817281D01*
X183483Y817403D01*
X183426Y817523D01*
X183366Y817641D01*
X183303Y817758D01*
X183236Y817872D01*
X183166Y817985D01*
X183092Y818095D01*
X183016Y818203D01*
X182936Y818309D01*
X182853Y818413D01*
X182767Y818514D01*
X182678Y818612D01*
X182587Y818708D01*
X182492Y818801D01*
X182395Y818891D01*
X182295Y818978D01*
X182193Y819063D01*
X182088Y819144D01*
X181981Y819222D01*
X181872Y819298D01*
X181761Y819369D01*
X181647Y819438D01*
X181532Y819503D01*
X181414Y819565D01*
X181295Y819623D01*
X181174Y819678D01*
X181052Y819729D01*
X180928Y819777D01*
X180803Y819821D01*
X180677Y819861D01*
X180549Y819897D01*
X180421Y819930D01*
X180292Y819959D01*
X180161Y819984D01*
X180031Y820005D01*
X179899Y820023D01*
X179767Y820036D01*
X179635Y820046D01*
X179503Y820052D01*
X179370Y820054D01*
X180273Y827278D02*
X174854Y827278D01*
X180273Y827278D02*
X180392Y827276D01*
X180512Y827270D01*
X180631Y827260D01*
X180749Y827246D01*
X180868Y827229D01*
X180985Y827207D01*
X181102Y827182D01*
X181217Y827152D01*
X181332Y827119D01*
X181446Y827082D01*
X181558Y827042D01*
X181669Y826997D01*
X181778Y826949D01*
X181886Y826898D01*
X181992Y826843D01*
X182096Y826784D01*
X182198Y826722D01*
X182298Y826657D01*
X182396Y826588D01*
X182492Y826516D01*
X182585Y826441D01*
X182675Y826364D01*
X182763Y826283D01*
X182848Y826199D01*
X182930Y826112D01*
X183010Y826023D01*
X183086Y825931D01*
X183160Y825837D01*
X183230Y825740D01*
X183297Y825642D01*
X183361Y825541D01*
X183421Y825437D01*
X183478Y825332D01*
X183531Y825225D01*
X183581Y825117D01*
X183627Y825007D01*
X183669Y824895D01*
X183708Y824782D01*
X183743Y824668D01*
X183774Y824553D01*
X183802Y824436D01*
X183825Y824319D01*
X183845Y824202D01*
X183861Y824083D01*
X183873Y823964D01*
X183881Y823845D01*
X183885Y823726D01*
X183885Y823606D01*
X183881Y823487D01*
X183873Y823368D01*
X183861Y823249D01*
X183845Y823130D01*
X183825Y823013D01*
X183802Y822896D01*
X183774Y822779D01*
X183743Y822664D01*
X183708Y822550D01*
X183669Y822437D01*
X183627Y822325D01*
X183581Y822215D01*
X183531Y822107D01*
X183478Y822000D01*
X183421Y821895D01*
X183361Y821791D01*
X183297Y821690D01*
X183230Y821592D01*
X183160Y821495D01*
X183086Y821401D01*
X183010Y821309D01*
X182930Y821220D01*
X182848Y821133D01*
X182763Y821049D01*
X182675Y820968D01*
X182585Y820891D01*
X182492Y820816D01*
X182396Y820744D01*
X182298Y820675D01*
X182198Y820610D01*
X182096Y820548D01*
X181992Y820489D01*
X181886Y820434D01*
X181778Y820383D01*
X181669Y820335D01*
X181558Y820290D01*
X181446Y820250D01*
X181332Y820213D01*
X181217Y820180D01*
X181102Y820150D01*
X180985Y820125D01*
X180868Y820103D01*
X180749Y820086D01*
X180631Y820072D01*
X180512Y820062D01*
X180392Y820056D01*
X180273Y820054D01*
X180273Y820053D02*
X176661Y820053D01*
X190486Y819150D02*
X190490Y819470D01*
X190501Y819789D01*
X190520Y820109D01*
X190547Y820427D01*
X190581Y820745D01*
X190623Y821062D01*
X190673Y821378D01*
X190730Y821693D01*
X190794Y822006D01*
X190866Y822318D01*
X190945Y822628D01*
X191032Y822935D01*
X191126Y823241D01*
X191227Y823544D01*
X191336Y823845D01*
X191451Y824143D01*
X191574Y824439D01*
X191704Y824731D01*
X191841Y825020D01*
X191840Y825021D02*
X191879Y825129D01*
X191922Y825236D01*
X191968Y825341D01*
X192019Y825445D01*
X192072Y825547D01*
X192129Y825647D01*
X192190Y825745D01*
X192254Y825840D01*
X192321Y825934D01*
X192392Y826025D01*
X192465Y826114D01*
X192542Y826200D01*
X192621Y826283D01*
X192703Y826364D01*
X192788Y826442D01*
X192876Y826516D01*
X192966Y826588D01*
X193058Y826656D01*
X193153Y826722D01*
X193250Y826784D01*
X193349Y826842D01*
X193451Y826898D01*
X193553Y826949D01*
X193658Y826997D01*
X193764Y827042D01*
X193872Y827083D01*
X193981Y827120D01*
X194091Y827153D01*
X194203Y827182D01*
X194315Y827208D01*
X194428Y827230D01*
X194542Y827247D01*
X194656Y827261D01*
X194771Y827271D01*
X194886Y827277D01*
X195001Y827279D01*
X195001Y827278D02*
X195116Y827276D01*
X195231Y827270D01*
X195346Y827260D01*
X195460Y827246D01*
X195574Y827229D01*
X195687Y827207D01*
X195799Y827181D01*
X195911Y827152D01*
X196021Y827119D01*
X196130Y827082D01*
X196238Y827041D01*
X196344Y826996D01*
X196449Y826948D01*
X196551Y826897D01*
X196652Y826841D01*
X196752Y826783D01*
X196849Y826721D01*
X196943Y826656D01*
X197036Y826587D01*
X197126Y826515D01*
X197214Y826441D01*
X197299Y826363D01*
X197381Y826282D01*
X197460Y826199D01*
X197537Y826113D01*
X197610Y826024D01*
X197681Y825933D01*
X197748Y825839D01*
X197812Y825744D01*
X197873Y825646D01*
X197930Y825546D01*
X197983Y825444D01*
X198034Y825340D01*
X198080Y825235D01*
X198123Y825128D01*
X198162Y825020D01*
X198299Y824731D01*
X198429Y824439D01*
X198552Y824143D01*
X198667Y823845D01*
X198776Y823544D01*
X198877Y823241D01*
X198971Y822935D01*
X199058Y822628D01*
X199137Y822318D01*
X199209Y822006D01*
X199273Y821693D01*
X199330Y821378D01*
X199380Y821062D01*
X199422Y820745D01*
X199456Y820427D01*
X199483Y820109D01*
X199502Y819789D01*
X199513Y819470D01*
X199517Y819150D01*
X190486Y819150D02*
X190490Y818830D01*
X190501Y818511D01*
X190520Y818191D01*
X190547Y817873D01*
X190581Y817555D01*
X190623Y817238D01*
X190673Y816922D01*
X190730Y816607D01*
X190794Y816294D01*
X190866Y815982D01*
X190945Y815672D01*
X191032Y815365D01*
X191126Y815059D01*
X191227Y814756D01*
X191336Y814455D01*
X191451Y814157D01*
X191574Y813861D01*
X191704Y813569D01*
X191841Y813280D01*
X191840Y813280D02*
X191879Y813172D01*
X191922Y813065D01*
X191968Y812960D01*
X192019Y812856D01*
X192072Y812754D01*
X192129Y812654D01*
X192190Y812556D01*
X192254Y812461D01*
X192321Y812367D01*
X192392Y812276D01*
X192465Y812187D01*
X192542Y812101D01*
X192621Y812018D01*
X192703Y811937D01*
X192788Y811859D01*
X192876Y811785D01*
X192966Y811713D01*
X193059Y811644D01*
X193153Y811579D01*
X193250Y811517D01*
X193350Y811459D01*
X193451Y811403D01*
X193553Y811352D01*
X193658Y811304D01*
X193764Y811259D01*
X193872Y811218D01*
X193981Y811181D01*
X194091Y811148D01*
X194203Y811119D01*
X194315Y811093D01*
X194428Y811071D01*
X194542Y811054D01*
X194656Y811040D01*
X194771Y811030D01*
X194886Y811024D01*
X195001Y811022D01*
X198161Y813280D02*
X198298Y813569D01*
X198428Y813861D01*
X198551Y814157D01*
X198666Y814455D01*
X198775Y814756D01*
X198876Y815059D01*
X198970Y815365D01*
X199057Y815672D01*
X199136Y815982D01*
X199208Y816294D01*
X199272Y816607D01*
X199329Y816922D01*
X199379Y817238D01*
X199421Y817555D01*
X199455Y817873D01*
X199482Y818191D01*
X199501Y818511D01*
X199512Y818830D01*
X199516Y819150D01*
X198162Y813280D02*
X198123Y813172D01*
X198080Y813065D01*
X198034Y812960D01*
X197983Y812856D01*
X197930Y812754D01*
X197873Y812654D01*
X197812Y812556D01*
X197748Y812461D01*
X197681Y812367D01*
X197610Y812276D01*
X197537Y812187D01*
X197460Y812101D01*
X197381Y812018D01*
X197299Y811937D01*
X197214Y811859D01*
X197126Y811785D01*
X197036Y811713D01*
X196943Y811644D01*
X196849Y811579D01*
X196752Y811517D01*
X196652Y811459D01*
X196551Y811403D01*
X196448Y811352D01*
X196344Y811304D01*
X196238Y811259D01*
X196130Y811218D01*
X196021Y811181D01*
X195911Y811148D01*
X195799Y811119D01*
X195687Y811093D01*
X195574Y811071D01*
X195460Y811054D01*
X195346Y811040D01*
X195231Y811030D01*
X195116Y811024D01*
X195001Y811022D01*
X191389Y814634D02*
X198614Y823666D01*
X206117Y823666D02*
X210632Y827278D01*
X210632Y811022D01*
X206117Y811022D02*
X215148Y811022D01*
X115937Y784352D02*
X108712Y784352D01*
X108712Y800608D01*
X115937Y800608D01*
X114131Y793383D02*
X108712Y793383D01*
X120272Y795189D02*
X125691Y795189D01*
X122078Y800608D02*
X122078Y787061D01*
X122079Y787061D02*
X122081Y786960D01*
X122087Y786859D01*
X122096Y786758D01*
X122109Y786657D01*
X122126Y786557D01*
X122147Y786458D01*
X122171Y786360D01*
X122199Y786263D01*
X122231Y786166D01*
X122266Y786071D01*
X122305Y785978D01*
X122347Y785886D01*
X122393Y785795D01*
X122442Y785707D01*
X122494Y785620D01*
X122550Y785535D01*
X122608Y785452D01*
X122670Y785372D01*
X122735Y785294D01*
X122802Y785218D01*
X122872Y785145D01*
X122945Y785075D01*
X123021Y785008D01*
X123099Y784943D01*
X123179Y784881D01*
X123262Y784823D01*
X123347Y784767D01*
X123434Y784715D01*
X123522Y784666D01*
X123613Y784620D01*
X123705Y784578D01*
X123798Y784539D01*
X123893Y784504D01*
X123990Y784472D01*
X124087Y784444D01*
X124185Y784420D01*
X124284Y784399D01*
X124384Y784382D01*
X124485Y784369D01*
X124586Y784360D01*
X124687Y784354D01*
X124788Y784352D01*
X125691Y784352D01*
X134196Y784352D02*
X137808Y784352D01*
X134196Y784352D02*
X134095Y784354D01*
X133994Y784360D01*
X133893Y784369D01*
X133792Y784382D01*
X133692Y784399D01*
X133593Y784420D01*
X133495Y784444D01*
X133398Y784472D01*
X133301Y784504D01*
X133206Y784539D01*
X133113Y784578D01*
X133021Y784620D01*
X132930Y784666D01*
X132842Y784715D01*
X132755Y784767D01*
X132670Y784823D01*
X132587Y784881D01*
X132507Y784943D01*
X132429Y785008D01*
X132353Y785075D01*
X132280Y785145D01*
X132210Y785218D01*
X132143Y785294D01*
X132078Y785372D01*
X132016Y785452D01*
X131958Y785535D01*
X131902Y785620D01*
X131850Y785707D01*
X131801Y785795D01*
X131755Y785886D01*
X131713Y785978D01*
X131674Y786071D01*
X131639Y786166D01*
X131607Y786263D01*
X131579Y786360D01*
X131555Y786458D01*
X131534Y786557D01*
X131517Y786657D01*
X131504Y786758D01*
X131495Y786859D01*
X131489Y786960D01*
X131487Y787061D01*
X131487Y792480D01*
X131489Y792581D01*
X131495Y792682D01*
X131504Y792783D01*
X131517Y792884D01*
X131534Y792984D01*
X131555Y793083D01*
X131579Y793181D01*
X131607Y793278D01*
X131639Y793375D01*
X131674Y793470D01*
X131713Y793563D01*
X131755Y793655D01*
X131801Y793746D01*
X131850Y793835D01*
X131902Y793921D01*
X131958Y794006D01*
X132016Y794089D01*
X132078Y794169D01*
X132143Y794247D01*
X132210Y794323D01*
X132280Y794396D01*
X132353Y794466D01*
X132429Y794533D01*
X132507Y794598D01*
X132587Y794660D01*
X132670Y794718D01*
X132755Y794774D01*
X132842Y794826D01*
X132930Y794875D01*
X133021Y794921D01*
X133113Y794963D01*
X133206Y795002D01*
X133301Y795037D01*
X133398Y795069D01*
X133495Y795097D01*
X133593Y795121D01*
X133692Y795142D01*
X133792Y795159D01*
X133893Y795172D01*
X133994Y795181D01*
X134095Y795187D01*
X134196Y795189D01*
X137808Y795189D01*
X143974Y800608D02*
X143974Y784352D01*
X143974Y795189D02*
X148490Y795189D01*
X148594Y795187D01*
X148697Y795181D01*
X148801Y795171D01*
X148904Y795157D01*
X149006Y795139D01*
X149107Y795118D01*
X149208Y795092D01*
X149307Y795063D01*
X149406Y795030D01*
X149503Y794993D01*
X149598Y794952D01*
X149692Y794908D01*
X149784Y794860D01*
X149874Y794809D01*
X149963Y794754D01*
X150049Y794696D01*
X150132Y794634D01*
X150214Y794570D01*
X150292Y794502D01*
X150368Y794432D01*
X150442Y794359D01*
X150512Y794282D01*
X150580Y794204D01*
X150644Y794122D01*
X150706Y794039D01*
X150764Y793953D01*
X150819Y793864D01*
X150870Y793774D01*
X150918Y793682D01*
X150962Y793588D01*
X151003Y793493D01*
X151040Y793396D01*
X151073Y793297D01*
X151102Y793198D01*
X151128Y793097D01*
X151149Y792996D01*
X151167Y792894D01*
X151181Y792791D01*
X151191Y792687D01*
X151197Y792584D01*
X151199Y792480D01*
X151199Y784352D01*
X158320Y790674D02*
X169157Y790674D01*
X178845Y790674D02*
X182909Y790674D01*
X178845Y790674D02*
X178733Y790672D01*
X178622Y790666D01*
X178511Y790656D01*
X178400Y790643D01*
X178290Y790625D01*
X178181Y790603D01*
X178072Y790578D01*
X177964Y790549D01*
X177858Y790516D01*
X177752Y790479D01*
X177648Y790439D01*
X177546Y790395D01*
X177445Y790347D01*
X177346Y790296D01*
X177248Y790241D01*
X177153Y790183D01*
X177060Y790122D01*
X176969Y790057D01*
X176880Y789989D01*
X176794Y789918D01*
X176711Y789845D01*
X176630Y789768D01*
X176551Y789688D01*
X176476Y789606D01*
X176404Y789521D01*
X176334Y789434D01*
X176268Y789344D01*
X176205Y789252D01*
X176145Y789157D01*
X176089Y789061D01*
X176036Y788963D01*
X175987Y788863D01*
X175941Y788761D01*
X175899Y788658D01*
X175860Y788553D01*
X175825Y788447D01*
X175794Y788340D01*
X175767Y788232D01*
X175743Y788123D01*
X175724Y788013D01*
X175708Y787903D01*
X175696Y787792D01*
X175688Y787680D01*
X175684Y787569D01*
X175684Y787457D01*
X175688Y787346D01*
X175696Y787234D01*
X175708Y787123D01*
X175724Y787013D01*
X175743Y786903D01*
X175767Y786794D01*
X175794Y786686D01*
X175825Y786579D01*
X175860Y786473D01*
X175899Y786368D01*
X175941Y786265D01*
X175987Y786163D01*
X176036Y786063D01*
X176089Y785965D01*
X176145Y785869D01*
X176205Y785774D01*
X176268Y785682D01*
X176334Y785592D01*
X176404Y785505D01*
X176476Y785420D01*
X176551Y785338D01*
X176630Y785258D01*
X176711Y785181D01*
X176794Y785108D01*
X176880Y785037D01*
X176969Y784969D01*
X177060Y784904D01*
X177153Y784843D01*
X177248Y784785D01*
X177346Y784730D01*
X177445Y784679D01*
X177546Y784631D01*
X177648Y784587D01*
X177752Y784547D01*
X177858Y784510D01*
X177964Y784477D01*
X178072Y784448D01*
X178181Y784423D01*
X178290Y784401D01*
X178400Y784383D01*
X178511Y784370D01*
X178622Y784360D01*
X178733Y784354D01*
X178845Y784352D01*
X182909Y784352D01*
X182909Y792480D01*
X182907Y792581D01*
X182901Y792682D01*
X182892Y792783D01*
X182879Y792884D01*
X182862Y792984D01*
X182841Y793083D01*
X182817Y793181D01*
X182789Y793278D01*
X182757Y793375D01*
X182722Y793470D01*
X182683Y793563D01*
X182641Y793655D01*
X182595Y793746D01*
X182546Y793835D01*
X182494Y793921D01*
X182438Y794006D01*
X182380Y794089D01*
X182318Y794169D01*
X182253Y794247D01*
X182186Y794323D01*
X182116Y794396D01*
X182043Y794466D01*
X181967Y794533D01*
X181889Y794598D01*
X181809Y794660D01*
X181726Y794718D01*
X181641Y794774D01*
X181555Y794826D01*
X181466Y794875D01*
X181375Y794921D01*
X181283Y794963D01*
X181190Y795002D01*
X181095Y795037D01*
X180998Y795069D01*
X180901Y795097D01*
X180803Y795121D01*
X180704Y795142D01*
X180604Y795159D01*
X180503Y795172D01*
X180402Y795181D01*
X180301Y795187D01*
X180200Y795189D01*
X176587Y795189D01*
X190104Y790674D02*
X200941Y790674D01*
X208896Y790674D02*
X213411Y788868D01*
X208895Y790674D02*
X208807Y790711D01*
X208721Y790752D01*
X208636Y790796D01*
X208553Y790844D01*
X208473Y790895D01*
X208394Y790949D01*
X208318Y791007D01*
X208244Y791067D01*
X208172Y791131D01*
X208104Y791197D01*
X208038Y791267D01*
X207975Y791338D01*
X207914Y791413D01*
X207857Y791489D01*
X207804Y791568D01*
X207753Y791649D01*
X207706Y791732D01*
X207662Y791817D01*
X207622Y791904D01*
X207585Y791992D01*
X207552Y792082D01*
X207522Y792173D01*
X207497Y792265D01*
X207475Y792358D01*
X207457Y792452D01*
X207442Y792546D01*
X207432Y792641D01*
X207426Y792737D01*
X207423Y792832D01*
X207424Y792928D01*
X207430Y793023D01*
X207439Y793119D01*
X207452Y793213D01*
X207468Y793307D01*
X207489Y793401D01*
X207514Y793493D01*
X207542Y793584D01*
X207574Y793674D01*
X207609Y793763D01*
X207648Y793850D01*
X207691Y793936D01*
X207737Y794020D01*
X207787Y794101D01*
X207839Y794181D01*
X207895Y794259D01*
X207955Y794334D01*
X208017Y794406D01*
X208082Y794476D01*
X208150Y794544D01*
X208220Y794608D01*
X208293Y794670D01*
X208369Y794728D01*
X208447Y794784D01*
X208527Y794836D01*
X208609Y794885D01*
X208693Y794930D01*
X208779Y794972D01*
X208866Y795011D01*
X208955Y795046D01*
X209046Y795077D01*
X209137Y795104D01*
X209230Y795128D01*
X209323Y795148D01*
X209417Y795164D01*
X209512Y795176D01*
X209607Y795185D01*
X209703Y795189D01*
X209798Y795190D01*
X210045Y795183D01*
X210291Y795171D01*
X210537Y795153D01*
X210783Y795128D01*
X211027Y795098D01*
X211271Y795062D01*
X211514Y795021D01*
X211756Y794973D01*
X211997Y794919D01*
X212236Y794860D01*
X212474Y794795D01*
X212710Y794724D01*
X212945Y794648D01*
X213178Y794566D01*
X213408Y794478D01*
X213636Y794385D01*
X213863Y794287D01*
X213411Y788867D02*
X213499Y788830D01*
X213585Y788789D01*
X213670Y788745D01*
X213753Y788697D01*
X213833Y788646D01*
X213912Y788592D01*
X213988Y788534D01*
X214062Y788474D01*
X214134Y788410D01*
X214202Y788344D01*
X214268Y788274D01*
X214331Y788203D01*
X214392Y788128D01*
X214449Y788052D01*
X214502Y787973D01*
X214553Y787892D01*
X214600Y787809D01*
X214644Y787724D01*
X214684Y787637D01*
X214721Y787549D01*
X214754Y787459D01*
X214784Y787368D01*
X214809Y787276D01*
X214831Y787183D01*
X214849Y787089D01*
X214864Y786995D01*
X214874Y786900D01*
X214880Y786804D01*
X214883Y786709D01*
X214882Y786613D01*
X214876Y786518D01*
X214867Y786422D01*
X214854Y786328D01*
X214838Y786234D01*
X214817Y786140D01*
X214792Y786048D01*
X214764Y785957D01*
X214732Y785867D01*
X214697Y785778D01*
X214658Y785691D01*
X214615Y785605D01*
X214569Y785521D01*
X214519Y785440D01*
X214467Y785360D01*
X214411Y785282D01*
X214351Y785207D01*
X214289Y785135D01*
X214224Y785065D01*
X214156Y784997D01*
X214086Y784933D01*
X214013Y784871D01*
X213937Y784813D01*
X213859Y784757D01*
X213779Y784705D01*
X213697Y784656D01*
X213613Y784611D01*
X213527Y784569D01*
X213440Y784530D01*
X213351Y784495D01*
X213260Y784464D01*
X213169Y784437D01*
X213076Y784413D01*
X212983Y784393D01*
X212889Y784377D01*
X212794Y784365D01*
X212699Y784356D01*
X212603Y784352D01*
X212508Y784351D01*
X212508Y784352D02*
X212146Y784361D01*
X211784Y784379D01*
X211423Y784406D01*
X211063Y784441D01*
X210703Y784484D01*
X210344Y784536D01*
X209987Y784597D01*
X209632Y784666D01*
X209278Y784743D01*
X208926Y784829D01*
X208576Y784923D01*
X208228Y785026D01*
X207883Y785136D01*
X207541Y785255D01*
X221778Y784352D02*
X221778Y800608D01*
X229003Y795189D02*
X221778Y789771D01*
X224939Y792028D02*
X229003Y784352D01*
X237344Y784352D02*
X241860Y784352D01*
X237344Y784352D02*
X237243Y784354D01*
X237142Y784360D01*
X237041Y784369D01*
X236940Y784382D01*
X236840Y784399D01*
X236741Y784420D01*
X236643Y784444D01*
X236546Y784472D01*
X236449Y784504D01*
X236354Y784539D01*
X236261Y784578D01*
X236169Y784620D01*
X236078Y784666D01*
X235990Y784715D01*
X235903Y784767D01*
X235818Y784823D01*
X235735Y784881D01*
X235655Y784943D01*
X235577Y785008D01*
X235501Y785075D01*
X235428Y785145D01*
X235358Y785218D01*
X235291Y785294D01*
X235226Y785372D01*
X235164Y785452D01*
X235106Y785535D01*
X235050Y785620D01*
X234998Y785707D01*
X234949Y785795D01*
X234903Y785886D01*
X234861Y785978D01*
X234822Y786071D01*
X234787Y786166D01*
X234755Y786263D01*
X234727Y786360D01*
X234703Y786458D01*
X234682Y786557D01*
X234665Y786657D01*
X234652Y786758D01*
X234643Y786859D01*
X234637Y786960D01*
X234635Y787061D01*
X234635Y791577D01*
X234636Y791577D02*
X234638Y791696D01*
X234644Y791816D01*
X234654Y791935D01*
X234668Y792053D01*
X234685Y792172D01*
X234707Y792289D01*
X234732Y792406D01*
X234762Y792521D01*
X234795Y792636D01*
X234832Y792750D01*
X234872Y792862D01*
X234917Y792973D01*
X234965Y793082D01*
X235016Y793190D01*
X235071Y793296D01*
X235130Y793400D01*
X235192Y793502D01*
X235257Y793602D01*
X235326Y793700D01*
X235398Y793796D01*
X235473Y793889D01*
X235550Y793979D01*
X235631Y794067D01*
X235715Y794152D01*
X235802Y794234D01*
X235891Y794314D01*
X235983Y794390D01*
X236077Y794464D01*
X236174Y794534D01*
X236272Y794601D01*
X236373Y794665D01*
X236477Y794725D01*
X236582Y794782D01*
X236689Y794835D01*
X236797Y794885D01*
X236907Y794931D01*
X237019Y794973D01*
X237132Y795012D01*
X237246Y795047D01*
X237361Y795078D01*
X237478Y795106D01*
X237595Y795129D01*
X237712Y795149D01*
X237831Y795165D01*
X237950Y795177D01*
X238069Y795185D01*
X238188Y795189D01*
X238308Y795189D01*
X238427Y795185D01*
X238546Y795177D01*
X238665Y795165D01*
X238784Y795149D01*
X238901Y795129D01*
X239018Y795106D01*
X239135Y795078D01*
X239250Y795047D01*
X239364Y795012D01*
X239477Y794973D01*
X239589Y794931D01*
X239699Y794885D01*
X239807Y794835D01*
X239914Y794782D01*
X240019Y794725D01*
X240123Y794665D01*
X240224Y794601D01*
X240322Y794534D01*
X240419Y794464D01*
X240513Y794390D01*
X240605Y794314D01*
X240694Y794234D01*
X240781Y794152D01*
X240865Y794067D01*
X240946Y793979D01*
X241023Y793889D01*
X241098Y793796D01*
X241170Y793700D01*
X241239Y793602D01*
X241304Y793502D01*
X241366Y793400D01*
X241425Y793296D01*
X241480Y793190D01*
X241531Y793082D01*
X241579Y792973D01*
X241624Y792862D01*
X241664Y792750D01*
X241701Y792636D01*
X241734Y792521D01*
X241764Y792406D01*
X241789Y792289D01*
X241811Y792172D01*
X241828Y792053D01*
X241842Y791935D01*
X241852Y791816D01*
X241858Y791696D01*
X241860Y791577D01*
X241860Y789771D01*
X234635Y789771D01*
X246885Y795189D02*
X252304Y795189D01*
X248691Y800608D02*
X248691Y787061D01*
X248693Y786960D01*
X248699Y786859D01*
X248708Y786758D01*
X248721Y786657D01*
X248738Y786557D01*
X248759Y786458D01*
X248783Y786360D01*
X248811Y786263D01*
X248843Y786166D01*
X248878Y786071D01*
X248917Y785978D01*
X248959Y785886D01*
X249005Y785795D01*
X249054Y785707D01*
X249106Y785620D01*
X249162Y785535D01*
X249220Y785452D01*
X249282Y785372D01*
X249347Y785294D01*
X249414Y785218D01*
X249484Y785145D01*
X249557Y785075D01*
X249633Y785008D01*
X249711Y784943D01*
X249791Y784881D01*
X249874Y784823D01*
X249959Y784767D01*
X250046Y784715D01*
X250134Y784666D01*
X250225Y784620D01*
X250317Y784578D01*
X250410Y784539D01*
X250505Y784504D01*
X250602Y784472D01*
X250699Y784444D01*
X250797Y784420D01*
X250896Y784399D01*
X250996Y784382D01*
X251097Y784369D01*
X251198Y784360D01*
X251299Y784354D01*
X251400Y784352D01*
X252304Y784352D01*
X260809Y784352D02*
X264421Y784352D01*
X260809Y784352D02*
X260708Y784354D01*
X260607Y784360D01*
X260506Y784369D01*
X260405Y784382D01*
X260305Y784399D01*
X260206Y784420D01*
X260108Y784444D01*
X260011Y784472D01*
X259914Y784504D01*
X259819Y784539D01*
X259726Y784578D01*
X259634Y784620D01*
X259543Y784666D01*
X259455Y784715D01*
X259368Y784767D01*
X259283Y784823D01*
X259200Y784881D01*
X259120Y784943D01*
X259042Y785008D01*
X258966Y785075D01*
X258893Y785145D01*
X258823Y785218D01*
X258756Y785294D01*
X258691Y785372D01*
X258629Y785452D01*
X258571Y785535D01*
X258515Y785620D01*
X258463Y785707D01*
X258414Y785795D01*
X258368Y785886D01*
X258326Y785978D01*
X258287Y786071D01*
X258252Y786166D01*
X258220Y786263D01*
X258192Y786360D01*
X258168Y786458D01*
X258147Y786557D01*
X258130Y786657D01*
X258117Y786758D01*
X258108Y786859D01*
X258102Y786960D01*
X258100Y787061D01*
X258099Y787061D02*
X258099Y792480D01*
X258100Y792480D02*
X258102Y792581D01*
X258108Y792682D01*
X258117Y792783D01*
X258130Y792884D01*
X258147Y792984D01*
X258168Y793083D01*
X258192Y793181D01*
X258220Y793278D01*
X258252Y793375D01*
X258287Y793470D01*
X258326Y793563D01*
X258368Y793655D01*
X258414Y793746D01*
X258463Y793835D01*
X258515Y793921D01*
X258571Y794006D01*
X258629Y794089D01*
X258691Y794169D01*
X258756Y794247D01*
X258823Y794323D01*
X258893Y794396D01*
X258966Y794466D01*
X259042Y794533D01*
X259120Y794598D01*
X259200Y794660D01*
X259283Y794718D01*
X259368Y794774D01*
X259455Y794826D01*
X259543Y794875D01*
X259634Y794921D01*
X259726Y794963D01*
X259819Y795002D01*
X259914Y795037D01*
X260011Y795069D01*
X260108Y795097D01*
X260206Y795121D01*
X260305Y795142D01*
X260405Y795159D01*
X260506Y795172D01*
X260607Y795181D01*
X260708Y795187D01*
X260809Y795189D01*
X264421Y795189D01*
X270587Y800608D02*
X270587Y784352D01*
X270587Y795189D02*
X275102Y795189D01*
X275206Y795187D01*
X275309Y795181D01*
X275413Y795171D01*
X275516Y795157D01*
X275618Y795139D01*
X275719Y795118D01*
X275820Y795092D01*
X275919Y795063D01*
X276018Y795030D01*
X276115Y794993D01*
X276210Y794952D01*
X276304Y794908D01*
X276396Y794860D01*
X276486Y794809D01*
X276575Y794754D01*
X276661Y794696D01*
X276744Y794634D01*
X276826Y794570D01*
X276904Y794502D01*
X276980Y794432D01*
X277054Y794359D01*
X277124Y794282D01*
X277192Y794204D01*
X277256Y794122D01*
X277318Y794039D01*
X277376Y793953D01*
X277431Y793864D01*
X277482Y793774D01*
X277530Y793682D01*
X277574Y793588D01*
X277615Y793493D01*
X277652Y793396D01*
X277685Y793297D01*
X277714Y793198D01*
X277740Y793097D01*
X277761Y792996D01*
X277779Y792894D01*
X277793Y792791D01*
X277803Y792687D01*
X277809Y792584D01*
X277811Y792480D01*
X277812Y792480D02*
X277812Y784352D01*
X108712Y773938D02*
X108712Y757682D01*
X108712Y773938D02*
X113228Y773938D01*
X113361Y773936D01*
X113493Y773930D01*
X113625Y773920D01*
X113757Y773907D01*
X113889Y773889D01*
X114019Y773868D01*
X114150Y773843D01*
X114279Y773814D01*
X114407Y773781D01*
X114535Y773745D01*
X114661Y773705D01*
X114786Y773661D01*
X114910Y773613D01*
X115032Y773562D01*
X115153Y773507D01*
X115272Y773449D01*
X115390Y773387D01*
X115505Y773322D01*
X115619Y773253D01*
X115730Y773182D01*
X115839Y773106D01*
X115946Y773028D01*
X116051Y772947D01*
X116153Y772862D01*
X116253Y772775D01*
X116350Y772685D01*
X116445Y772592D01*
X116536Y772496D01*
X116625Y772398D01*
X116711Y772297D01*
X116794Y772193D01*
X116874Y772087D01*
X116950Y771979D01*
X117024Y771869D01*
X117094Y771756D01*
X117161Y771642D01*
X117224Y771525D01*
X117284Y771407D01*
X117341Y771287D01*
X117394Y771165D01*
X117443Y771042D01*
X117489Y770918D01*
X117531Y770792D01*
X117569Y770665D01*
X117604Y770537D01*
X117635Y770408D01*
X117662Y770279D01*
X117685Y770148D01*
X117705Y770017D01*
X117720Y769885D01*
X117732Y769753D01*
X117740Y769621D01*
X117744Y769488D01*
X117744Y769356D01*
X117740Y769223D01*
X117732Y769091D01*
X117720Y768959D01*
X117705Y768827D01*
X117685Y768696D01*
X117662Y768565D01*
X117635Y768436D01*
X117604Y768307D01*
X117569Y768179D01*
X117531Y768052D01*
X117489Y767926D01*
X117443Y767802D01*
X117394Y767679D01*
X117341Y767557D01*
X117284Y767437D01*
X117224Y767319D01*
X117161Y767202D01*
X117094Y767088D01*
X117024Y766975D01*
X116950Y766865D01*
X116874Y766757D01*
X116794Y766651D01*
X116711Y766547D01*
X116625Y766446D01*
X116536Y766348D01*
X116445Y766252D01*
X116350Y766159D01*
X116253Y766069D01*
X116153Y765982D01*
X116051Y765897D01*
X115946Y765816D01*
X115839Y765738D01*
X115730Y765662D01*
X115619Y765591D01*
X115505Y765522D01*
X115390Y765457D01*
X115272Y765395D01*
X115153Y765337D01*
X115032Y765282D01*
X114910Y765231D01*
X114786Y765183D01*
X114661Y765139D01*
X114535Y765099D01*
X114407Y765063D01*
X114279Y765030D01*
X114150Y765001D01*
X114019Y764976D01*
X113889Y764955D01*
X113757Y764937D01*
X113625Y764924D01*
X113493Y764914D01*
X113361Y764908D01*
X113228Y764906D01*
X113228Y764907D02*
X108712Y764907D01*
X114131Y764907D02*
X117743Y757682D01*
X126822Y757682D02*
X131338Y757682D01*
X126822Y757682D02*
X126721Y757684D01*
X126620Y757690D01*
X126519Y757699D01*
X126418Y757712D01*
X126318Y757729D01*
X126219Y757750D01*
X126121Y757774D01*
X126024Y757802D01*
X125927Y757834D01*
X125832Y757869D01*
X125739Y757908D01*
X125647Y757950D01*
X125556Y757996D01*
X125468Y758045D01*
X125381Y758097D01*
X125296Y758153D01*
X125213Y758211D01*
X125133Y758273D01*
X125055Y758338D01*
X124979Y758405D01*
X124906Y758475D01*
X124836Y758548D01*
X124769Y758624D01*
X124704Y758702D01*
X124642Y758782D01*
X124584Y758865D01*
X124528Y758950D01*
X124476Y759037D01*
X124427Y759125D01*
X124381Y759216D01*
X124339Y759308D01*
X124300Y759401D01*
X124265Y759496D01*
X124233Y759593D01*
X124205Y759690D01*
X124181Y759788D01*
X124160Y759887D01*
X124143Y759987D01*
X124130Y760088D01*
X124121Y760189D01*
X124115Y760290D01*
X124113Y760391D01*
X124113Y764907D01*
X124115Y765026D01*
X124121Y765146D01*
X124131Y765265D01*
X124145Y765383D01*
X124162Y765502D01*
X124184Y765619D01*
X124209Y765736D01*
X124239Y765851D01*
X124272Y765966D01*
X124309Y766080D01*
X124349Y766192D01*
X124394Y766303D01*
X124442Y766412D01*
X124493Y766520D01*
X124548Y766626D01*
X124607Y766730D01*
X124669Y766832D01*
X124734Y766932D01*
X124803Y767030D01*
X124875Y767126D01*
X124950Y767219D01*
X125027Y767309D01*
X125108Y767397D01*
X125192Y767482D01*
X125279Y767564D01*
X125368Y767644D01*
X125460Y767720D01*
X125554Y767794D01*
X125651Y767864D01*
X125749Y767931D01*
X125850Y767995D01*
X125954Y768055D01*
X126059Y768112D01*
X126166Y768165D01*
X126274Y768215D01*
X126384Y768261D01*
X126496Y768303D01*
X126609Y768342D01*
X126723Y768377D01*
X126838Y768408D01*
X126955Y768436D01*
X127072Y768459D01*
X127189Y768479D01*
X127308Y768495D01*
X127427Y768507D01*
X127546Y768515D01*
X127665Y768519D01*
X127785Y768519D01*
X127904Y768515D01*
X128023Y768507D01*
X128142Y768495D01*
X128261Y768479D01*
X128378Y768459D01*
X128495Y768436D01*
X128612Y768408D01*
X128727Y768377D01*
X128841Y768342D01*
X128954Y768303D01*
X129066Y768261D01*
X129176Y768215D01*
X129284Y768165D01*
X129391Y768112D01*
X129496Y768055D01*
X129600Y767995D01*
X129701Y767931D01*
X129799Y767864D01*
X129896Y767794D01*
X129990Y767720D01*
X130082Y767644D01*
X130171Y767564D01*
X130258Y767482D01*
X130342Y767397D01*
X130423Y767309D01*
X130500Y767219D01*
X130575Y767126D01*
X130647Y767030D01*
X130716Y766932D01*
X130781Y766832D01*
X130843Y766730D01*
X130902Y766626D01*
X130957Y766520D01*
X131008Y766412D01*
X131056Y766303D01*
X131101Y766192D01*
X131141Y766080D01*
X131178Y765966D01*
X131211Y765851D01*
X131241Y765736D01*
X131266Y765619D01*
X131288Y765502D01*
X131305Y765383D01*
X131319Y765265D01*
X131329Y765146D01*
X131335Y765026D01*
X131337Y764907D01*
X131338Y764907D02*
X131338Y763101D01*
X124113Y763101D01*
X137139Y768519D02*
X140751Y757682D01*
X144364Y768519D01*
X158640Y770326D02*
X163156Y773938D01*
X163156Y757682D01*
X167671Y757682D02*
X158640Y757682D01*
X108712Y747268D02*
X108712Y731012D01*
X114131Y738237D02*
X108712Y747268D01*
X114131Y738237D02*
X119549Y747268D01*
X119549Y731012D01*
X129797Y731012D02*
X126184Y747268D01*
X133409Y741849D02*
X129797Y731012D01*
X137022Y731012D02*
X133409Y741849D01*
X140634Y747268D02*
X137022Y731012D01*
D11*
X906100Y517900D03*
D12*
X906100Y543300D03*
X880700Y517900D03*
X880700Y543300D03*
X855300Y517900D03*
X855300Y543300D03*
X829900Y517900D03*
X829900Y543300D03*
X804500Y517900D03*
X804500Y543300D03*
X779100Y517900D03*
X779100Y543300D03*
X753700Y517900D03*
X753700Y543300D03*
X728300Y517900D03*
X728300Y543300D03*
X702900Y517900D03*
X702900Y543300D03*
X677500Y517900D03*
X677500Y543300D03*
X652100Y517900D03*
X652100Y543300D03*
X626700Y517900D03*
X626700Y543300D03*
X601300Y517900D03*
X601300Y543300D03*
X575900Y517900D03*
X575900Y543300D03*
X550500Y517900D03*
X550500Y543300D03*
X525100Y517900D03*
X525100Y543300D03*
X499700Y517900D03*
X499700Y543300D03*
X474300Y517900D03*
X474300Y543300D03*
D11*
X906100Y771900D03*
D12*
X906100Y797300D03*
X880700Y771900D03*
X880700Y797300D03*
X855300Y771900D03*
X855300Y797300D03*
X829900Y771900D03*
X829900Y797300D03*
X804500Y771900D03*
X804500Y797300D03*
X779100Y771900D03*
X779100Y797300D03*
X753700Y771900D03*
X753700Y797300D03*
X728300Y771900D03*
X728300Y797300D03*
X702900Y771900D03*
X702900Y797300D03*
X677500Y771900D03*
X677500Y797300D03*
X652100Y771900D03*
X652100Y797300D03*
X626700Y771900D03*
X626700Y797300D03*
X601300Y771900D03*
X601300Y797300D03*
X575900Y771900D03*
X575900Y797300D03*
X550500Y771900D03*
X550500Y797300D03*
X525100Y771900D03*
X525100Y797300D03*
X499700Y771900D03*
X499700Y797300D03*
X474300Y771900D03*
X474300Y797300D03*
D13*
X1079500Y381000D03*
D14*
X1079500Y406400D03*
X1079500Y431800D03*
X1079500Y457200D03*
X1079500Y482600D03*
X1079500Y508000D03*
X1079500Y533400D03*
X1079500Y558800D03*
X1079500Y584200D03*
X1079500Y609600D03*
X1079500Y635000D03*
X1079500Y660400D03*
X1079500Y685800D03*
X1079500Y711200D03*
X1079500Y736600D03*
X1079500Y762000D03*
X1079500Y787400D03*
X1079500Y812800D03*
X1079500Y838200D03*
X1079500Y863600D03*
D15*
X1079500Y336550D03*
X1079500Y908050D03*
X317500Y336550D03*
X317500Y908050D03*
D16*
X215900Y482600D03*
D17*
X215900Y507600D03*
X215900Y527600D03*
X215900Y552600D03*
D18*
X188800Y451900D03*
X188800Y583300D03*
D19*
X38100Y927100D03*
X38100Y38100D03*
X1231900Y939800D03*
X1231900Y38100D03*
D20*
X76200Y127000D03*
X1193800Y863600D03*
X1193800Y127000D03*
D21*
X762400Y139700D03*
X787400Y139700D03*
X812400Y139700D03*
X533800Y139700D03*
X558800Y139700D03*
X583800Y139700D03*
D22*
X1173099Y698500D03*
X1189101Y698500D03*
X1160399Y596900D03*
X1176401Y596900D03*
D23*
X1103900Y228200D03*
X1103900Y178200D03*
X978900Y178200D03*
X978900Y228200D03*
X392700Y228200D03*
X392700Y178200D03*
X267700Y178200D03*
X267700Y228200D03*
D24*
X658880Y88900D03*
X687320Y88900D03*
D25*
X144900Y304800D03*
X159900Y304800D03*
X144900Y254000D03*
X159900Y254000D03*
X144900Y203200D03*
X159900Y203200D03*
D26*
X702900Y543300D02*
X714965Y531235D01*
X714965Y512376D01*
X762400Y464941D02*
X762400Y139700D01*
X762400Y464941D02*
X714965Y512376D01*
D27*
X614000Y511921D03*
D26*
X614635Y512556D01*
X626700Y534963D02*
X626700Y543300D01*
X614635Y522898D02*
X614635Y512556D01*
X614635Y522898D02*
X626700Y534963D01*
D27*
X753700Y771900D03*
X626219Y570478D03*
D26*
X611233Y555492D01*
D27*
X611233Y555492D03*
D26*
X1167206Y603707D02*
X1167206Y603897D01*
X1167206Y603707D02*
X1160399Y596900D01*
X1173099Y609790D02*
X1173099Y698500D01*
X1173099Y609790D02*
X1167206Y603897D01*
X1160399Y596900D02*
X1160399Y487299D01*
X1079500Y406400D01*
X545503Y529965D02*
X538435Y522898D01*
X261800Y242445D02*
X253455Y234101D01*
X253455Y222300D01*
X261800Y213955D01*
X606298Y531235D02*
X613365Y538303D01*
X733880Y580511D02*
X739013Y575378D01*
X626700Y611163D02*
X626700Y771900D01*
X563835Y548298D02*
X563835Y539573D01*
X554228Y529965D01*
X545503Y529965D01*
X587965Y521628D02*
X597573Y531235D01*
X606298Y531235D01*
X613365Y538303D02*
X613365Y547028D01*
X739013Y557987D02*
X753700Y543300D01*
X626700Y611163D02*
X563835Y548298D01*
X398601Y213955D02*
X261800Y213955D01*
X739013Y557987D02*
X739013Y575378D01*
X587965Y403320D02*
X398601Y213955D01*
X587965Y403320D02*
X587965Y521628D01*
X613365Y547028D02*
X646849Y580511D01*
X733880Y580511D01*
X538435Y522898D02*
X538435Y514173D01*
X266708Y242445D01*
X261800Y242445D01*
X753700Y543300D02*
X767035Y529965D01*
X767035Y512903D01*
X873538Y406400D01*
X1079500Y406400D01*
X750955Y144441D02*
X750955Y134959D01*
X757659Y128255D01*
X767141Y128255D01*
X773845Y134959D01*
X702900Y268164D02*
X702900Y517900D01*
X754345Y147831D02*
X750955Y144441D01*
X773845Y142331D02*
X773845Y134959D01*
X773845Y142331D02*
X782659Y151145D01*
X800955Y151145D01*
X812400Y139700D01*
X754345Y216719D02*
X702900Y268164D01*
X754345Y216719D02*
X754345Y147831D01*
X792435Y548298D02*
X799503Y555365D01*
X809498Y555365D01*
X848138Y457200D02*
X1079500Y457200D01*
X848138Y457200D02*
X792435Y512903D01*
X792435Y548298D01*
X809498Y555365D02*
X821563Y543300D01*
X829900Y543300D01*
X817835Y529965D02*
X804500Y543300D01*
X817835Y529965D02*
X817835Y512903D01*
X848138Y482600D02*
X1079500Y482600D01*
X848138Y482600D02*
X817835Y512903D01*
D27*
X1079500Y533400D03*
X1079500Y533400D03*
D26*
X866438Y546100D02*
X863600Y546100D01*
X858100Y546100D02*
X857250Y546100D01*
X866438Y546100D02*
X875703Y555365D01*
X1057535Y555365D02*
X1079500Y533400D01*
X1057535Y555365D02*
X875703Y555365D01*
X858100Y546100D02*
X855300Y543300D01*
X858100Y546100D02*
X863600Y546100D01*
X978900Y178200D02*
X1103900Y178200D01*
X392700Y178200D02*
X267700Y178200D01*
X482000Y88900D02*
X658880Y88900D01*
X482000Y88900D02*
X392700Y178200D01*
X658880Y88900D02*
X662223Y88900D01*
X904330Y103630D02*
X978900Y178200D01*
X676953Y103630D02*
X662223Y88900D01*
X676953Y103630D02*
X904330Y103630D01*
X215900Y552600D02*
X159900Y496600D01*
X159900Y304800D01*
X159900Y203200D02*
X160982Y203200D01*
X242700Y203200D01*
X267700Y178200D01*
X138533Y193485D02*
X135185Y196833D01*
X138533Y193485D02*
X151267Y193485D01*
X135185Y196833D02*
X135185Y247633D01*
X160982Y203200D02*
X151267Y193485D01*
X1105295Y325865D02*
X1105295Y347235D01*
X972473Y243715D02*
X963385Y234627D01*
X963385Y221773D01*
X972473Y212685D01*
X1079500Y373030D02*
X1079500Y381000D01*
X1079500Y373030D02*
X1105295Y347235D01*
X1105295Y325865D02*
X1023145Y243715D01*
X1063665Y212685D02*
X1104900Y171450D01*
X1023145Y243715D02*
X972473Y243715D01*
X972473Y212685D02*
X1063665Y212685D01*
X1104900Y171450D02*
X1212850Y279400D01*
X1216025Y282575D01*
X728300Y700450D02*
X728300Y771900D01*
X728300Y700450D02*
X728647Y700103D01*
X729456Y699294D01*
D27*
X728647Y700103D03*
X730250Y571748D03*
D26*
X730250Y545250D01*
X728300Y543300D01*
X728300Y517900D01*
X728300Y543300D02*
X721759Y543300D01*
X658641Y543300D02*
X652100Y543300D01*
X708424Y556635D02*
X721759Y543300D01*
X708424Y556635D02*
X671976Y556635D01*
X658641Y543300D01*
X1103900Y178200D02*
X1205100Y279400D01*
X1212850Y279400D01*
X154615Y311167D02*
X151267Y314515D01*
X138533Y314515D01*
X135185Y311167D01*
X135185Y247633D02*
X138533Y244285D01*
X151267Y244285D01*
X154615Y247633D01*
X159900Y304800D02*
X154615Y310085D01*
X154615Y311167D01*
X154615Y248715D02*
X154615Y247633D01*
X154615Y248715D02*
X159900Y254000D01*
X135185Y247633D02*
X135185Y311167D01*
X150185Y259285D02*
X144900Y254000D01*
X150185Y259285D02*
X150185Y260367D01*
X487635Y522898D02*
X494703Y529965D01*
X504698Y529965D01*
X513963Y520700D01*
X395653Y505835D02*
X150185Y260367D01*
X395653Y505835D02*
X479298Y505835D01*
X487635Y514173D01*
X487635Y522898D01*
X522300Y520700D02*
X525100Y517900D01*
X522300Y520700D02*
X513963Y520700D01*
X153533Y295085D02*
X150185Y298433D01*
X153533Y295085D02*
X166267Y295085D01*
X150185Y299515D02*
X144900Y304800D01*
X150185Y299515D02*
X150185Y298433D01*
X389082Y517900D02*
X474300Y517900D01*
X389082Y517900D02*
X166267Y295085D01*
X150185Y208485D02*
X144900Y203200D01*
X150185Y208485D02*
X150185Y209567D01*
X481928Y499485D02*
X493985Y511542D01*
X493985Y512185D01*
X499700Y517900D01*
X440103Y499485D02*
X150185Y209567D01*
X440103Y499485D02*
X481928Y499485D01*
D28*
X38100Y927100D02*
X38100Y38100D01*
X1231900Y38100D02*
X1231900Y939800D01*
X687320Y88900D02*
X683079Y88900D01*
X668984Y74805D01*
X74805Y74805D02*
X38100Y38100D01*
X74805Y74805D02*
X668984Y74805D01*
X831778Y75425D02*
X1231900Y38100D01*
X831778Y75425D02*
X687320Y88900D01*
D26*
X392700Y228200D02*
X267700Y228200D01*
X860298Y783965D02*
X867365Y776898D01*
X1074187Y876427D02*
X1084813Y876427D01*
X843235Y783965D02*
X829900Y797300D01*
X1182294Y705307D02*
X1189101Y698500D01*
X860298Y783965D02*
X843235Y783965D01*
X867365Y776898D02*
X867365Y768173D01*
X875703Y759835D01*
X1084813Y876427D02*
X1182294Y778946D01*
X1182294Y705307D01*
X957595Y759835D02*
X875703Y759835D01*
X957595Y759835D02*
X1074187Y876427D01*
X816565Y766903D02*
X809498Y759835D01*
X587965Y538303D02*
X580898Y531235D01*
X816565Y783965D02*
X829900Y797300D01*
X816565Y783965D02*
X816565Y766903D01*
X809498Y759835D02*
X800773Y759835D01*
X587965Y547028D01*
X587965Y538303D01*
X580898Y531235D02*
X572173Y531235D01*
X562565Y521628D01*
X562565Y512903D01*
X392700Y343038D02*
X392700Y228200D01*
X392700Y343038D02*
X562565Y512903D01*
X978900Y228200D02*
X1103900Y228200D01*
X1176401Y300701D02*
X1176401Y596900D01*
X1176401Y300701D02*
X1103900Y228200D01*
X867365Y802298D02*
X860298Y809365D01*
X1071557Y882777D02*
X1087443Y882777D01*
X867365Y802298D02*
X867365Y793573D01*
X1176401Y604112D02*
X1176401Y596900D01*
X1198296Y771925D02*
X1087443Y882777D01*
X1198296Y771925D02*
X1198296Y626007D01*
X1176401Y604112D01*
X860298Y809365D02*
X824903Y809365D01*
X867365Y793573D02*
X875703Y785235D01*
X974015Y785235D01*
X1071557Y882777D01*
X812838Y797300D02*
X804500Y797300D01*
X812838Y797300D02*
X824903Y809365D01*
M02*
