G04 EAGLE Gerber RS-274X export*
G75*
%MOMM*%
%FSLAX34Y34*%
%LPD*%
%INSilkscreen Top*%
%IPPOS*%
%AMOC8*
5,1,8,0,0,1.08239X$1,22.5*%
G01*
%ADD10C,0.200000*%
%ADD11C,0.254000*%
%ADD12C,0.152400*%
%ADD13C,0.127000*%
%ADD14C,0.076200*%
%ADD15C,0.101600*%

G36*
X150405Y302176D02*
X150405Y302176D01*
X150505Y302175D01*
X150519Y302179D01*
X150531Y302179D01*
X150574Y302197D01*
X150684Y302233D01*
X154684Y304233D01*
X154719Y304259D01*
X154760Y304278D01*
X154809Y304326D01*
X154863Y304367D01*
X154888Y304404D01*
X154919Y304436D01*
X154948Y304498D01*
X154985Y304555D01*
X154995Y304599D01*
X155014Y304639D01*
X155019Y304708D01*
X155034Y304774D01*
X155028Y304819D01*
X155031Y304863D01*
X155012Y304929D01*
X155003Y304997D01*
X154982Y305036D01*
X154970Y305079D01*
X154929Y305134D01*
X154897Y305194D01*
X154863Y305224D01*
X154837Y305260D01*
X154766Y305309D01*
X154728Y305343D01*
X154707Y305351D01*
X154684Y305367D01*
X150684Y307367D01*
X150588Y307395D01*
X150494Y307427D01*
X150481Y307427D01*
X150468Y307431D01*
X150369Y307424D01*
X150269Y307421D01*
X150258Y307416D01*
X150245Y307415D01*
X150154Y307374D01*
X150062Y307336D01*
X150052Y307328D01*
X150040Y307322D01*
X149969Y307252D01*
X149896Y307185D01*
X149890Y307174D01*
X149881Y307164D01*
X149839Y307074D01*
X149793Y306985D01*
X149791Y306971D01*
X149786Y306961D01*
X149783Y306914D01*
X149766Y306800D01*
X149766Y302800D01*
X149783Y302702D01*
X149797Y302603D01*
X149803Y302592D01*
X149805Y302579D01*
X149856Y302493D01*
X149903Y302406D01*
X149913Y302397D01*
X149920Y302386D01*
X149997Y302323D01*
X150072Y302257D01*
X150084Y302253D01*
X150094Y302245D01*
X150188Y302213D01*
X150281Y302177D01*
X150294Y302177D01*
X150306Y302173D01*
X150405Y302176D01*
G37*
G36*
X150405Y251376D02*
X150405Y251376D01*
X150505Y251375D01*
X150519Y251379D01*
X150531Y251379D01*
X150574Y251397D01*
X150684Y251433D01*
X154684Y253433D01*
X154719Y253459D01*
X154760Y253478D01*
X154809Y253526D01*
X154863Y253567D01*
X154888Y253604D01*
X154919Y253636D01*
X154948Y253698D01*
X154985Y253755D01*
X154995Y253799D01*
X155014Y253839D01*
X155019Y253908D01*
X155034Y253974D01*
X155028Y254019D01*
X155031Y254063D01*
X155012Y254129D01*
X155003Y254197D01*
X154982Y254236D01*
X154970Y254279D01*
X154929Y254334D01*
X154897Y254394D01*
X154863Y254424D01*
X154837Y254460D01*
X154766Y254509D01*
X154728Y254543D01*
X154707Y254551D01*
X154684Y254567D01*
X150684Y256567D01*
X150588Y256595D01*
X150494Y256627D01*
X150481Y256627D01*
X150468Y256631D01*
X150369Y256624D01*
X150269Y256621D01*
X150258Y256616D01*
X150245Y256615D01*
X150154Y256574D01*
X150062Y256536D01*
X150052Y256528D01*
X150040Y256522D01*
X149969Y256452D01*
X149896Y256385D01*
X149890Y256374D01*
X149881Y256364D01*
X149839Y256274D01*
X149793Y256185D01*
X149791Y256171D01*
X149786Y256161D01*
X149783Y256114D01*
X149766Y256000D01*
X149766Y252000D01*
X149783Y251902D01*
X149797Y251803D01*
X149803Y251792D01*
X149805Y251779D01*
X149856Y251693D01*
X149903Y251606D01*
X149913Y251597D01*
X149920Y251586D01*
X149997Y251523D01*
X150072Y251457D01*
X150084Y251453D01*
X150094Y251445D01*
X150188Y251413D01*
X150281Y251377D01*
X150294Y251377D01*
X150306Y251373D01*
X150405Y251376D01*
G37*
G36*
X150405Y200576D02*
X150405Y200576D01*
X150505Y200575D01*
X150519Y200579D01*
X150531Y200579D01*
X150574Y200597D01*
X150684Y200633D01*
X154684Y202633D01*
X154719Y202659D01*
X154760Y202678D01*
X154809Y202726D01*
X154863Y202767D01*
X154888Y202804D01*
X154919Y202836D01*
X154948Y202898D01*
X154985Y202955D01*
X154995Y202999D01*
X155014Y203039D01*
X155019Y203108D01*
X155034Y203174D01*
X155028Y203219D01*
X155031Y203263D01*
X155012Y203329D01*
X155003Y203397D01*
X154982Y203436D01*
X154970Y203479D01*
X154929Y203534D01*
X154897Y203594D01*
X154863Y203624D01*
X154837Y203660D01*
X154766Y203709D01*
X154728Y203743D01*
X154707Y203751D01*
X154684Y203767D01*
X150684Y205767D01*
X150588Y205795D01*
X150494Y205827D01*
X150481Y205827D01*
X150468Y205831D01*
X150369Y205824D01*
X150269Y205821D01*
X150258Y205816D01*
X150245Y205815D01*
X150154Y205774D01*
X150062Y205736D01*
X150052Y205728D01*
X150040Y205722D01*
X149969Y205652D01*
X149896Y205585D01*
X149890Y205574D01*
X149881Y205564D01*
X149839Y205474D01*
X149793Y205385D01*
X149791Y205371D01*
X149786Y205361D01*
X149783Y205314D01*
X149766Y205200D01*
X149766Y201200D01*
X149783Y201102D01*
X149797Y201003D01*
X149803Y200992D01*
X149805Y200979D01*
X149856Y200893D01*
X149903Y200806D01*
X149913Y200797D01*
X149920Y200786D01*
X149997Y200723D01*
X150072Y200657D01*
X150084Y200653D01*
X150094Y200645D01*
X150188Y200613D01*
X150281Y200577D01*
X150294Y200577D01*
X150306Y200573D01*
X150405Y200576D01*
G37*
D10*
X1057500Y336550D02*
X1057507Y337090D01*
X1057526Y337629D01*
X1057560Y338168D01*
X1057606Y338706D01*
X1057665Y339243D01*
X1057738Y339778D01*
X1057824Y340311D01*
X1057923Y340842D01*
X1058035Y341370D01*
X1058159Y341896D01*
X1058297Y342418D01*
X1058447Y342936D01*
X1058610Y343451D01*
X1058786Y343962D01*
X1058974Y344468D01*
X1059175Y344969D01*
X1059387Y345465D01*
X1059612Y345956D01*
X1059849Y346441D01*
X1060098Y346921D01*
X1060358Y347394D01*
X1060630Y347860D01*
X1060913Y348320D01*
X1061208Y348773D01*
X1061513Y349218D01*
X1061829Y349655D01*
X1062156Y350085D01*
X1062494Y350507D01*
X1062841Y350920D01*
X1063199Y351324D01*
X1063567Y351720D01*
X1063944Y352106D01*
X1064330Y352483D01*
X1064726Y352851D01*
X1065130Y353209D01*
X1065543Y353556D01*
X1065965Y353894D01*
X1066395Y354221D01*
X1066832Y354537D01*
X1067277Y354842D01*
X1067730Y355137D01*
X1068190Y355420D01*
X1068656Y355692D01*
X1069129Y355952D01*
X1069609Y356201D01*
X1070094Y356438D01*
X1070585Y356663D01*
X1071081Y356875D01*
X1071582Y357076D01*
X1072088Y357264D01*
X1072599Y357440D01*
X1073114Y357603D01*
X1073632Y357753D01*
X1074154Y357891D01*
X1074680Y358015D01*
X1075208Y358127D01*
X1075739Y358226D01*
X1076272Y358312D01*
X1076807Y358385D01*
X1077344Y358444D01*
X1077882Y358490D01*
X1078421Y358524D01*
X1078960Y358543D01*
X1079500Y358550D01*
X1080040Y358543D01*
X1080579Y358524D01*
X1081118Y358490D01*
X1081656Y358444D01*
X1082193Y358385D01*
X1082728Y358312D01*
X1083261Y358226D01*
X1083792Y358127D01*
X1084320Y358015D01*
X1084846Y357891D01*
X1085368Y357753D01*
X1085886Y357603D01*
X1086401Y357440D01*
X1086912Y357264D01*
X1087418Y357076D01*
X1087919Y356875D01*
X1088415Y356663D01*
X1088906Y356438D01*
X1089391Y356201D01*
X1089871Y355952D01*
X1090344Y355692D01*
X1090810Y355420D01*
X1091270Y355137D01*
X1091723Y354842D01*
X1092168Y354537D01*
X1092605Y354221D01*
X1093035Y353894D01*
X1093457Y353556D01*
X1093870Y353209D01*
X1094274Y352851D01*
X1094670Y352483D01*
X1095056Y352106D01*
X1095433Y351720D01*
X1095801Y351324D01*
X1096159Y350920D01*
X1096506Y350507D01*
X1096844Y350085D01*
X1097171Y349655D01*
X1097487Y349218D01*
X1097792Y348773D01*
X1098087Y348320D01*
X1098370Y347860D01*
X1098642Y347394D01*
X1098902Y346921D01*
X1099151Y346441D01*
X1099388Y345956D01*
X1099613Y345465D01*
X1099825Y344969D01*
X1100026Y344468D01*
X1100214Y343962D01*
X1100390Y343451D01*
X1100553Y342936D01*
X1100703Y342418D01*
X1100841Y341896D01*
X1100965Y341370D01*
X1101077Y340842D01*
X1101176Y340311D01*
X1101262Y339778D01*
X1101335Y339243D01*
X1101394Y338706D01*
X1101440Y338168D01*
X1101474Y337629D01*
X1101493Y337090D01*
X1101500Y336550D01*
X1101493Y336010D01*
X1101474Y335471D01*
X1101440Y334932D01*
X1101394Y334394D01*
X1101335Y333857D01*
X1101262Y333322D01*
X1101176Y332789D01*
X1101077Y332258D01*
X1100965Y331730D01*
X1100841Y331204D01*
X1100703Y330682D01*
X1100553Y330164D01*
X1100390Y329649D01*
X1100214Y329138D01*
X1100026Y328632D01*
X1099825Y328131D01*
X1099613Y327635D01*
X1099388Y327144D01*
X1099151Y326659D01*
X1098902Y326179D01*
X1098642Y325706D01*
X1098370Y325240D01*
X1098087Y324780D01*
X1097792Y324327D01*
X1097487Y323882D01*
X1097171Y323445D01*
X1096844Y323015D01*
X1096506Y322593D01*
X1096159Y322180D01*
X1095801Y321776D01*
X1095433Y321380D01*
X1095056Y320994D01*
X1094670Y320617D01*
X1094274Y320249D01*
X1093870Y319891D01*
X1093457Y319544D01*
X1093035Y319206D01*
X1092605Y318879D01*
X1092168Y318563D01*
X1091723Y318258D01*
X1091270Y317963D01*
X1090810Y317680D01*
X1090344Y317408D01*
X1089871Y317148D01*
X1089391Y316899D01*
X1088906Y316662D01*
X1088415Y316437D01*
X1087919Y316225D01*
X1087418Y316024D01*
X1086912Y315836D01*
X1086401Y315660D01*
X1085886Y315497D01*
X1085368Y315347D01*
X1084846Y315209D01*
X1084320Y315085D01*
X1083792Y314973D01*
X1083261Y314874D01*
X1082728Y314788D01*
X1082193Y314715D01*
X1081656Y314656D01*
X1081118Y314610D01*
X1080579Y314576D01*
X1080040Y314557D01*
X1079500Y314550D01*
X1078960Y314557D01*
X1078421Y314576D01*
X1077882Y314610D01*
X1077344Y314656D01*
X1076807Y314715D01*
X1076272Y314788D01*
X1075739Y314874D01*
X1075208Y314973D01*
X1074680Y315085D01*
X1074154Y315209D01*
X1073632Y315347D01*
X1073114Y315497D01*
X1072599Y315660D01*
X1072088Y315836D01*
X1071582Y316024D01*
X1071081Y316225D01*
X1070585Y316437D01*
X1070094Y316662D01*
X1069609Y316899D01*
X1069129Y317148D01*
X1068656Y317408D01*
X1068190Y317680D01*
X1067730Y317963D01*
X1067277Y318258D01*
X1066832Y318563D01*
X1066395Y318879D01*
X1065965Y319206D01*
X1065543Y319544D01*
X1065130Y319891D01*
X1064726Y320249D01*
X1064330Y320617D01*
X1063944Y320994D01*
X1063567Y321380D01*
X1063199Y321776D01*
X1062841Y322180D01*
X1062494Y322593D01*
X1062156Y323015D01*
X1061829Y323445D01*
X1061513Y323882D01*
X1061208Y324327D01*
X1060913Y324780D01*
X1060630Y325240D01*
X1060358Y325706D01*
X1060098Y326179D01*
X1059849Y326659D01*
X1059612Y327144D01*
X1059387Y327635D01*
X1059175Y328131D01*
X1058974Y328632D01*
X1058786Y329138D01*
X1058610Y329649D01*
X1058447Y330164D01*
X1058297Y330682D01*
X1058159Y331204D01*
X1058035Y331730D01*
X1057923Y332258D01*
X1057824Y332789D01*
X1057738Y333322D01*
X1057665Y333857D01*
X1057606Y334394D01*
X1057560Y334932D01*
X1057526Y335471D01*
X1057507Y336010D01*
X1057500Y336550D01*
X1057500Y908050D02*
X1057507Y908590D01*
X1057526Y909129D01*
X1057560Y909668D01*
X1057606Y910206D01*
X1057665Y910743D01*
X1057738Y911278D01*
X1057824Y911811D01*
X1057923Y912342D01*
X1058035Y912870D01*
X1058159Y913396D01*
X1058297Y913918D01*
X1058447Y914436D01*
X1058610Y914951D01*
X1058786Y915462D01*
X1058974Y915968D01*
X1059175Y916469D01*
X1059387Y916965D01*
X1059612Y917456D01*
X1059849Y917941D01*
X1060098Y918421D01*
X1060358Y918894D01*
X1060630Y919360D01*
X1060913Y919820D01*
X1061208Y920273D01*
X1061513Y920718D01*
X1061829Y921155D01*
X1062156Y921585D01*
X1062494Y922007D01*
X1062841Y922420D01*
X1063199Y922824D01*
X1063567Y923220D01*
X1063944Y923606D01*
X1064330Y923983D01*
X1064726Y924351D01*
X1065130Y924709D01*
X1065543Y925056D01*
X1065965Y925394D01*
X1066395Y925721D01*
X1066832Y926037D01*
X1067277Y926342D01*
X1067730Y926637D01*
X1068190Y926920D01*
X1068656Y927192D01*
X1069129Y927452D01*
X1069609Y927701D01*
X1070094Y927938D01*
X1070585Y928163D01*
X1071081Y928375D01*
X1071582Y928576D01*
X1072088Y928764D01*
X1072599Y928940D01*
X1073114Y929103D01*
X1073632Y929253D01*
X1074154Y929391D01*
X1074680Y929515D01*
X1075208Y929627D01*
X1075739Y929726D01*
X1076272Y929812D01*
X1076807Y929885D01*
X1077344Y929944D01*
X1077882Y929990D01*
X1078421Y930024D01*
X1078960Y930043D01*
X1079500Y930050D01*
X1080040Y930043D01*
X1080579Y930024D01*
X1081118Y929990D01*
X1081656Y929944D01*
X1082193Y929885D01*
X1082728Y929812D01*
X1083261Y929726D01*
X1083792Y929627D01*
X1084320Y929515D01*
X1084846Y929391D01*
X1085368Y929253D01*
X1085886Y929103D01*
X1086401Y928940D01*
X1086912Y928764D01*
X1087418Y928576D01*
X1087919Y928375D01*
X1088415Y928163D01*
X1088906Y927938D01*
X1089391Y927701D01*
X1089871Y927452D01*
X1090344Y927192D01*
X1090810Y926920D01*
X1091270Y926637D01*
X1091723Y926342D01*
X1092168Y926037D01*
X1092605Y925721D01*
X1093035Y925394D01*
X1093457Y925056D01*
X1093870Y924709D01*
X1094274Y924351D01*
X1094670Y923983D01*
X1095056Y923606D01*
X1095433Y923220D01*
X1095801Y922824D01*
X1096159Y922420D01*
X1096506Y922007D01*
X1096844Y921585D01*
X1097171Y921155D01*
X1097487Y920718D01*
X1097792Y920273D01*
X1098087Y919820D01*
X1098370Y919360D01*
X1098642Y918894D01*
X1098902Y918421D01*
X1099151Y917941D01*
X1099388Y917456D01*
X1099613Y916965D01*
X1099825Y916469D01*
X1100026Y915968D01*
X1100214Y915462D01*
X1100390Y914951D01*
X1100553Y914436D01*
X1100703Y913918D01*
X1100841Y913396D01*
X1100965Y912870D01*
X1101077Y912342D01*
X1101176Y911811D01*
X1101262Y911278D01*
X1101335Y910743D01*
X1101394Y910206D01*
X1101440Y909668D01*
X1101474Y909129D01*
X1101493Y908590D01*
X1101500Y908050D01*
X1101493Y907510D01*
X1101474Y906971D01*
X1101440Y906432D01*
X1101394Y905894D01*
X1101335Y905357D01*
X1101262Y904822D01*
X1101176Y904289D01*
X1101077Y903758D01*
X1100965Y903230D01*
X1100841Y902704D01*
X1100703Y902182D01*
X1100553Y901664D01*
X1100390Y901149D01*
X1100214Y900638D01*
X1100026Y900132D01*
X1099825Y899631D01*
X1099613Y899135D01*
X1099388Y898644D01*
X1099151Y898159D01*
X1098902Y897679D01*
X1098642Y897206D01*
X1098370Y896740D01*
X1098087Y896280D01*
X1097792Y895827D01*
X1097487Y895382D01*
X1097171Y894945D01*
X1096844Y894515D01*
X1096506Y894093D01*
X1096159Y893680D01*
X1095801Y893276D01*
X1095433Y892880D01*
X1095056Y892494D01*
X1094670Y892117D01*
X1094274Y891749D01*
X1093870Y891391D01*
X1093457Y891044D01*
X1093035Y890706D01*
X1092605Y890379D01*
X1092168Y890063D01*
X1091723Y889758D01*
X1091270Y889463D01*
X1090810Y889180D01*
X1090344Y888908D01*
X1089871Y888648D01*
X1089391Y888399D01*
X1088906Y888162D01*
X1088415Y887937D01*
X1087919Y887725D01*
X1087418Y887524D01*
X1086912Y887336D01*
X1086401Y887160D01*
X1085886Y886997D01*
X1085368Y886847D01*
X1084846Y886709D01*
X1084320Y886585D01*
X1083792Y886473D01*
X1083261Y886374D01*
X1082728Y886288D01*
X1082193Y886215D01*
X1081656Y886156D01*
X1081118Y886110D01*
X1080579Y886076D01*
X1080040Y886057D01*
X1079500Y886050D01*
X1078960Y886057D01*
X1078421Y886076D01*
X1077882Y886110D01*
X1077344Y886156D01*
X1076807Y886215D01*
X1076272Y886288D01*
X1075739Y886374D01*
X1075208Y886473D01*
X1074680Y886585D01*
X1074154Y886709D01*
X1073632Y886847D01*
X1073114Y886997D01*
X1072599Y887160D01*
X1072088Y887336D01*
X1071582Y887524D01*
X1071081Y887725D01*
X1070585Y887937D01*
X1070094Y888162D01*
X1069609Y888399D01*
X1069129Y888648D01*
X1068656Y888908D01*
X1068190Y889180D01*
X1067730Y889463D01*
X1067277Y889758D01*
X1066832Y890063D01*
X1066395Y890379D01*
X1065965Y890706D01*
X1065543Y891044D01*
X1065130Y891391D01*
X1064726Y891749D01*
X1064330Y892117D01*
X1063944Y892494D01*
X1063567Y892880D01*
X1063199Y893276D01*
X1062841Y893680D01*
X1062494Y894093D01*
X1062156Y894515D01*
X1061829Y894945D01*
X1061513Y895382D01*
X1061208Y895827D01*
X1060913Y896280D01*
X1060630Y896740D01*
X1060358Y897206D01*
X1060098Y897679D01*
X1059849Y898159D01*
X1059612Y898644D01*
X1059387Y899135D01*
X1059175Y899631D01*
X1058974Y900132D01*
X1058786Y900638D01*
X1058610Y901149D01*
X1058447Y901664D01*
X1058297Y902182D01*
X1058159Y902704D01*
X1058035Y903230D01*
X1057923Y903758D01*
X1057824Y904289D01*
X1057738Y904822D01*
X1057665Y905357D01*
X1057606Y905894D01*
X1057560Y906432D01*
X1057526Y906971D01*
X1057507Y907510D01*
X1057500Y908050D01*
X295500Y336550D02*
X295507Y337090D01*
X295526Y337629D01*
X295560Y338168D01*
X295606Y338706D01*
X295665Y339243D01*
X295738Y339778D01*
X295824Y340311D01*
X295923Y340842D01*
X296035Y341370D01*
X296159Y341896D01*
X296297Y342418D01*
X296447Y342936D01*
X296610Y343451D01*
X296786Y343962D01*
X296974Y344468D01*
X297175Y344969D01*
X297387Y345465D01*
X297612Y345956D01*
X297849Y346441D01*
X298098Y346921D01*
X298358Y347394D01*
X298630Y347860D01*
X298913Y348320D01*
X299208Y348773D01*
X299513Y349218D01*
X299829Y349655D01*
X300156Y350085D01*
X300494Y350507D01*
X300841Y350920D01*
X301199Y351324D01*
X301567Y351720D01*
X301944Y352106D01*
X302330Y352483D01*
X302726Y352851D01*
X303130Y353209D01*
X303543Y353556D01*
X303965Y353894D01*
X304395Y354221D01*
X304832Y354537D01*
X305277Y354842D01*
X305730Y355137D01*
X306190Y355420D01*
X306656Y355692D01*
X307129Y355952D01*
X307609Y356201D01*
X308094Y356438D01*
X308585Y356663D01*
X309081Y356875D01*
X309582Y357076D01*
X310088Y357264D01*
X310599Y357440D01*
X311114Y357603D01*
X311632Y357753D01*
X312154Y357891D01*
X312680Y358015D01*
X313208Y358127D01*
X313739Y358226D01*
X314272Y358312D01*
X314807Y358385D01*
X315344Y358444D01*
X315882Y358490D01*
X316421Y358524D01*
X316960Y358543D01*
X317500Y358550D01*
X318040Y358543D01*
X318579Y358524D01*
X319118Y358490D01*
X319656Y358444D01*
X320193Y358385D01*
X320728Y358312D01*
X321261Y358226D01*
X321792Y358127D01*
X322320Y358015D01*
X322846Y357891D01*
X323368Y357753D01*
X323886Y357603D01*
X324401Y357440D01*
X324912Y357264D01*
X325418Y357076D01*
X325919Y356875D01*
X326415Y356663D01*
X326906Y356438D01*
X327391Y356201D01*
X327871Y355952D01*
X328344Y355692D01*
X328810Y355420D01*
X329270Y355137D01*
X329723Y354842D01*
X330168Y354537D01*
X330605Y354221D01*
X331035Y353894D01*
X331457Y353556D01*
X331870Y353209D01*
X332274Y352851D01*
X332670Y352483D01*
X333056Y352106D01*
X333433Y351720D01*
X333801Y351324D01*
X334159Y350920D01*
X334506Y350507D01*
X334844Y350085D01*
X335171Y349655D01*
X335487Y349218D01*
X335792Y348773D01*
X336087Y348320D01*
X336370Y347860D01*
X336642Y347394D01*
X336902Y346921D01*
X337151Y346441D01*
X337388Y345956D01*
X337613Y345465D01*
X337825Y344969D01*
X338026Y344468D01*
X338214Y343962D01*
X338390Y343451D01*
X338553Y342936D01*
X338703Y342418D01*
X338841Y341896D01*
X338965Y341370D01*
X339077Y340842D01*
X339176Y340311D01*
X339262Y339778D01*
X339335Y339243D01*
X339394Y338706D01*
X339440Y338168D01*
X339474Y337629D01*
X339493Y337090D01*
X339500Y336550D01*
X339493Y336010D01*
X339474Y335471D01*
X339440Y334932D01*
X339394Y334394D01*
X339335Y333857D01*
X339262Y333322D01*
X339176Y332789D01*
X339077Y332258D01*
X338965Y331730D01*
X338841Y331204D01*
X338703Y330682D01*
X338553Y330164D01*
X338390Y329649D01*
X338214Y329138D01*
X338026Y328632D01*
X337825Y328131D01*
X337613Y327635D01*
X337388Y327144D01*
X337151Y326659D01*
X336902Y326179D01*
X336642Y325706D01*
X336370Y325240D01*
X336087Y324780D01*
X335792Y324327D01*
X335487Y323882D01*
X335171Y323445D01*
X334844Y323015D01*
X334506Y322593D01*
X334159Y322180D01*
X333801Y321776D01*
X333433Y321380D01*
X333056Y320994D01*
X332670Y320617D01*
X332274Y320249D01*
X331870Y319891D01*
X331457Y319544D01*
X331035Y319206D01*
X330605Y318879D01*
X330168Y318563D01*
X329723Y318258D01*
X329270Y317963D01*
X328810Y317680D01*
X328344Y317408D01*
X327871Y317148D01*
X327391Y316899D01*
X326906Y316662D01*
X326415Y316437D01*
X325919Y316225D01*
X325418Y316024D01*
X324912Y315836D01*
X324401Y315660D01*
X323886Y315497D01*
X323368Y315347D01*
X322846Y315209D01*
X322320Y315085D01*
X321792Y314973D01*
X321261Y314874D01*
X320728Y314788D01*
X320193Y314715D01*
X319656Y314656D01*
X319118Y314610D01*
X318579Y314576D01*
X318040Y314557D01*
X317500Y314550D01*
X316960Y314557D01*
X316421Y314576D01*
X315882Y314610D01*
X315344Y314656D01*
X314807Y314715D01*
X314272Y314788D01*
X313739Y314874D01*
X313208Y314973D01*
X312680Y315085D01*
X312154Y315209D01*
X311632Y315347D01*
X311114Y315497D01*
X310599Y315660D01*
X310088Y315836D01*
X309582Y316024D01*
X309081Y316225D01*
X308585Y316437D01*
X308094Y316662D01*
X307609Y316899D01*
X307129Y317148D01*
X306656Y317408D01*
X306190Y317680D01*
X305730Y317963D01*
X305277Y318258D01*
X304832Y318563D01*
X304395Y318879D01*
X303965Y319206D01*
X303543Y319544D01*
X303130Y319891D01*
X302726Y320249D01*
X302330Y320617D01*
X301944Y320994D01*
X301567Y321380D01*
X301199Y321776D01*
X300841Y322180D01*
X300494Y322593D01*
X300156Y323015D01*
X299829Y323445D01*
X299513Y323882D01*
X299208Y324327D01*
X298913Y324780D01*
X298630Y325240D01*
X298358Y325706D01*
X298098Y326179D01*
X297849Y326659D01*
X297612Y327144D01*
X297387Y327635D01*
X297175Y328131D01*
X296974Y328632D01*
X296786Y329138D01*
X296610Y329649D01*
X296447Y330164D01*
X296297Y330682D01*
X296159Y331204D01*
X296035Y331730D01*
X295923Y332258D01*
X295824Y332789D01*
X295738Y333322D01*
X295665Y333857D01*
X295606Y334394D01*
X295560Y334932D01*
X295526Y335471D01*
X295507Y336010D01*
X295500Y336550D01*
X295500Y908050D02*
X295507Y908590D01*
X295526Y909129D01*
X295560Y909668D01*
X295606Y910206D01*
X295665Y910743D01*
X295738Y911278D01*
X295824Y911811D01*
X295923Y912342D01*
X296035Y912870D01*
X296159Y913396D01*
X296297Y913918D01*
X296447Y914436D01*
X296610Y914951D01*
X296786Y915462D01*
X296974Y915968D01*
X297175Y916469D01*
X297387Y916965D01*
X297612Y917456D01*
X297849Y917941D01*
X298098Y918421D01*
X298358Y918894D01*
X298630Y919360D01*
X298913Y919820D01*
X299208Y920273D01*
X299513Y920718D01*
X299829Y921155D01*
X300156Y921585D01*
X300494Y922007D01*
X300841Y922420D01*
X301199Y922824D01*
X301567Y923220D01*
X301944Y923606D01*
X302330Y923983D01*
X302726Y924351D01*
X303130Y924709D01*
X303543Y925056D01*
X303965Y925394D01*
X304395Y925721D01*
X304832Y926037D01*
X305277Y926342D01*
X305730Y926637D01*
X306190Y926920D01*
X306656Y927192D01*
X307129Y927452D01*
X307609Y927701D01*
X308094Y927938D01*
X308585Y928163D01*
X309081Y928375D01*
X309582Y928576D01*
X310088Y928764D01*
X310599Y928940D01*
X311114Y929103D01*
X311632Y929253D01*
X312154Y929391D01*
X312680Y929515D01*
X313208Y929627D01*
X313739Y929726D01*
X314272Y929812D01*
X314807Y929885D01*
X315344Y929944D01*
X315882Y929990D01*
X316421Y930024D01*
X316960Y930043D01*
X317500Y930050D01*
X318040Y930043D01*
X318579Y930024D01*
X319118Y929990D01*
X319656Y929944D01*
X320193Y929885D01*
X320728Y929812D01*
X321261Y929726D01*
X321792Y929627D01*
X322320Y929515D01*
X322846Y929391D01*
X323368Y929253D01*
X323886Y929103D01*
X324401Y928940D01*
X324912Y928764D01*
X325418Y928576D01*
X325919Y928375D01*
X326415Y928163D01*
X326906Y927938D01*
X327391Y927701D01*
X327871Y927452D01*
X328344Y927192D01*
X328810Y926920D01*
X329270Y926637D01*
X329723Y926342D01*
X330168Y926037D01*
X330605Y925721D01*
X331035Y925394D01*
X331457Y925056D01*
X331870Y924709D01*
X332274Y924351D01*
X332670Y923983D01*
X333056Y923606D01*
X333433Y923220D01*
X333801Y922824D01*
X334159Y922420D01*
X334506Y922007D01*
X334844Y921585D01*
X335171Y921155D01*
X335487Y920718D01*
X335792Y920273D01*
X336087Y919820D01*
X336370Y919360D01*
X336642Y918894D01*
X336902Y918421D01*
X337151Y917941D01*
X337388Y917456D01*
X337613Y916965D01*
X337825Y916469D01*
X338026Y915968D01*
X338214Y915462D01*
X338390Y914951D01*
X338553Y914436D01*
X338703Y913918D01*
X338841Y913396D01*
X338965Y912870D01*
X339077Y912342D01*
X339176Y911811D01*
X339262Y911278D01*
X339335Y910743D01*
X339394Y910206D01*
X339440Y909668D01*
X339474Y909129D01*
X339493Y908590D01*
X339500Y908050D01*
X339493Y907510D01*
X339474Y906971D01*
X339440Y906432D01*
X339394Y905894D01*
X339335Y905357D01*
X339262Y904822D01*
X339176Y904289D01*
X339077Y903758D01*
X338965Y903230D01*
X338841Y902704D01*
X338703Y902182D01*
X338553Y901664D01*
X338390Y901149D01*
X338214Y900638D01*
X338026Y900132D01*
X337825Y899631D01*
X337613Y899135D01*
X337388Y898644D01*
X337151Y898159D01*
X336902Y897679D01*
X336642Y897206D01*
X336370Y896740D01*
X336087Y896280D01*
X335792Y895827D01*
X335487Y895382D01*
X335171Y894945D01*
X334844Y894515D01*
X334506Y894093D01*
X334159Y893680D01*
X333801Y893276D01*
X333433Y892880D01*
X333056Y892494D01*
X332670Y892117D01*
X332274Y891749D01*
X331870Y891391D01*
X331457Y891044D01*
X331035Y890706D01*
X330605Y890379D01*
X330168Y890063D01*
X329723Y889758D01*
X329270Y889463D01*
X328810Y889180D01*
X328344Y888908D01*
X327871Y888648D01*
X327391Y888399D01*
X326906Y888162D01*
X326415Y887937D01*
X325919Y887725D01*
X325418Y887524D01*
X324912Y887336D01*
X324401Y887160D01*
X323886Y886997D01*
X323368Y886847D01*
X322846Y886709D01*
X322320Y886585D01*
X321792Y886473D01*
X321261Y886374D01*
X320728Y886288D01*
X320193Y886215D01*
X319656Y886156D01*
X319118Y886110D01*
X318579Y886076D01*
X318040Y886057D01*
X317500Y886050D01*
X316960Y886057D01*
X316421Y886076D01*
X315882Y886110D01*
X315344Y886156D01*
X314807Y886215D01*
X314272Y886288D01*
X313739Y886374D01*
X313208Y886473D01*
X312680Y886585D01*
X312154Y886709D01*
X311632Y886847D01*
X311114Y886997D01*
X310599Y887160D01*
X310088Y887336D01*
X309582Y887524D01*
X309081Y887725D01*
X308585Y887937D01*
X308094Y888162D01*
X307609Y888399D01*
X307129Y888648D01*
X306656Y888908D01*
X306190Y889180D01*
X305730Y889463D01*
X305277Y889758D01*
X304832Y890063D01*
X304395Y890379D01*
X303965Y890706D01*
X303543Y891044D01*
X303130Y891391D01*
X302726Y891749D01*
X302330Y892117D01*
X301944Y892494D01*
X301567Y892880D01*
X301199Y893276D01*
X300841Y893680D01*
X300494Y894093D01*
X300156Y894515D01*
X299829Y894945D01*
X299513Y895382D01*
X299208Y895827D01*
X298913Y896280D01*
X298630Y896740D01*
X298358Y897206D01*
X298098Y897679D01*
X297849Y898159D01*
X297612Y898644D01*
X297387Y899135D01*
X297175Y899631D01*
X296974Y900132D01*
X296786Y900638D01*
X296610Y901149D01*
X296447Y901664D01*
X296297Y902182D01*
X296159Y902704D01*
X296035Y903230D01*
X295923Y903758D01*
X295824Y904289D01*
X295738Y904822D01*
X295665Y905357D01*
X295606Y905894D01*
X295560Y906432D01*
X295526Y906971D01*
X295507Y907510D01*
X295500Y908050D01*
D11*
X1079500Y309880D02*
X1080114Y309887D01*
X1080727Y309910D01*
X1081340Y309947D01*
X1081951Y309999D01*
X1082562Y310065D01*
X1083170Y310147D01*
X1083776Y310243D01*
X1084380Y310353D01*
X1084981Y310478D01*
X1085579Y310618D01*
X1086173Y310772D01*
X1086763Y310941D01*
X1087349Y311123D01*
X1087930Y311320D01*
X1088507Y311531D01*
X1089078Y311755D01*
X1089644Y311993D01*
X1090204Y312245D01*
X1090757Y312511D01*
X1091304Y312789D01*
X1091844Y313081D01*
X1092377Y313386D01*
X1092902Y313704D01*
X1093420Y314034D01*
X1093929Y314376D01*
X1094430Y314731D01*
X1094922Y315098D01*
X1095405Y315476D01*
X1095879Y315866D01*
X1096343Y316268D01*
X1096798Y316680D01*
X1097242Y317104D01*
X1097676Y317538D01*
X1098100Y317982D01*
X1098512Y318437D01*
X1098914Y318901D01*
X1099304Y319375D01*
X1099682Y319858D01*
X1100049Y320350D01*
X1100404Y320851D01*
X1100746Y321360D01*
X1101076Y321878D01*
X1101394Y322403D01*
X1101699Y322936D01*
X1101991Y323476D01*
X1102269Y324023D01*
X1102535Y324576D01*
X1102787Y325136D01*
X1103025Y325702D01*
X1103249Y326273D01*
X1103460Y326850D01*
X1103657Y327431D01*
X1103839Y328017D01*
X1104008Y328607D01*
X1104162Y329201D01*
X1104302Y329799D01*
X1104427Y330400D01*
X1104537Y331004D01*
X1104633Y331610D01*
X1104715Y332218D01*
X1104781Y332829D01*
X1104833Y333440D01*
X1104870Y334053D01*
X1104893Y334666D01*
X1104900Y335280D01*
X1104900Y909320D01*
X1104893Y909934D01*
X1104870Y910547D01*
X1104833Y911160D01*
X1104781Y911771D01*
X1104715Y912382D01*
X1104633Y912990D01*
X1104537Y913596D01*
X1104427Y914200D01*
X1104302Y914801D01*
X1104162Y915399D01*
X1104008Y915993D01*
X1103839Y916583D01*
X1103657Y917169D01*
X1103460Y917750D01*
X1103249Y918327D01*
X1103025Y918898D01*
X1102787Y919464D01*
X1102535Y920024D01*
X1102269Y920577D01*
X1101991Y921124D01*
X1101699Y921664D01*
X1101394Y922197D01*
X1101076Y922722D01*
X1100746Y923240D01*
X1100404Y923749D01*
X1100049Y924250D01*
X1099682Y924742D01*
X1099304Y925225D01*
X1098914Y925699D01*
X1098512Y926163D01*
X1098100Y926618D01*
X1097676Y927062D01*
X1097242Y927496D01*
X1096798Y927920D01*
X1096343Y928332D01*
X1095879Y928734D01*
X1095405Y929124D01*
X1094922Y929502D01*
X1094430Y929869D01*
X1093929Y930224D01*
X1093420Y930566D01*
X1092902Y930896D01*
X1092377Y931214D01*
X1091844Y931519D01*
X1091304Y931811D01*
X1090757Y932089D01*
X1090204Y932355D01*
X1089644Y932607D01*
X1089078Y932845D01*
X1088507Y933069D01*
X1087930Y933280D01*
X1087349Y933477D01*
X1086763Y933659D01*
X1086173Y933828D01*
X1085579Y933982D01*
X1084981Y934122D01*
X1084380Y934247D01*
X1083776Y934357D01*
X1083170Y934453D01*
X1082562Y934535D01*
X1081951Y934601D01*
X1081340Y934653D01*
X1080727Y934690D01*
X1080114Y934713D01*
X1079500Y934720D01*
X1078886Y934713D01*
X1078273Y934690D01*
X1077660Y934653D01*
X1077049Y934601D01*
X1076438Y934535D01*
X1075830Y934453D01*
X1075224Y934357D01*
X1074620Y934247D01*
X1074019Y934122D01*
X1073421Y933982D01*
X1072827Y933828D01*
X1072237Y933659D01*
X1071651Y933477D01*
X1071070Y933280D01*
X1070493Y933069D01*
X1069922Y932845D01*
X1069356Y932607D01*
X1068796Y932355D01*
X1068243Y932089D01*
X1067696Y931811D01*
X1067156Y931519D01*
X1066623Y931214D01*
X1066098Y930896D01*
X1065580Y930566D01*
X1065071Y930224D01*
X1064570Y929869D01*
X1064078Y929502D01*
X1063595Y929124D01*
X1063121Y928734D01*
X1062657Y928332D01*
X1062202Y927920D01*
X1061758Y927496D01*
X1061324Y927062D01*
X1060900Y926618D01*
X1060488Y926163D01*
X1060086Y925699D01*
X1059696Y925225D01*
X1059318Y924742D01*
X1058951Y924250D01*
X1058596Y923749D01*
X1058254Y923240D01*
X1057924Y922722D01*
X1057606Y922197D01*
X1057301Y921664D01*
X1057009Y921124D01*
X1056731Y920577D01*
X1056465Y920024D01*
X1056213Y919464D01*
X1055975Y918898D01*
X1055751Y918327D01*
X1055540Y917750D01*
X1055343Y917169D01*
X1055161Y916583D01*
X1054992Y915993D01*
X1054838Y915399D01*
X1054698Y914801D01*
X1054573Y914200D01*
X1054463Y913596D01*
X1054367Y912990D01*
X1054285Y912382D01*
X1054219Y911771D01*
X1054167Y911160D01*
X1054130Y910547D01*
X1054107Y909934D01*
X1054100Y909320D01*
X1054100Y876300D01*
X342900Y876300D01*
X342900Y909320D01*
X342893Y909934D01*
X342870Y910547D01*
X342833Y911160D01*
X342781Y911771D01*
X342715Y912382D01*
X342633Y912990D01*
X342537Y913596D01*
X342427Y914200D01*
X342302Y914801D01*
X342162Y915399D01*
X342008Y915993D01*
X341839Y916583D01*
X341657Y917169D01*
X341460Y917750D01*
X341249Y918327D01*
X341025Y918898D01*
X340787Y919464D01*
X340535Y920024D01*
X340269Y920577D01*
X339991Y921124D01*
X339699Y921664D01*
X339394Y922197D01*
X339076Y922722D01*
X338746Y923240D01*
X338404Y923749D01*
X338049Y924250D01*
X337682Y924742D01*
X337304Y925225D01*
X336914Y925699D01*
X336512Y926163D01*
X336100Y926618D01*
X335676Y927062D01*
X335242Y927496D01*
X334798Y927920D01*
X334343Y928332D01*
X333879Y928734D01*
X333405Y929124D01*
X332922Y929502D01*
X332430Y929869D01*
X331929Y930224D01*
X331420Y930566D01*
X330902Y930896D01*
X330377Y931214D01*
X329844Y931519D01*
X329304Y931811D01*
X328757Y932089D01*
X328204Y932355D01*
X327644Y932607D01*
X327078Y932845D01*
X326507Y933069D01*
X325930Y933280D01*
X325349Y933477D01*
X324763Y933659D01*
X324173Y933828D01*
X323579Y933982D01*
X322981Y934122D01*
X322380Y934247D01*
X321776Y934357D01*
X321170Y934453D01*
X320562Y934535D01*
X319951Y934601D01*
X319340Y934653D01*
X318727Y934690D01*
X318114Y934713D01*
X317500Y934720D01*
X316886Y934713D01*
X316273Y934690D01*
X315660Y934653D01*
X315049Y934601D01*
X314438Y934535D01*
X313830Y934453D01*
X313224Y934357D01*
X312620Y934247D01*
X312019Y934122D01*
X311421Y933982D01*
X310827Y933828D01*
X310237Y933659D01*
X309651Y933477D01*
X309070Y933280D01*
X308493Y933069D01*
X307922Y932845D01*
X307356Y932607D01*
X306796Y932355D01*
X306243Y932089D01*
X305696Y931811D01*
X305156Y931519D01*
X304623Y931214D01*
X304098Y930896D01*
X303580Y930566D01*
X303071Y930224D01*
X302570Y929869D01*
X302078Y929502D01*
X301595Y929124D01*
X301121Y928734D01*
X300657Y928332D01*
X300202Y927920D01*
X299758Y927496D01*
X299324Y927062D01*
X298900Y926618D01*
X298488Y926163D01*
X298086Y925699D01*
X297696Y925225D01*
X297318Y924742D01*
X296951Y924250D01*
X296596Y923749D01*
X296254Y923240D01*
X295924Y922722D01*
X295606Y922197D01*
X295301Y921664D01*
X295009Y921124D01*
X294731Y920577D01*
X294465Y920024D01*
X294213Y919464D01*
X293975Y918898D01*
X293751Y918327D01*
X293540Y917750D01*
X293343Y917169D01*
X293161Y916583D01*
X292992Y915993D01*
X292838Y915399D01*
X292698Y914801D01*
X292573Y914200D01*
X292463Y913596D01*
X292367Y912990D01*
X292285Y912382D01*
X292219Y911771D01*
X292167Y911160D01*
X292130Y910547D01*
X292107Y909934D01*
X292100Y909320D01*
X292100Y335280D01*
X292107Y334666D01*
X292130Y334053D01*
X292167Y333440D01*
X292219Y332829D01*
X292285Y332218D01*
X292367Y331610D01*
X292463Y331004D01*
X292573Y330400D01*
X292698Y329799D01*
X292838Y329201D01*
X292992Y328607D01*
X293161Y328017D01*
X293343Y327431D01*
X293540Y326850D01*
X293751Y326273D01*
X293975Y325702D01*
X294213Y325136D01*
X294465Y324576D01*
X294731Y324023D01*
X295009Y323476D01*
X295301Y322936D01*
X295606Y322403D01*
X295924Y321878D01*
X296254Y321360D01*
X296596Y320851D01*
X296951Y320350D01*
X297318Y319858D01*
X297696Y319375D01*
X298086Y318901D01*
X298488Y318437D01*
X298900Y317982D01*
X299324Y317538D01*
X299758Y317104D01*
X300202Y316680D01*
X300657Y316268D01*
X301121Y315866D01*
X301595Y315476D01*
X302078Y315098D01*
X302570Y314731D01*
X303071Y314376D01*
X303580Y314034D01*
X304098Y313704D01*
X304623Y313386D01*
X305156Y313081D01*
X305696Y312789D01*
X306243Y312511D01*
X306796Y312245D01*
X307356Y311993D01*
X307922Y311755D01*
X308493Y311531D01*
X309070Y311320D01*
X309651Y311123D01*
X310237Y310941D01*
X310827Y310772D01*
X311421Y310618D01*
X312019Y310478D01*
X312620Y310353D01*
X313224Y310243D01*
X313830Y310147D01*
X314438Y310065D01*
X315049Y309999D01*
X315660Y309947D01*
X316273Y309910D01*
X316886Y309887D01*
X317500Y309880D01*
X318114Y309887D01*
X318727Y309910D01*
X319340Y309947D01*
X319951Y309999D01*
X320562Y310065D01*
X321170Y310147D01*
X321776Y310243D01*
X322380Y310353D01*
X322981Y310478D01*
X323579Y310618D01*
X324173Y310772D01*
X324763Y310941D01*
X325349Y311123D01*
X325930Y311320D01*
X326507Y311531D01*
X327078Y311755D01*
X327644Y311993D01*
X328204Y312245D01*
X328757Y312511D01*
X329304Y312789D01*
X329844Y313081D01*
X330377Y313386D01*
X330902Y313704D01*
X331420Y314034D01*
X331929Y314376D01*
X332430Y314731D01*
X332922Y315098D01*
X333405Y315476D01*
X333879Y315866D01*
X334343Y316268D01*
X334798Y316680D01*
X335242Y317104D01*
X335676Y317538D01*
X336100Y317982D01*
X336512Y318437D01*
X336914Y318901D01*
X337304Y319375D01*
X337682Y319858D01*
X338049Y320350D01*
X338404Y320851D01*
X338746Y321360D01*
X339076Y321878D01*
X339394Y322403D01*
X339699Y322936D01*
X339991Y323476D01*
X340269Y324023D01*
X340535Y324576D01*
X340787Y325136D01*
X341025Y325702D01*
X341249Y326273D01*
X341460Y326850D01*
X341657Y327431D01*
X341839Y328017D01*
X342008Y328607D01*
X342162Y329201D01*
X342302Y329799D01*
X342427Y330400D01*
X342537Y331004D01*
X342633Y331610D01*
X342715Y332218D01*
X342781Y332829D01*
X342833Y333440D01*
X342870Y334053D01*
X342893Y334666D01*
X342900Y335280D01*
X342900Y368300D01*
X1054100Y368300D01*
X1054100Y335280D01*
X1054107Y334666D01*
X1054130Y334053D01*
X1054167Y333440D01*
X1054219Y332829D01*
X1054285Y332218D01*
X1054367Y331610D01*
X1054463Y331004D01*
X1054573Y330400D01*
X1054698Y329799D01*
X1054838Y329201D01*
X1054992Y328607D01*
X1055161Y328017D01*
X1055343Y327431D01*
X1055540Y326850D01*
X1055751Y326273D01*
X1055975Y325702D01*
X1056213Y325136D01*
X1056465Y324576D01*
X1056731Y324023D01*
X1057009Y323476D01*
X1057301Y322936D01*
X1057606Y322403D01*
X1057924Y321878D01*
X1058254Y321360D01*
X1058596Y320851D01*
X1058951Y320350D01*
X1059318Y319858D01*
X1059696Y319375D01*
X1060086Y318901D01*
X1060488Y318437D01*
X1060900Y317982D01*
X1061324Y317538D01*
X1061758Y317104D01*
X1062202Y316680D01*
X1062657Y316268D01*
X1063121Y315866D01*
X1063595Y315476D01*
X1064078Y315098D01*
X1064570Y314731D01*
X1065071Y314376D01*
X1065580Y314034D01*
X1066098Y313704D01*
X1066623Y313386D01*
X1067156Y313081D01*
X1067696Y312789D01*
X1068243Y312511D01*
X1068796Y312245D01*
X1069356Y311993D01*
X1069922Y311755D01*
X1070493Y311531D01*
X1071070Y311320D01*
X1071651Y311123D01*
X1072237Y310941D01*
X1072827Y310772D01*
X1073421Y310618D01*
X1074019Y310478D01*
X1074620Y310353D01*
X1075224Y310243D01*
X1075830Y310147D01*
X1076438Y310065D01*
X1077049Y309999D01*
X1077660Y309947D01*
X1078273Y309910D01*
X1078886Y309887D01*
X1079500Y309880D01*
D12*
X364434Y305562D02*
X356362Y305562D01*
X364434Y305562D02*
X364545Y305564D01*
X364655Y305570D01*
X364766Y305580D01*
X364876Y305594D01*
X364985Y305611D01*
X365094Y305633D01*
X365202Y305658D01*
X365308Y305688D01*
X365414Y305721D01*
X365519Y305758D01*
X365622Y305798D01*
X365723Y305843D01*
X365823Y305890D01*
X365922Y305942D01*
X366018Y305997D01*
X366112Y306055D01*
X366204Y306116D01*
X366294Y306181D01*
X366382Y306249D01*
X366467Y306320D01*
X366549Y306394D01*
X366629Y306471D01*
X366706Y306551D01*
X366780Y306633D01*
X366851Y306718D01*
X366919Y306806D01*
X366984Y306896D01*
X367045Y306988D01*
X367103Y307082D01*
X367158Y307178D01*
X367210Y307277D01*
X367257Y307377D01*
X367302Y307478D01*
X367342Y307581D01*
X367379Y307686D01*
X367412Y307792D01*
X367442Y307898D01*
X367467Y308006D01*
X367489Y308115D01*
X367506Y308224D01*
X367520Y308334D01*
X367530Y308445D01*
X367536Y308555D01*
X367538Y308666D01*
X367536Y308777D01*
X367530Y308887D01*
X367520Y308998D01*
X367506Y309108D01*
X367489Y309217D01*
X367467Y309326D01*
X367442Y309434D01*
X367412Y309540D01*
X367379Y309646D01*
X367342Y309751D01*
X367302Y309854D01*
X367257Y309955D01*
X367210Y310055D01*
X367158Y310154D01*
X367103Y310250D01*
X367045Y310344D01*
X366984Y310436D01*
X366919Y310526D01*
X366851Y310614D01*
X366780Y310699D01*
X366706Y310781D01*
X366629Y310861D01*
X366549Y310938D01*
X366467Y311012D01*
X366382Y311083D01*
X366294Y311151D01*
X366204Y311216D01*
X366112Y311277D01*
X366018Y311335D01*
X365922Y311390D01*
X365823Y311442D01*
X365723Y311489D01*
X365622Y311534D01*
X365519Y311574D01*
X365414Y311611D01*
X365308Y311644D01*
X365202Y311674D01*
X365094Y311699D01*
X364985Y311721D01*
X364876Y311738D01*
X364766Y311752D01*
X364655Y311762D01*
X364545Y311768D01*
X364434Y311770D01*
X364434Y311771D02*
X356362Y311771D01*
X356362Y319715D02*
X367538Y319715D01*
X361950Y319715D02*
X361019Y318163D01*
X360973Y318091D01*
X360925Y318022D01*
X360873Y317954D01*
X360819Y317890D01*
X360761Y317827D01*
X360701Y317768D01*
X360638Y317711D01*
X360573Y317657D01*
X360505Y317607D01*
X360435Y317559D01*
X360363Y317515D01*
X360288Y317474D01*
X360213Y317436D01*
X360135Y317402D01*
X360056Y317372D01*
X359976Y317345D01*
X359894Y317322D01*
X359812Y317302D01*
X359728Y317286D01*
X359645Y317275D01*
X359560Y317267D01*
X359476Y317263D01*
X359391Y317262D01*
X359306Y317266D01*
X359222Y317273D01*
X359138Y317285D01*
X359055Y317300D01*
X358972Y317319D01*
X358890Y317342D01*
X358810Y317368D01*
X358731Y317398D01*
X358653Y317432D01*
X358577Y317469D01*
X358502Y317509D01*
X358430Y317553D01*
X358360Y317601D01*
X358292Y317651D01*
X358226Y317704D01*
X358163Y317761D01*
X358102Y317820D01*
X358044Y317882D01*
X357989Y317946D01*
X357937Y318013D01*
X357888Y318082D01*
X357843Y318154D01*
X357800Y318227D01*
X357761Y318302D01*
X357726Y318379D01*
X357694Y318458D01*
X357666Y318538D01*
X357641Y318619D01*
X357620Y318701D01*
X357603Y318784D01*
X357604Y318784D02*
X357581Y318919D01*
X357563Y319054D01*
X357547Y319189D01*
X357536Y319325D01*
X357528Y319461D01*
X357525Y319598D01*
X357524Y319734D01*
X357528Y319871D01*
X357536Y320007D01*
X357547Y320143D01*
X357562Y320278D01*
X357581Y320413D01*
X357603Y320548D01*
X357630Y320682D01*
X357660Y320815D01*
X357693Y320947D01*
X357731Y321078D01*
X357771Y321209D01*
X357816Y321337D01*
X357864Y321465D01*
X357916Y321591D01*
X357971Y321716D01*
X358029Y321839D01*
X358091Y321961D01*
X358156Y322081D01*
X358225Y322199D01*
X361950Y319715D02*
X362881Y321268D01*
X362881Y321267D02*
X362927Y321339D01*
X362975Y321409D01*
X363027Y321476D01*
X363081Y321540D01*
X363139Y321603D01*
X363199Y321662D01*
X363262Y321719D01*
X363327Y321773D01*
X363395Y321823D01*
X363465Y321871D01*
X363537Y321915D01*
X363612Y321956D01*
X363687Y321994D01*
X363765Y322028D01*
X363844Y322058D01*
X363924Y322085D01*
X364006Y322108D01*
X364088Y322128D01*
X364172Y322144D01*
X364255Y322155D01*
X364340Y322163D01*
X364424Y322167D01*
X364509Y322168D01*
X364594Y322164D01*
X364678Y322157D01*
X364762Y322145D01*
X364845Y322130D01*
X364928Y322111D01*
X365010Y322088D01*
X365090Y322062D01*
X365169Y322032D01*
X365247Y321998D01*
X365323Y321961D01*
X365398Y321921D01*
X365470Y321877D01*
X365540Y321829D01*
X365608Y321779D01*
X365674Y321726D01*
X365737Y321669D01*
X365798Y321610D01*
X365856Y321548D01*
X365911Y321484D01*
X365963Y321417D01*
X366012Y321348D01*
X366057Y321276D01*
X366100Y321203D01*
X366138Y321128D01*
X366174Y321051D01*
X366206Y320972D01*
X366234Y320893D01*
X366259Y320811D01*
X366280Y320729D01*
X366297Y320646D01*
X366297Y320647D02*
X366320Y320513D01*
X366338Y320377D01*
X366354Y320242D01*
X366365Y320106D01*
X366373Y319970D01*
X366376Y319833D01*
X366377Y319697D01*
X366373Y319561D01*
X366365Y319424D01*
X366354Y319288D01*
X366339Y319153D01*
X366320Y319018D01*
X366298Y318883D01*
X366271Y318749D01*
X366241Y318616D01*
X366208Y318484D01*
X366170Y318353D01*
X366130Y318222D01*
X366085Y318093D01*
X366037Y317966D01*
X365985Y317839D01*
X365930Y317715D01*
X365872Y317591D01*
X365810Y317470D01*
X365745Y317350D01*
X365676Y317232D01*
X358846Y327279D02*
X356362Y330383D01*
X367538Y330383D01*
X367538Y327279D02*
X367538Y333488D01*
D13*
X737400Y189700D02*
X737400Y139700D01*
X737400Y229700D02*
X737400Y264700D01*
X837400Y264700D01*
X837400Y229700D01*
X837400Y189700D02*
X837400Y139700D01*
X827400Y139700D01*
X747400Y139700D02*
X737400Y139700D01*
X757400Y209700D02*
X757409Y210436D01*
X757436Y211172D01*
X757481Y211907D01*
X757544Y212641D01*
X757626Y213372D01*
X757725Y214102D01*
X757842Y214829D01*
X757976Y215553D01*
X758129Y216273D01*
X758299Y216989D01*
X758487Y217701D01*
X758692Y218409D01*
X758914Y219110D01*
X759154Y219807D01*
X759410Y220497D01*
X759684Y221181D01*
X759974Y221857D01*
X760280Y222527D01*
X760603Y223188D01*
X760942Y223842D01*
X761297Y224487D01*
X761668Y225123D01*
X762054Y225750D01*
X762456Y226367D01*
X762872Y226974D01*
X763304Y227571D01*
X763750Y228157D01*
X764210Y228732D01*
X764684Y229295D01*
X765171Y229847D01*
X765673Y230386D01*
X766187Y230913D01*
X766714Y231427D01*
X767253Y231929D01*
X767805Y232416D01*
X768368Y232890D01*
X768943Y233350D01*
X769529Y233796D01*
X770126Y234228D01*
X770733Y234644D01*
X771350Y235046D01*
X771977Y235432D01*
X772613Y235803D01*
X773258Y236158D01*
X773912Y236497D01*
X774573Y236820D01*
X775243Y237126D01*
X775919Y237416D01*
X776603Y237690D01*
X777293Y237946D01*
X777990Y238186D01*
X778691Y238408D01*
X779399Y238613D01*
X780111Y238801D01*
X780827Y238971D01*
X781547Y239124D01*
X782271Y239258D01*
X782998Y239375D01*
X783728Y239474D01*
X784459Y239556D01*
X785193Y239619D01*
X785928Y239664D01*
X786664Y239691D01*
X787400Y239700D01*
X788136Y239691D01*
X788872Y239664D01*
X789607Y239619D01*
X790341Y239556D01*
X791072Y239474D01*
X791802Y239375D01*
X792529Y239258D01*
X793253Y239124D01*
X793973Y238971D01*
X794689Y238801D01*
X795401Y238613D01*
X796109Y238408D01*
X796810Y238186D01*
X797507Y237946D01*
X798197Y237690D01*
X798881Y237416D01*
X799557Y237126D01*
X800227Y236820D01*
X800888Y236497D01*
X801542Y236158D01*
X802187Y235803D01*
X802823Y235432D01*
X803450Y235046D01*
X804067Y234644D01*
X804674Y234228D01*
X805271Y233796D01*
X805857Y233350D01*
X806432Y232890D01*
X806995Y232416D01*
X807547Y231929D01*
X808086Y231427D01*
X808613Y230913D01*
X809127Y230386D01*
X809629Y229847D01*
X810116Y229295D01*
X810590Y228732D01*
X811050Y228157D01*
X811496Y227571D01*
X811928Y226974D01*
X812344Y226367D01*
X812746Y225750D01*
X813132Y225123D01*
X813503Y224487D01*
X813858Y223842D01*
X814197Y223188D01*
X814520Y222527D01*
X814826Y221857D01*
X815116Y221181D01*
X815390Y220497D01*
X815646Y219807D01*
X815886Y219110D01*
X816108Y218409D01*
X816313Y217701D01*
X816501Y216989D01*
X816671Y216273D01*
X816824Y215553D01*
X816958Y214829D01*
X817075Y214102D01*
X817174Y213372D01*
X817256Y212641D01*
X817319Y211907D01*
X817364Y211172D01*
X817391Y210436D01*
X817400Y209700D01*
X817391Y208964D01*
X817364Y208228D01*
X817319Y207493D01*
X817256Y206759D01*
X817174Y206028D01*
X817075Y205298D01*
X816958Y204571D01*
X816824Y203847D01*
X816671Y203127D01*
X816501Y202411D01*
X816313Y201699D01*
X816108Y200991D01*
X815886Y200290D01*
X815646Y199593D01*
X815390Y198903D01*
X815116Y198219D01*
X814826Y197543D01*
X814520Y196873D01*
X814197Y196212D01*
X813858Y195558D01*
X813503Y194913D01*
X813132Y194277D01*
X812746Y193650D01*
X812344Y193033D01*
X811928Y192426D01*
X811496Y191829D01*
X811050Y191243D01*
X810590Y190668D01*
X810116Y190105D01*
X809629Y189553D01*
X809127Y189014D01*
X808613Y188487D01*
X808086Y187973D01*
X807547Y187471D01*
X806995Y186984D01*
X806432Y186510D01*
X805857Y186050D01*
X805271Y185604D01*
X804674Y185172D01*
X804067Y184756D01*
X803450Y184354D01*
X802823Y183968D01*
X802187Y183597D01*
X801542Y183242D01*
X800888Y182903D01*
X800227Y182580D01*
X799557Y182274D01*
X798881Y181984D01*
X798197Y181710D01*
X797507Y181454D01*
X796810Y181214D01*
X796109Y180992D01*
X795401Y180787D01*
X794689Y180599D01*
X793973Y180429D01*
X793253Y180276D01*
X792529Y180142D01*
X791802Y180025D01*
X791072Y179926D01*
X790341Y179844D01*
X789607Y179781D01*
X788872Y179736D01*
X788136Y179709D01*
X787400Y179700D01*
X786664Y179709D01*
X785928Y179736D01*
X785193Y179781D01*
X784459Y179844D01*
X783728Y179926D01*
X782998Y180025D01*
X782271Y180142D01*
X781547Y180276D01*
X780827Y180429D01*
X780111Y180599D01*
X779399Y180787D01*
X778691Y180992D01*
X777990Y181214D01*
X777293Y181454D01*
X776603Y181710D01*
X775919Y181984D01*
X775243Y182274D01*
X774573Y182580D01*
X773912Y182903D01*
X773258Y183242D01*
X772613Y183597D01*
X771977Y183968D01*
X771350Y184354D01*
X770733Y184756D01*
X770126Y185172D01*
X769529Y185604D01*
X768943Y186050D01*
X768368Y186510D01*
X767805Y186984D01*
X767253Y187471D01*
X766714Y187973D01*
X766187Y188487D01*
X765673Y189014D01*
X765171Y189553D01*
X764684Y190105D01*
X764210Y190668D01*
X763750Y191243D01*
X763304Y191829D01*
X762872Y192426D01*
X762456Y193033D01*
X762054Y193650D01*
X761668Y194277D01*
X761297Y194913D01*
X760942Y195558D01*
X760603Y196212D01*
X760280Y196873D01*
X759974Y197543D01*
X759684Y198219D01*
X759410Y198903D01*
X759154Y199593D01*
X758914Y200290D01*
X758692Y200991D01*
X758487Y201699D01*
X758299Y202411D01*
X758129Y203127D01*
X757976Y203847D01*
X757842Y204571D01*
X757725Y205298D01*
X757626Y206028D01*
X757544Y206759D01*
X757481Y207493D01*
X757436Y208228D01*
X757409Y208964D01*
X757400Y209700D01*
D14*
X736981Y267081D02*
X736981Y274447D01*
X739027Y274447D01*
X739116Y274445D01*
X739205Y274439D01*
X739294Y274429D01*
X739382Y274416D01*
X739470Y274399D01*
X739557Y274377D01*
X739642Y274352D01*
X739727Y274324D01*
X739810Y274291D01*
X739892Y274255D01*
X739972Y274216D01*
X740050Y274173D01*
X740126Y274127D01*
X740201Y274077D01*
X740273Y274024D01*
X740342Y273968D01*
X740409Y273909D01*
X740474Y273848D01*
X740535Y273783D01*
X740594Y273716D01*
X740650Y273647D01*
X740703Y273575D01*
X740753Y273500D01*
X740799Y273424D01*
X740842Y273346D01*
X740881Y273266D01*
X740917Y273184D01*
X740950Y273101D01*
X740978Y273016D01*
X741003Y272931D01*
X741025Y272844D01*
X741042Y272756D01*
X741055Y272668D01*
X741065Y272579D01*
X741071Y272490D01*
X741073Y272401D01*
X741071Y272312D01*
X741065Y272223D01*
X741055Y272134D01*
X741042Y272046D01*
X741025Y271958D01*
X741003Y271871D01*
X740978Y271786D01*
X740950Y271701D01*
X740917Y271618D01*
X740881Y271536D01*
X740842Y271456D01*
X740799Y271378D01*
X740753Y271302D01*
X740703Y271227D01*
X740650Y271155D01*
X740594Y271086D01*
X740535Y271019D01*
X740474Y270954D01*
X740409Y270893D01*
X740342Y270834D01*
X740273Y270778D01*
X740201Y270725D01*
X740126Y270675D01*
X740050Y270629D01*
X739972Y270586D01*
X739892Y270547D01*
X739810Y270511D01*
X739727Y270478D01*
X739642Y270450D01*
X739557Y270425D01*
X739470Y270403D01*
X739382Y270386D01*
X739294Y270373D01*
X739205Y270363D01*
X739116Y270357D01*
X739027Y270355D01*
X736981Y270355D01*
X739436Y270355D02*
X741073Y267081D01*
X744245Y272810D02*
X746291Y274447D01*
X746291Y267081D01*
X744245Y267081D02*
X748337Y267081D01*
D13*
X508800Y189700D02*
X508800Y139700D01*
X508800Y229700D02*
X508800Y264700D01*
X608800Y264700D01*
X608800Y229700D01*
X608800Y189700D02*
X608800Y139700D01*
X598800Y139700D01*
X518800Y139700D02*
X508800Y139700D01*
X528800Y209700D02*
X528809Y210436D01*
X528836Y211172D01*
X528881Y211907D01*
X528944Y212641D01*
X529026Y213372D01*
X529125Y214102D01*
X529242Y214829D01*
X529376Y215553D01*
X529529Y216273D01*
X529699Y216989D01*
X529887Y217701D01*
X530092Y218409D01*
X530314Y219110D01*
X530554Y219807D01*
X530810Y220497D01*
X531084Y221181D01*
X531374Y221857D01*
X531680Y222527D01*
X532003Y223188D01*
X532342Y223842D01*
X532697Y224487D01*
X533068Y225123D01*
X533454Y225750D01*
X533856Y226367D01*
X534272Y226974D01*
X534704Y227571D01*
X535150Y228157D01*
X535610Y228732D01*
X536084Y229295D01*
X536571Y229847D01*
X537073Y230386D01*
X537587Y230913D01*
X538114Y231427D01*
X538653Y231929D01*
X539205Y232416D01*
X539768Y232890D01*
X540343Y233350D01*
X540929Y233796D01*
X541526Y234228D01*
X542133Y234644D01*
X542750Y235046D01*
X543377Y235432D01*
X544013Y235803D01*
X544658Y236158D01*
X545312Y236497D01*
X545973Y236820D01*
X546643Y237126D01*
X547319Y237416D01*
X548003Y237690D01*
X548693Y237946D01*
X549390Y238186D01*
X550091Y238408D01*
X550799Y238613D01*
X551511Y238801D01*
X552227Y238971D01*
X552947Y239124D01*
X553671Y239258D01*
X554398Y239375D01*
X555128Y239474D01*
X555859Y239556D01*
X556593Y239619D01*
X557328Y239664D01*
X558064Y239691D01*
X558800Y239700D01*
X559536Y239691D01*
X560272Y239664D01*
X561007Y239619D01*
X561741Y239556D01*
X562472Y239474D01*
X563202Y239375D01*
X563929Y239258D01*
X564653Y239124D01*
X565373Y238971D01*
X566089Y238801D01*
X566801Y238613D01*
X567509Y238408D01*
X568210Y238186D01*
X568907Y237946D01*
X569597Y237690D01*
X570281Y237416D01*
X570957Y237126D01*
X571627Y236820D01*
X572288Y236497D01*
X572942Y236158D01*
X573587Y235803D01*
X574223Y235432D01*
X574850Y235046D01*
X575467Y234644D01*
X576074Y234228D01*
X576671Y233796D01*
X577257Y233350D01*
X577832Y232890D01*
X578395Y232416D01*
X578947Y231929D01*
X579486Y231427D01*
X580013Y230913D01*
X580527Y230386D01*
X581029Y229847D01*
X581516Y229295D01*
X581990Y228732D01*
X582450Y228157D01*
X582896Y227571D01*
X583328Y226974D01*
X583744Y226367D01*
X584146Y225750D01*
X584532Y225123D01*
X584903Y224487D01*
X585258Y223842D01*
X585597Y223188D01*
X585920Y222527D01*
X586226Y221857D01*
X586516Y221181D01*
X586790Y220497D01*
X587046Y219807D01*
X587286Y219110D01*
X587508Y218409D01*
X587713Y217701D01*
X587901Y216989D01*
X588071Y216273D01*
X588224Y215553D01*
X588358Y214829D01*
X588475Y214102D01*
X588574Y213372D01*
X588656Y212641D01*
X588719Y211907D01*
X588764Y211172D01*
X588791Y210436D01*
X588800Y209700D01*
X588791Y208964D01*
X588764Y208228D01*
X588719Y207493D01*
X588656Y206759D01*
X588574Y206028D01*
X588475Y205298D01*
X588358Y204571D01*
X588224Y203847D01*
X588071Y203127D01*
X587901Y202411D01*
X587713Y201699D01*
X587508Y200991D01*
X587286Y200290D01*
X587046Y199593D01*
X586790Y198903D01*
X586516Y198219D01*
X586226Y197543D01*
X585920Y196873D01*
X585597Y196212D01*
X585258Y195558D01*
X584903Y194913D01*
X584532Y194277D01*
X584146Y193650D01*
X583744Y193033D01*
X583328Y192426D01*
X582896Y191829D01*
X582450Y191243D01*
X581990Y190668D01*
X581516Y190105D01*
X581029Y189553D01*
X580527Y189014D01*
X580013Y188487D01*
X579486Y187973D01*
X578947Y187471D01*
X578395Y186984D01*
X577832Y186510D01*
X577257Y186050D01*
X576671Y185604D01*
X576074Y185172D01*
X575467Y184756D01*
X574850Y184354D01*
X574223Y183968D01*
X573587Y183597D01*
X572942Y183242D01*
X572288Y182903D01*
X571627Y182580D01*
X570957Y182274D01*
X570281Y181984D01*
X569597Y181710D01*
X568907Y181454D01*
X568210Y181214D01*
X567509Y180992D01*
X566801Y180787D01*
X566089Y180599D01*
X565373Y180429D01*
X564653Y180276D01*
X563929Y180142D01*
X563202Y180025D01*
X562472Y179926D01*
X561741Y179844D01*
X561007Y179781D01*
X560272Y179736D01*
X559536Y179709D01*
X558800Y179700D01*
X558064Y179709D01*
X557328Y179736D01*
X556593Y179781D01*
X555859Y179844D01*
X555128Y179926D01*
X554398Y180025D01*
X553671Y180142D01*
X552947Y180276D01*
X552227Y180429D01*
X551511Y180599D01*
X550799Y180787D01*
X550091Y180992D01*
X549390Y181214D01*
X548693Y181454D01*
X548003Y181710D01*
X547319Y181984D01*
X546643Y182274D01*
X545973Y182580D01*
X545312Y182903D01*
X544658Y183242D01*
X544013Y183597D01*
X543377Y183968D01*
X542750Y184354D01*
X542133Y184756D01*
X541526Y185172D01*
X540929Y185604D01*
X540343Y186050D01*
X539768Y186510D01*
X539205Y186984D01*
X538653Y187471D01*
X538114Y187973D01*
X537587Y188487D01*
X537073Y189014D01*
X536571Y189553D01*
X536084Y190105D01*
X535610Y190668D01*
X535150Y191243D01*
X534704Y191829D01*
X534272Y192426D01*
X533856Y193033D01*
X533454Y193650D01*
X533068Y194277D01*
X532697Y194913D01*
X532342Y195558D01*
X532003Y196212D01*
X531680Y196873D01*
X531374Y197543D01*
X531084Y198219D01*
X530810Y198903D01*
X530554Y199593D01*
X530314Y200290D01*
X530092Y200991D01*
X529887Y201699D01*
X529699Y202411D01*
X529529Y203127D01*
X529376Y203847D01*
X529242Y204571D01*
X529125Y205298D01*
X529026Y206028D01*
X528944Y206759D01*
X528881Y207493D01*
X528836Y208228D01*
X528809Y208964D01*
X528800Y209700D01*
D14*
X508381Y267081D02*
X508381Y274447D01*
X510427Y274447D01*
X510516Y274445D01*
X510605Y274439D01*
X510694Y274429D01*
X510782Y274416D01*
X510870Y274399D01*
X510957Y274377D01*
X511042Y274352D01*
X511127Y274324D01*
X511210Y274291D01*
X511292Y274255D01*
X511372Y274216D01*
X511450Y274173D01*
X511526Y274127D01*
X511601Y274077D01*
X511673Y274024D01*
X511742Y273968D01*
X511809Y273909D01*
X511874Y273848D01*
X511935Y273783D01*
X511994Y273716D01*
X512050Y273647D01*
X512103Y273575D01*
X512153Y273500D01*
X512199Y273424D01*
X512242Y273346D01*
X512281Y273266D01*
X512317Y273184D01*
X512350Y273101D01*
X512378Y273016D01*
X512403Y272931D01*
X512425Y272844D01*
X512442Y272756D01*
X512455Y272668D01*
X512465Y272579D01*
X512471Y272490D01*
X512473Y272401D01*
X512471Y272312D01*
X512465Y272223D01*
X512455Y272134D01*
X512442Y272046D01*
X512425Y271958D01*
X512403Y271871D01*
X512378Y271786D01*
X512350Y271701D01*
X512317Y271618D01*
X512281Y271536D01*
X512242Y271456D01*
X512199Y271378D01*
X512153Y271302D01*
X512103Y271227D01*
X512050Y271155D01*
X511994Y271086D01*
X511935Y271019D01*
X511874Y270954D01*
X511809Y270893D01*
X511742Y270834D01*
X511673Y270778D01*
X511601Y270725D01*
X511526Y270675D01*
X511450Y270629D01*
X511372Y270586D01*
X511292Y270547D01*
X511210Y270511D01*
X511127Y270478D01*
X511042Y270450D01*
X510957Y270425D01*
X510870Y270403D01*
X510782Y270386D01*
X510694Y270373D01*
X510605Y270363D01*
X510516Y270357D01*
X510427Y270355D01*
X508381Y270355D01*
X510836Y270355D02*
X512473Y267081D01*
X519738Y272606D02*
X519736Y272691D01*
X519730Y272776D01*
X519720Y272860D01*
X519707Y272944D01*
X519689Y273028D01*
X519668Y273110D01*
X519643Y273191D01*
X519614Y273271D01*
X519581Y273350D01*
X519545Y273427D01*
X519505Y273502D01*
X519462Y273576D01*
X519416Y273647D01*
X519366Y273716D01*
X519313Y273783D01*
X519257Y273847D01*
X519198Y273908D01*
X519137Y273967D01*
X519073Y274023D01*
X519006Y274076D01*
X518937Y274126D01*
X518866Y274172D01*
X518792Y274215D01*
X518717Y274255D01*
X518640Y274291D01*
X518561Y274324D01*
X518481Y274353D01*
X518400Y274378D01*
X518318Y274399D01*
X518234Y274417D01*
X518150Y274430D01*
X518066Y274440D01*
X517981Y274446D01*
X517896Y274448D01*
X517896Y274447D02*
X517800Y274445D01*
X517704Y274439D01*
X517609Y274429D01*
X517514Y274416D01*
X517419Y274398D01*
X517326Y274377D01*
X517233Y274352D01*
X517142Y274323D01*
X517051Y274291D01*
X516962Y274255D01*
X516875Y274215D01*
X516789Y274172D01*
X516705Y274126D01*
X516623Y274076D01*
X516543Y274022D01*
X516466Y273966D01*
X516391Y273906D01*
X516318Y273844D01*
X516248Y273778D01*
X516180Y273710D01*
X516115Y273639D01*
X516054Y273566D01*
X515995Y273490D01*
X515939Y273411D01*
X515887Y273331D01*
X515838Y273248D01*
X515792Y273164D01*
X515750Y273078D01*
X515712Y272990D01*
X515677Y272901D01*
X515645Y272810D01*
X519123Y271174D02*
X519183Y271233D01*
X519240Y271295D01*
X519295Y271359D01*
X519346Y271426D01*
X519395Y271495D01*
X519441Y271565D01*
X519484Y271638D01*
X519524Y271712D01*
X519560Y271788D01*
X519593Y271866D01*
X519623Y271945D01*
X519650Y272025D01*
X519673Y272106D01*
X519692Y272188D01*
X519708Y272270D01*
X519721Y272354D01*
X519730Y272438D01*
X519735Y272522D01*
X519737Y272606D01*
X519123Y271173D02*
X515645Y267081D01*
X519737Y267081D01*
D13*
X1181100Y693420D02*
X1181100Y703580D01*
D14*
X1168781Y711581D02*
X1168781Y718947D01*
X1170827Y718947D01*
X1170916Y718945D01*
X1171005Y718939D01*
X1171094Y718929D01*
X1171182Y718916D01*
X1171270Y718899D01*
X1171357Y718877D01*
X1171442Y718852D01*
X1171527Y718824D01*
X1171610Y718791D01*
X1171692Y718755D01*
X1171772Y718716D01*
X1171850Y718673D01*
X1171926Y718627D01*
X1172001Y718577D01*
X1172073Y718524D01*
X1172142Y718468D01*
X1172209Y718409D01*
X1172274Y718348D01*
X1172335Y718283D01*
X1172394Y718216D01*
X1172450Y718147D01*
X1172503Y718075D01*
X1172553Y718000D01*
X1172599Y717924D01*
X1172642Y717846D01*
X1172681Y717766D01*
X1172717Y717684D01*
X1172750Y717601D01*
X1172778Y717516D01*
X1172803Y717431D01*
X1172825Y717344D01*
X1172842Y717256D01*
X1172855Y717168D01*
X1172865Y717079D01*
X1172871Y716990D01*
X1172873Y716901D01*
X1172871Y716812D01*
X1172865Y716723D01*
X1172855Y716634D01*
X1172842Y716546D01*
X1172825Y716458D01*
X1172803Y716371D01*
X1172778Y716286D01*
X1172750Y716201D01*
X1172717Y716118D01*
X1172681Y716036D01*
X1172642Y715956D01*
X1172599Y715878D01*
X1172553Y715802D01*
X1172503Y715727D01*
X1172450Y715655D01*
X1172394Y715586D01*
X1172335Y715519D01*
X1172274Y715454D01*
X1172209Y715393D01*
X1172142Y715334D01*
X1172073Y715278D01*
X1172001Y715225D01*
X1171926Y715175D01*
X1171850Y715129D01*
X1171772Y715086D01*
X1171692Y715047D01*
X1171610Y715011D01*
X1171527Y714978D01*
X1171442Y714950D01*
X1171357Y714925D01*
X1171270Y714903D01*
X1171182Y714886D01*
X1171094Y714873D01*
X1171005Y714863D01*
X1170916Y714857D01*
X1170827Y714855D01*
X1168781Y714855D01*
X1171236Y714855D02*
X1172873Y711581D01*
X1176045Y711581D02*
X1178091Y711581D01*
X1178180Y711583D01*
X1178269Y711589D01*
X1178358Y711599D01*
X1178446Y711612D01*
X1178534Y711629D01*
X1178621Y711651D01*
X1178706Y711676D01*
X1178791Y711704D01*
X1178874Y711737D01*
X1178956Y711773D01*
X1179036Y711812D01*
X1179114Y711855D01*
X1179190Y711901D01*
X1179265Y711951D01*
X1179337Y712004D01*
X1179406Y712060D01*
X1179473Y712119D01*
X1179538Y712180D01*
X1179599Y712245D01*
X1179658Y712312D01*
X1179714Y712381D01*
X1179767Y712453D01*
X1179817Y712528D01*
X1179863Y712604D01*
X1179906Y712682D01*
X1179945Y712762D01*
X1179981Y712844D01*
X1180014Y712927D01*
X1180042Y713012D01*
X1180067Y713097D01*
X1180089Y713184D01*
X1180106Y713272D01*
X1180119Y713360D01*
X1180129Y713449D01*
X1180135Y713538D01*
X1180137Y713627D01*
X1180135Y713716D01*
X1180129Y713805D01*
X1180119Y713894D01*
X1180106Y713982D01*
X1180089Y714070D01*
X1180067Y714157D01*
X1180042Y714242D01*
X1180014Y714327D01*
X1179981Y714410D01*
X1179945Y714492D01*
X1179906Y714572D01*
X1179863Y714650D01*
X1179817Y714726D01*
X1179767Y714801D01*
X1179714Y714873D01*
X1179658Y714942D01*
X1179599Y715009D01*
X1179538Y715074D01*
X1179473Y715135D01*
X1179406Y715194D01*
X1179337Y715250D01*
X1179265Y715303D01*
X1179190Y715353D01*
X1179114Y715399D01*
X1179036Y715442D01*
X1178956Y715481D01*
X1178874Y715517D01*
X1178791Y715550D01*
X1178706Y715578D01*
X1178621Y715603D01*
X1178534Y715625D01*
X1178446Y715642D01*
X1178358Y715655D01*
X1178269Y715665D01*
X1178180Y715671D01*
X1178091Y715673D01*
X1178500Y718947D02*
X1176045Y718947D01*
X1178500Y718947D02*
X1178579Y718945D01*
X1178658Y718939D01*
X1178737Y718930D01*
X1178815Y718917D01*
X1178892Y718899D01*
X1178968Y718879D01*
X1179043Y718854D01*
X1179117Y718826D01*
X1179190Y718795D01*
X1179261Y718759D01*
X1179330Y718721D01*
X1179397Y718679D01*
X1179462Y718634D01*
X1179525Y718586D01*
X1179586Y718535D01*
X1179643Y718481D01*
X1179699Y718425D01*
X1179751Y718366D01*
X1179801Y718304D01*
X1179847Y718240D01*
X1179891Y718174D01*
X1179931Y718106D01*
X1179967Y718036D01*
X1180001Y717964D01*
X1180031Y717890D01*
X1180057Y717816D01*
X1180080Y717740D01*
X1180098Y717663D01*
X1180114Y717586D01*
X1180125Y717507D01*
X1180133Y717429D01*
X1180137Y717350D01*
X1180137Y717270D01*
X1180133Y717191D01*
X1180125Y717113D01*
X1180114Y717034D01*
X1180098Y716957D01*
X1180080Y716880D01*
X1180057Y716804D01*
X1180031Y716730D01*
X1180001Y716656D01*
X1179967Y716584D01*
X1179931Y716514D01*
X1179891Y716446D01*
X1179847Y716380D01*
X1179801Y716316D01*
X1179751Y716254D01*
X1179699Y716195D01*
X1179643Y716139D01*
X1179586Y716085D01*
X1179525Y716034D01*
X1179462Y715986D01*
X1179397Y715941D01*
X1179330Y715899D01*
X1179261Y715861D01*
X1179190Y715825D01*
X1179117Y715794D01*
X1179043Y715766D01*
X1178968Y715741D01*
X1178892Y715721D01*
X1178815Y715703D01*
X1178737Y715690D01*
X1178658Y715681D01*
X1178579Y715675D01*
X1178500Y715673D01*
X1176863Y715673D01*
D13*
X1168400Y601980D02*
X1168400Y591820D01*
D14*
X1156081Y609981D02*
X1156081Y617347D01*
X1158127Y617347D01*
X1158216Y617345D01*
X1158305Y617339D01*
X1158394Y617329D01*
X1158482Y617316D01*
X1158570Y617299D01*
X1158657Y617277D01*
X1158742Y617252D01*
X1158827Y617224D01*
X1158910Y617191D01*
X1158992Y617155D01*
X1159072Y617116D01*
X1159150Y617073D01*
X1159226Y617027D01*
X1159301Y616977D01*
X1159373Y616924D01*
X1159442Y616868D01*
X1159509Y616809D01*
X1159574Y616748D01*
X1159635Y616683D01*
X1159694Y616616D01*
X1159750Y616547D01*
X1159803Y616475D01*
X1159853Y616400D01*
X1159899Y616324D01*
X1159942Y616246D01*
X1159981Y616166D01*
X1160017Y616084D01*
X1160050Y616001D01*
X1160078Y615916D01*
X1160103Y615831D01*
X1160125Y615744D01*
X1160142Y615656D01*
X1160155Y615568D01*
X1160165Y615479D01*
X1160171Y615390D01*
X1160173Y615301D01*
X1160171Y615212D01*
X1160165Y615123D01*
X1160155Y615034D01*
X1160142Y614946D01*
X1160125Y614858D01*
X1160103Y614771D01*
X1160078Y614686D01*
X1160050Y614601D01*
X1160017Y614518D01*
X1159981Y614436D01*
X1159942Y614356D01*
X1159899Y614278D01*
X1159853Y614202D01*
X1159803Y614127D01*
X1159750Y614055D01*
X1159694Y613986D01*
X1159635Y613919D01*
X1159574Y613854D01*
X1159509Y613793D01*
X1159442Y613734D01*
X1159373Y613678D01*
X1159301Y613625D01*
X1159226Y613575D01*
X1159150Y613529D01*
X1159072Y613486D01*
X1158992Y613447D01*
X1158910Y613411D01*
X1158827Y613378D01*
X1158742Y613350D01*
X1158657Y613325D01*
X1158570Y613303D01*
X1158482Y613286D01*
X1158394Y613273D01*
X1158305Y613263D01*
X1158216Y613257D01*
X1158127Y613255D01*
X1156081Y613255D01*
X1158536Y613255D02*
X1160173Y609981D01*
X1163345Y611618D02*
X1164982Y617347D01*
X1163345Y611618D02*
X1167437Y611618D01*
X1166210Y613255D02*
X1166210Y609981D01*
D11*
X1101400Y153200D02*
X1101397Y152958D01*
X1101388Y152717D01*
X1101374Y152476D01*
X1101353Y152235D01*
X1101327Y151995D01*
X1101295Y151755D01*
X1101257Y151516D01*
X1101214Y151279D01*
X1101164Y151042D01*
X1101109Y150807D01*
X1101049Y150573D01*
X1100982Y150341D01*
X1100911Y150110D01*
X1100833Y149881D01*
X1100750Y149654D01*
X1100662Y149429D01*
X1100568Y149206D01*
X1100469Y148986D01*
X1100364Y148768D01*
X1100255Y148553D01*
X1100140Y148340D01*
X1100020Y148130D01*
X1099895Y147924D01*
X1099765Y147720D01*
X1099630Y147519D01*
X1099490Y147322D01*
X1099346Y147128D01*
X1099197Y146938D01*
X1099043Y146752D01*
X1098885Y146569D01*
X1098723Y146390D01*
X1098556Y146215D01*
X1098385Y146044D01*
X1098210Y145877D01*
X1098031Y145715D01*
X1097848Y145557D01*
X1097662Y145403D01*
X1097472Y145254D01*
X1097278Y145110D01*
X1097081Y144970D01*
X1096880Y144835D01*
X1096676Y144705D01*
X1096470Y144580D01*
X1096260Y144460D01*
X1096047Y144345D01*
X1095832Y144236D01*
X1095614Y144131D01*
X1095394Y144032D01*
X1095171Y143938D01*
X1094946Y143850D01*
X1094719Y143767D01*
X1094490Y143689D01*
X1094259Y143618D01*
X1094027Y143551D01*
X1093793Y143491D01*
X1093558Y143436D01*
X1093321Y143386D01*
X1093084Y143343D01*
X1092845Y143305D01*
X1092605Y143273D01*
X1092365Y143247D01*
X1092124Y143226D01*
X1091883Y143212D01*
X1091642Y143203D01*
X1091400Y143200D01*
X991400Y143200D01*
X991158Y143203D01*
X990917Y143212D01*
X990676Y143226D01*
X990435Y143247D01*
X990195Y143273D01*
X989955Y143305D01*
X989716Y143343D01*
X989479Y143386D01*
X989242Y143436D01*
X989007Y143491D01*
X988773Y143551D01*
X988541Y143618D01*
X988310Y143689D01*
X988081Y143767D01*
X987854Y143850D01*
X987629Y143938D01*
X987406Y144032D01*
X987186Y144131D01*
X986968Y144236D01*
X986753Y144345D01*
X986540Y144460D01*
X986330Y144580D01*
X986124Y144705D01*
X985920Y144835D01*
X985719Y144970D01*
X985522Y145110D01*
X985328Y145254D01*
X985138Y145403D01*
X984952Y145557D01*
X984769Y145715D01*
X984590Y145877D01*
X984415Y146044D01*
X984244Y146215D01*
X984077Y146390D01*
X983915Y146569D01*
X983757Y146752D01*
X983603Y146938D01*
X983454Y147128D01*
X983310Y147322D01*
X983170Y147519D01*
X983035Y147720D01*
X982905Y147924D01*
X982780Y148130D01*
X982660Y148340D01*
X982545Y148553D01*
X982436Y148768D01*
X982331Y148986D01*
X982232Y149206D01*
X982138Y149429D01*
X982050Y149654D01*
X981967Y149881D01*
X981889Y150110D01*
X981818Y150341D01*
X981751Y150573D01*
X981691Y150807D01*
X981636Y151042D01*
X981586Y151279D01*
X981543Y151516D01*
X981505Y151755D01*
X981473Y151995D01*
X981447Y152235D01*
X981426Y152476D01*
X981412Y152717D01*
X981403Y152958D01*
X981400Y153200D01*
X981400Y253200D02*
X981403Y253442D01*
X981412Y253683D01*
X981426Y253924D01*
X981447Y254165D01*
X981473Y254405D01*
X981505Y254645D01*
X981543Y254884D01*
X981586Y255121D01*
X981636Y255358D01*
X981691Y255593D01*
X981751Y255827D01*
X981818Y256059D01*
X981889Y256290D01*
X981967Y256519D01*
X982050Y256746D01*
X982138Y256971D01*
X982232Y257194D01*
X982331Y257414D01*
X982436Y257632D01*
X982545Y257847D01*
X982660Y258060D01*
X982780Y258270D01*
X982905Y258476D01*
X983035Y258680D01*
X983170Y258881D01*
X983310Y259078D01*
X983454Y259272D01*
X983603Y259462D01*
X983757Y259648D01*
X983915Y259831D01*
X984077Y260010D01*
X984244Y260185D01*
X984415Y260356D01*
X984590Y260523D01*
X984769Y260685D01*
X984952Y260843D01*
X985138Y260997D01*
X985328Y261146D01*
X985522Y261290D01*
X985719Y261430D01*
X985920Y261565D01*
X986124Y261695D01*
X986330Y261820D01*
X986540Y261940D01*
X986753Y262055D01*
X986968Y262164D01*
X987186Y262269D01*
X987406Y262368D01*
X987629Y262462D01*
X987854Y262550D01*
X988081Y262633D01*
X988310Y262711D01*
X988541Y262782D01*
X988773Y262849D01*
X989007Y262909D01*
X989242Y262964D01*
X989479Y263014D01*
X989716Y263057D01*
X989955Y263095D01*
X990195Y263127D01*
X990435Y263153D01*
X990676Y263174D01*
X990917Y263188D01*
X991158Y263197D01*
X991400Y263200D01*
X1091400Y263200D01*
X1091642Y263197D01*
X1091883Y263188D01*
X1092124Y263174D01*
X1092365Y263153D01*
X1092605Y263127D01*
X1092845Y263095D01*
X1093084Y263057D01*
X1093321Y263014D01*
X1093558Y262964D01*
X1093793Y262909D01*
X1094027Y262849D01*
X1094259Y262782D01*
X1094490Y262711D01*
X1094719Y262633D01*
X1094946Y262550D01*
X1095171Y262462D01*
X1095394Y262368D01*
X1095614Y262269D01*
X1095832Y262164D01*
X1096047Y262055D01*
X1096260Y261940D01*
X1096470Y261820D01*
X1096676Y261695D01*
X1096880Y261565D01*
X1097081Y261430D01*
X1097278Y261290D01*
X1097472Y261146D01*
X1097662Y260997D01*
X1097848Y260843D01*
X1098031Y260685D01*
X1098210Y260523D01*
X1098385Y260356D01*
X1098556Y260185D01*
X1098723Y260010D01*
X1098885Y259831D01*
X1099043Y259648D01*
X1099197Y259462D01*
X1099346Y259272D01*
X1099490Y259078D01*
X1099630Y258881D01*
X1099765Y258680D01*
X1099895Y258476D01*
X1100020Y258270D01*
X1100140Y258060D01*
X1100255Y257847D01*
X1100364Y257632D01*
X1100469Y257414D01*
X1100568Y257194D01*
X1100662Y256971D01*
X1100750Y256746D01*
X1100833Y256519D01*
X1100911Y256290D01*
X1100982Y256059D01*
X1101049Y255827D01*
X1101109Y255593D01*
X1101164Y255358D01*
X1101214Y255121D01*
X1101257Y254884D01*
X1101295Y254645D01*
X1101327Y254405D01*
X1101353Y254165D01*
X1101374Y253924D01*
X1101388Y253683D01*
X1101397Y253442D01*
X1101400Y253200D01*
X1006045Y203200D02*
X1006056Y204068D01*
X1006088Y204935D01*
X1006141Y205801D01*
X1006215Y206665D01*
X1006311Y207528D01*
X1006428Y208388D01*
X1006566Y209244D01*
X1006724Y210097D01*
X1006904Y210946D01*
X1007105Y211791D01*
X1007326Y212630D01*
X1007567Y213463D01*
X1007829Y214290D01*
X1008112Y215111D01*
X1008414Y215924D01*
X1008736Y216730D01*
X1009078Y217527D01*
X1009439Y218316D01*
X1009820Y219096D01*
X1010220Y219866D01*
X1010638Y220626D01*
X1011075Y221376D01*
X1011530Y222115D01*
X1012003Y222842D01*
X1012494Y223558D01*
X1013003Y224261D01*
X1013528Y224952D01*
X1014070Y225629D01*
X1014629Y226293D01*
X1015204Y226943D01*
X1015794Y227579D01*
X1016400Y228200D01*
X1017021Y228806D01*
X1017657Y229396D01*
X1018307Y229971D01*
X1018971Y230530D01*
X1019648Y231072D01*
X1020339Y231597D01*
X1021042Y232106D01*
X1021758Y232597D01*
X1022485Y233070D01*
X1023224Y233525D01*
X1023974Y233962D01*
X1024734Y234380D01*
X1025504Y234780D01*
X1026284Y235161D01*
X1027073Y235522D01*
X1027870Y235864D01*
X1028676Y236186D01*
X1029489Y236488D01*
X1030310Y236771D01*
X1031137Y237033D01*
X1031970Y237274D01*
X1032809Y237495D01*
X1033654Y237696D01*
X1034503Y237876D01*
X1035356Y238034D01*
X1036212Y238172D01*
X1037072Y238289D01*
X1037935Y238385D01*
X1038799Y238459D01*
X1039665Y238512D01*
X1040532Y238544D01*
X1041400Y238555D01*
X1042268Y238544D01*
X1043135Y238512D01*
X1044001Y238459D01*
X1044865Y238385D01*
X1045728Y238289D01*
X1046588Y238172D01*
X1047444Y238034D01*
X1048297Y237876D01*
X1049146Y237696D01*
X1049991Y237495D01*
X1050830Y237274D01*
X1051663Y237033D01*
X1052490Y236771D01*
X1053311Y236488D01*
X1054124Y236186D01*
X1054930Y235864D01*
X1055727Y235522D01*
X1056516Y235161D01*
X1057296Y234780D01*
X1058066Y234380D01*
X1058826Y233962D01*
X1059576Y233525D01*
X1060315Y233070D01*
X1061042Y232597D01*
X1061758Y232106D01*
X1062461Y231597D01*
X1063152Y231072D01*
X1063829Y230530D01*
X1064493Y229971D01*
X1065143Y229396D01*
X1065779Y228806D01*
X1066400Y228200D01*
X1067006Y227579D01*
X1067596Y226943D01*
X1068171Y226293D01*
X1068730Y225629D01*
X1069272Y224952D01*
X1069797Y224261D01*
X1070306Y223558D01*
X1070797Y222842D01*
X1071270Y222115D01*
X1071725Y221376D01*
X1072162Y220626D01*
X1072580Y219866D01*
X1072980Y219096D01*
X1073361Y218316D01*
X1073722Y217527D01*
X1074064Y216730D01*
X1074386Y215924D01*
X1074688Y215111D01*
X1074971Y214290D01*
X1075233Y213463D01*
X1075474Y212630D01*
X1075695Y211791D01*
X1075896Y210946D01*
X1076076Y210097D01*
X1076234Y209244D01*
X1076372Y208388D01*
X1076489Y207528D01*
X1076585Y206665D01*
X1076659Y205801D01*
X1076712Y204935D01*
X1076744Y204068D01*
X1076755Y203200D01*
X1076744Y202332D01*
X1076712Y201465D01*
X1076659Y200599D01*
X1076585Y199735D01*
X1076489Y198872D01*
X1076372Y198012D01*
X1076234Y197156D01*
X1076076Y196303D01*
X1075896Y195454D01*
X1075695Y194609D01*
X1075474Y193770D01*
X1075233Y192937D01*
X1074971Y192110D01*
X1074688Y191289D01*
X1074386Y190476D01*
X1074064Y189670D01*
X1073722Y188873D01*
X1073361Y188084D01*
X1072980Y187304D01*
X1072580Y186534D01*
X1072162Y185774D01*
X1071725Y185024D01*
X1071270Y184285D01*
X1070797Y183558D01*
X1070306Y182842D01*
X1069797Y182139D01*
X1069272Y181448D01*
X1068730Y180771D01*
X1068171Y180107D01*
X1067596Y179457D01*
X1067006Y178821D01*
X1066400Y178200D01*
X1065779Y177594D01*
X1065143Y177004D01*
X1064493Y176429D01*
X1063829Y175870D01*
X1063152Y175328D01*
X1062461Y174803D01*
X1061758Y174294D01*
X1061042Y173803D01*
X1060315Y173330D01*
X1059576Y172875D01*
X1058826Y172438D01*
X1058066Y172020D01*
X1057296Y171620D01*
X1056516Y171239D01*
X1055727Y170878D01*
X1054930Y170536D01*
X1054124Y170214D01*
X1053311Y169912D01*
X1052490Y169629D01*
X1051663Y169367D01*
X1050830Y169126D01*
X1049991Y168905D01*
X1049146Y168704D01*
X1048297Y168524D01*
X1047444Y168366D01*
X1046588Y168228D01*
X1045728Y168111D01*
X1044865Y168015D01*
X1044001Y167941D01*
X1043135Y167888D01*
X1042268Y167856D01*
X1041400Y167845D01*
X1040532Y167856D01*
X1039665Y167888D01*
X1038799Y167941D01*
X1037935Y168015D01*
X1037072Y168111D01*
X1036212Y168228D01*
X1035356Y168366D01*
X1034503Y168524D01*
X1033654Y168704D01*
X1032809Y168905D01*
X1031970Y169126D01*
X1031137Y169367D01*
X1030310Y169629D01*
X1029489Y169912D01*
X1028676Y170214D01*
X1027870Y170536D01*
X1027073Y170878D01*
X1026284Y171239D01*
X1025504Y171620D01*
X1024734Y172020D01*
X1023974Y172438D01*
X1023224Y172875D01*
X1022485Y173330D01*
X1021758Y173803D01*
X1021042Y174294D01*
X1020339Y174803D01*
X1019648Y175328D01*
X1018971Y175870D01*
X1018307Y176429D01*
X1017657Y177004D01*
X1017021Y177594D01*
X1016400Y178200D01*
X1015794Y178821D01*
X1015204Y179457D01*
X1014629Y180107D01*
X1014070Y180771D01*
X1013528Y181448D01*
X1013003Y182139D01*
X1012494Y182842D01*
X1012003Y183558D01*
X1011530Y184285D01*
X1011075Y185024D01*
X1010638Y185774D01*
X1010220Y186534D01*
X1009820Y187304D01*
X1009439Y188084D01*
X1009078Y188873D01*
X1008736Y189670D01*
X1008414Y190476D01*
X1008112Y191289D01*
X1007829Y192110D01*
X1007567Y192937D01*
X1007326Y193770D01*
X1007105Y194609D01*
X1006904Y195454D01*
X1006724Y196303D01*
X1006566Y197156D01*
X1006428Y198012D01*
X1006311Y198872D01*
X1006215Y199735D01*
X1006141Y200599D01*
X1006088Y201465D01*
X1006056Y202332D01*
X1006045Y203200D01*
X1021400Y223200D02*
X1061400Y223200D01*
X1061400Y183200D01*
X1021400Y183200D01*
X1021400Y223200D01*
X981400Y240700D02*
X981400Y253200D01*
X981400Y215700D02*
X981400Y190700D01*
X981400Y165700D02*
X981400Y153200D01*
X1101400Y240700D02*
X1101400Y253200D01*
X1101400Y215700D02*
X1101400Y190700D01*
X1101400Y165700D02*
X1101400Y153200D01*
D15*
X995003Y267208D02*
X995102Y267210D01*
X995202Y267216D01*
X995301Y267225D01*
X995399Y267238D01*
X995497Y267255D01*
X995595Y267276D01*
X995691Y267301D01*
X995786Y267329D01*
X995880Y267361D01*
X995973Y267396D01*
X996065Y267435D01*
X996155Y267478D01*
X996243Y267523D01*
X996330Y267573D01*
X996414Y267625D01*
X996497Y267681D01*
X996577Y267739D01*
X996655Y267801D01*
X996730Y267866D01*
X996803Y267934D01*
X996873Y268004D01*
X996941Y268077D01*
X997006Y268152D01*
X997068Y268230D01*
X997126Y268310D01*
X997182Y268393D01*
X997234Y268477D01*
X997284Y268564D01*
X997329Y268652D01*
X997372Y268742D01*
X997411Y268834D01*
X997446Y268927D01*
X997478Y269021D01*
X997506Y269116D01*
X997531Y269212D01*
X997552Y269310D01*
X997569Y269408D01*
X997582Y269506D01*
X997591Y269605D01*
X997597Y269705D01*
X997599Y269804D01*
X995003Y267208D02*
X994859Y267210D01*
X994714Y267216D01*
X994570Y267225D01*
X994427Y267238D01*
X994283Y267255D01*
X994140Y267276D01*
X993998Y267301D01*
X993857Y267329D01*
X993716Y267361D01*
X993576Y267397D01*
X993437Y267436D01*
X993299Y267479D01*
X993163Y267526D01*
X993027Y267576D01*
X992893Y267630D01*
X992761Y267687D01*
X992630Y267748D01*
X992501Y267812D01*
X992373Y267880D01*
X992247Y267950D01*
X992123Y268025D01*
X992002Y268102D01*
X991882Y268183D01*
X991764Y268266D01*
X991649Y268353D01*
X991536Y268443D01*
X991425Y268536D01*
X991317Y268631D01*
X991211Y268730D01*
X991108Y268831D01*
X991433Y276296D02*
X991435Y276395D01*
X991441Y276495D01*
X991450Y276594D01*
X991463Y276692D01*
X991480Y276790D01*
X991501Y276888D01*
X991526Y276984D01*
X991554Y277079D01*
X991586Y277173D01*
X991621Y277266D01*
X991660Y277358D01*
X991703Y277448D01*
X991748Y277536D01*
X991798Y277623D01*
X991850Y277707D01*
X991906Y277790D01*
X991964Y277870D01*
X992026Y277948D01*
X992091Y278023D01*
X992159Y278096D01*
X992229Y278166D01*
X992302Y278234D01*
X992377Y278299D01*
X992455Y278361D01*
X992535Y278419D01*
X992618Y278475D01*
X992702Y278527D01*
X992789Y278577D01*
X992877Y278622D01*
X992967Y278665D01*
X993059Y278704D01*
X993152Y278739D01*
X993246Y278771D01*
X993341Y278799D01*
X993438Y278824D01*
X993535Y278845D01*
X993633Y278862D01*
X993731Y278875D01*
X993830Y278884D01*
X993930Y278890D01*
X994029Y278892D01*
X994165Y278890D01*
X994301Y278884D01*
X994437Y278875D01*
X994573Y278862D01*
X994708Y278844D01*
X994842Y278824D01*
X994976Y278799D01*
X995110Y278771D01*
X995242Y278738D01*
X995373Y278703D01*
X995504Y278663D01*
X995633Y278620D01*
X995761Y278574D01*
X995887Y278523D01*
X996013Y278470D01*
X996136Y278412D01*
X996258Y278352D01*
X996378Y278288D01*
X996497Y278220D01*
X996613Y278150D01*
X996727Y278076D01*
X996840Y277999D01*
X996950Y277918D01*
X992731Y274024D02*
X992645Y274077D01*
X992561Y274134D01*
X992479Y274193D01*
X992399Y274256D01*
X992322Y274322D01*
X992247Y274390D01*
X992175Y274462D01*
X992106Y274536D01*
X992040Y274613D01*
X991977Y274692D01*
X991917Y274774D01*
X991860Y274858D01*
X991806Y274944D01*
X991756Y275032D01*
X991709Y275122D01*
X991665Y275213D01*
X991626Y275307D01*
X991589Y275401D01*
X991557Y275497D01*
X991528Y275595D01*
X991503Y275693D01*
X991482Y275792D01*
X991464Y275892D01*
X991451Y275992D01*
X991441Y276093D01*
X991435Y276195D01*
X991433Y276296D01*
X996301Y272076D02*
X996387Y272023D01*
X996471Y271966D01*
X996553Y271907D01*
X996633Y271844D01*
X996710Y271778D01*
X996785Y271710D01*
X996857Y271638D01*
X996926Y271564D01*
X996992Y271487D01*
X997055Y271408D01*
X997115Y271326D01*
X997172Y271242D01*
X997226Y271156D01*
X997276Y271068D01*
X997323Y270978D01*
X997367Y270887D01*
X997406Y270793D01*
X997443Y270699D01*
X997475Y270603D01*
X997504Y270505D01*
X997529Y270407D01*
X997550Y270308D01*
X997568Y270208D01*
X997581Y270108D01*
X997591Y270007D01*
X997597Y269905D01*
X997599Y269804D01*
X996301Y272076D02*
X992731Y274024D01*
X1001734Y278892D02*
X1004330Y267208D01*
X1006927Y274997D01*
X1009523Y267208D01*
X1012119Y278892D01*
X1020205Y278892D02*
X1020312Y278890D01*
X1020418Y278884D01*
X1020524Y278874D01*
X1020630Y278861D01*
X1020736Y278843D01*
X1020840Y278822D01*
X1020944Y278797D01*
X1021047Y278768D01*
X1021148Y278736D01*
X1021248Y278699D01*
X1021347Y278659D01*
X1021445Y278616D01*
X1021541Y278569D01*
X1021635Y278518D01*
X1021727Y278464D01*
X1021817Y278407D01*
X1021905Y278347D01*
X1021990Y278283D01*
X1022073Y278216D01*
X1022154Y278146D01*
X1022232Y278074D01*
X1022308Y277998D01*
X1022380Y277920D01*
X1022450Y277839D01*
X1022517Y277756D01*
X1022581Y277671D01*
X1022641Y277583D01*
X1022698Y277493D01*
X1022752Y277401D01*
X1022803Y277307D01*
X1022850Y277211D01*
X1022893Y277113D01*
X1022933Y277014D01*
X1022970Y276914D01*
X1023002Y276813D01*
X1023031Y276710D01*
X1023056Y276606D01*
X1023077Y276502D01*
X1023095Y276396D01*
X1023108Y276290D01*
X1023118Y276184D01*
X1023124Y276078D01*
X1023126Y275971D01*
X1020205Y278892D02*
X1020084Y278890D01*
X1019963Y278884D01*
X1019843Y278874D01*
X1019722Y278861D01*
X1019603Y278843D01*
X1019483Y278822D01*
X1019365Y278797D01*
X1019248Y278768D01*
X1019131Y278735D01*
X1019016Y278699D01*
X1018902Y278658D01*
X1018789Y278615D01*
X1018677Y278567D01*
X1018568Y278516D01*
X1018460Y278461D01*
X1018353Y278403D01*
X1018249Y278342D01*
X1018147Y278277D01*
X1018047Y278209D01*
X1017949Y278138D01*
X1017853Y278064D01*
X1017760Y277987D01*
X1017670Y277906D01*
X1017582Y277823D01*
X1017497Y277737D01*
X1017414Y277648D01*
X1017335Y277557D01*
X1017258Y277463D01*
X1017185Y277367D01*
X1017115Y277269D01*
X1017048Y277168D01*
X1016984Y277065D01*
X1016924Y276960D01*
X1016867Y276853D01*
X1016813Y276745D01*
X1016763Y276635D01*
X1016717Y276523D01*
X1016674Y276410D01*
X1016635Y276295D01*
X1022153Y273699D02*
X1022232Y273776D01*
X1022308Y273857D01*
X1022381Y273940D01*
X1022451Y274025D01*
X1022518Y274113D01*
X1022582Y274203D01*
X1022642Y274295D01*
X1022699Y274390D01*
X1022753Y274486D01*
X1022804Y274584D01*
X1022851Y274684D01*
X1022895Y274786D01*
X1022935Y274889D01*
X1022971Y274993D01*
X1023003Y275099D01*
X1023032Y275205D01*
X1023057Y275313D01*
X1023079Y275421D01*
X1023096Y275531D01*
X1023110Y275640D01*
X1023119Y275750D01*
X1023125Y275861D01*
X1023127Y275971D01*
X1022152Y273699D02*
X1016635Y267208D01*
X1023126Y267208D01*
D11*
X390200Y153200D02*
X390197Y152958D01*
X390188Y152717D01*
X390174Y152476D01*
X390153Y152235D01*
X390127Y151995D01*
X390095Y151755D01*
X390057Y151516D01*
X390014Y151279D01*
X389964Y151042D01*
X389909Y150807D01*
X389849Y150573D01*
X389782Y150341D01*
X389711Y150110D01*
X389633Y149881D01*
X389550Y149654D01*
X389462Y149429D01*
X389368Y149206D01*
X389269Y148986D01*
X389164Y148768D01*
X389055Y148553D01*
X388940Y148340D01*
X388820Y148130D01*
X388695Y147924D01*
X388565Y147720D01*
X388430Y147519D01*
X388290Y147322D01*
X388146Y147128D01*
X387997Y146938D01*
X387843Y146752D01*
X387685Y146569D01*
X387523Y146390D01*
X387356Y146215D01*
X387185Y146044D01*
X387010Y145877D01*
X386831Y145715D01*
X386648Y145557D01*
X386462Y145403D01*
X386272Y145254D01*
X386078Y145110D01*
X385881Y144970D01*
X385680Y144835D01*
X385476Y144705D01*
X385270Y144580D01*
X385060Y144460D01*
X384847Y144345D01*
X384632Y144236D01*
X384414Y144131D01*
X384194Y144032D01*
X383971Y143938D01*
X383746Y143850D01*
X383519Y143767D01*
X383290Y143689D01*
X383059Y143618D01*
X382827Y143551D01*
X382593Y143491D01*
X382358Y143436D01*
X382121Y143386D01*
X381884Y143343D01*
X381645Y143305D01*
X381405Y143273D01*
X381165Y143247D01*
X380924Y143226D01*
X380683Y143212D01*
X380442Y143203D01*
X380200Y143200D01*
X280200Y143200D01*
X279958Y143203D01*
X279717Y143212D01*
X279476Y143226D01*
X279235Y143247D01*
X278995Y143273D01*
X278755Y143305D01*
X278516Y143343D01*
X278279Y143386D01*
X278042Y143436D01*
X277807Y143491D01*
X277573Y143551D01*
X277341Y143618D01*
X277110Y143689D01*
X276881Y143767D01*
X276654Y143850D01*
X276429Y143938D01*
X276206Y144032D01*
X275986Y144131D01*
X275768Y144236D01*
X275553Y144345D01*
X275340Y144460D01*
X275130Y144580D01*
X274924Y144705D01*
X274720Y144835D01*
X274519Y144970D01*
X274322Y145110D01*
X274128Y145254D01*
X273938Y145403D01*
X273752Y145557D01*
X273569Y145715D01*
X273390Y145877D01*
X273215Y146044D01*
X273044Y146215D01*
X272877Y146390D01*
X272715Y146569D01*
X272557Y146752D01*
X272403Y146938D01*
X272254Y147128D01*
X272110Y147322D01*
X271970Y147519D01*
X271835Y147720D01*
X271705Y147924D01*
X271580Y148130D01*
X271460Y148340D01*
X271345Y148553D01*
X271236Y148768D01*
X271131Y148986D01*
X271032Y149206D01*
X270938Y149429D01*
X270850Y149654D01*
X270767Y149881D01*
X270689Y150110D01*
X270618Y150341D01*
X270551Y150573D01*
X270491Y150807D01*
X270436Y151042D01*
X270386Y151279D01*
X270343Y151516D01*
X270305Y151755D01*
X270273Y151995D01*
X270247Y152235D01*
X270226Y152476D01*
X270212Y152717D01*
X270203Y152958D01*
X270200Y153200D01*
X270200Y253200D02*
X270203Y253442D01*
X270212Y253683D01*
X270226Y253924D01*
X270247Y254165D01*
X270273Y254405D01*
X270305Y254645D01*
X270343Y254884D01*
X270386Y255121D01*
X270436Y255358D01*
X270491Y255593D01*
X270551Y255827D01*
X270618Y256059D01*
X270689Y256290D01*
X270767Y256519D01*
X270850Y256746D01*
X270938Y256971D01*
X271032Y257194D01*
X271131Y257414D01*
X271236Y257632D01*
X271345Y257847D01*
X271460Y258060D01*
X271580Y258270D01*
X271705Y258476D01*
X271835Y258680D01*
X271970Y258881D01*
X272110Y259078D01*
X272254Y259272D01*
X272403Y259462D01*
X272557Y259648D01*
X272715Y259831D01*
X272877Y260010D01*
X273044Y260185D01*
X273215Y260356D01*
X273390Y260523D01*
X273569Y260685D01*
X273752Y260843D01*
X273938Y260997D01*
X274128Y261146D01*
X274322Y261290D01*
X274519Y261430D01*
X274720Y261565D01*
X274924Y261695D01*
X275130Y261820D01*
X275340Y261940D01*
X275553Y262055D01*
X275768Y262164D01*
X275986Y262269D01*
X276206Y262368D01*
X276429Y262462D01*
X276654Y262550D01*
X276881Y262633D01*
X277110Y262711D01*
X277341Y262782D01*
X277573Y262849D01*
X277807Y262909D01*
X278042Y262964D01*
X278279Y263014D01*
X278516Y263057D01*
X278755Y263095D01*
X278995Y263127D01*
X279235Y263153D01*
X279476Y263174D01*
X279717Y263188D01*
X279958Y263197D01*
X280200Y263200D01*
X380200Y263200D01*
X380442Y263197D01*
X380683Y263188D01*
X380924Y263174D01*
X381165Y263153D01*
X381405Y263127D01*
X381645Y263095D01*
X381884Y263057D01*
X382121Y263014D01*
X382358Y262964D01*
X382593Y262909D01*
X382827Y262849D01*
X383059Y262782D01*
X383290Y262711D01*
X383519Y262633D01*
X383746Y262550D01*
X383971Y262462D01*
X384194Y262368D01*
X384414Y262269D01*
X384632Y262164D01*
X384847Y262055D01*
X385060Y261940D01*
X385270Y261820D01*
X385476Y261695D01*
X385680Y261565D01*
X385881Y261430D01*
X386078Y261290D01*
X386272Y261146D01*
X386462Y260997D01*
X386648Y260843D01*
X386831Y260685D01*
X387010Y260523D01*
X387185Y260356D01*
X387356Y260185D01*
X387523Y260010D01*
X387685Y259831D01*
X387843Y259648D01*
X387997Y259462D01*
X388146Y259272D01*
X388290Y259078D01*
X388430Y258881D01*
X388565Y258680D01*
X388695Y258476D01*
X388820Y258270D01*
X388940Y258060D01*
X389055Y257847D01*
X389164Y257632D01*
X389269Y257414D01*
X389368Y257194D01*
X389462Y256971D01*
X389550Y256746D01*
X389633Y256519D01*
X389711Y256290D01*
X389782Y256059D01*
X389849Y255827D01*
X389909Y255593D01*
X389964Y255358D01*
X390014Y255121D01*
X390057Y254884D01*
X390095Y254645D01*
X390127Y254405D01*
X390153Y254165D01*
X390174Y253924D01*
X390188Y253683D01*
X390197Y253442D01*
X390200Y253200D01*
X294845Y203200D02*
X294856Y204068D01*
X294888Y204935D01*
X294941Y205801D01*
X295015Y206665D01*
X295111Y207528D01*
X295228Y208388D01*
X295366Y209244D01*
X295524Y210097D01*
X295704Y210946D01*
X295905Y211791D01*
X296126Y212630D01*
X296367Y213463D01*
X296629Y214290D01*
X296912Y215111D01*
X297214Y215924D01*
X297536Y216730D01*
X297878Y217527D01*
X298239Y218316D01*
X298620Y219096D01*
X299020Y219866D01*
X299438Y220626D01*
X299875Y221376D01*
X300330Y222115D01*
X300803Y222842D01*
X301294Y223558D01*
X301803Y224261D01*
X302328Y224952D01*
X302870Y225629D01*
X303429Y226293D01*
X304004Y226943D01*
X304594Y227579D01*
X305200Y228200D01*
X305821Y228806D01*
X306457Y229396D01*
X307107Y229971D01*
X307771Y230530D01*
X308448Y231072D01*
X309139Y231597D01*
X309842Y232106D01*
X310558Y232597D01*
X311285Y233070D01*
X312024Y233525D01*
X312774Y233962D01*
X313534Y234380D01*
X314304Y234780D01*
X315084Y235161D01*
X315873Y235522D01*
X316670Y235864D01*
X317476Y236186D01*
X318289Y236488D01*
X319110Y236771D01*
X319937Y237033D01*
X320770Y237274D01*
X321609Y237495D01*
X322454Y237696D01*
X323303Y237876D01*
X324156Y238034D01*
X325012Y238172D01*
X325872Y238289D01*
X326735Y238385D01*
X327599Y238459D01*
X328465Y238512D01*
X329332Y238544D01*
X330200Y238555D01*
X331068Y238544D01*
X331935Y238512D01*
X332801Y238459D01*
X333665Y238385D01*
X334528Y238289D01*
X335388Y238172D01*
X336244Y238034D01*
X337097Y237876D01*
X337946Y237696D01*
X338791Y237495D01*
X339630Y237274D01*
X340463Y237033D01*
X341290Y236771D01*
X342111Y236488D01*
X342924Y236186D01*
X343730Y235864D01*
X344527Y235522D01*
X345316Y235161D01*
X346096Y234780D01*
X346866Y234380D01*
X347626Y233962D01*
X348376Y233525D01*
X349115Y233070D01*
X349842Y232597D01*
X350558Y232106D01*
X351261Y231597D01*
X351952Y231072D01*
X352629Y230530D01*
X353293Y229971D01*
X353943Y229396D01*
X354579Y228806D01*
X355200Y228200D01*
X355806Y227579D01*
X356396Y226943D01*
X356971Y226293D01*
X357530Y225629D01*
X358072Y224952D01*
X358597Y224261D01*
X359106Y223558D01*
X359597Y222842D01*
X360070Y222115D01*
X360525Y221376D01*
X360962Y220626D01*
X361380Y219866D01*
X361780Y219096D01*
X362161Y218316D01*
X362522Y217527D01*
X362864Y216730D01*
X363186Y215924D01*
X363488Y215111D01*
X363771Y214290D01*
X364033Y213463D01*
X364274Y212630D01*
X364495Y211791D01*
X364696Y210946D01*
X364876Y210097D01*
X365034Y209244D01*
X365172Y208388D01*
X365289Y207528D01*
X365385Y206665D01*
X365459Y205801D01*
X365512Y204935D01*
X365544Y204068D01*
X365555Y203200D01*
X365544Y202332D01*
X365512Y201465D01*
X365459Y200599D01*
X365385Y199735D01*
X365289Y198872D01*
X365172Y198012D01*
X365034Y197156D01*
X364876Y196303D01*
X364696Y195454D01*
X364495Y194609D01*
X364274Y193770D01*
X364033Y192937D01*
X363771Y192110D01*
X363488Y191289D01*
X363186Y190476D01*
X362864Y189670D01*
X362522Y188873D01*
X362161Y188084D01*
X361780Y187304D01*
X361380Y186534D01*
X360962Y185774D01*
X360525Y185024D01*
X360070Y184285D01*
X359597Y183558D01*
X359106Y182842D01*
X358597Y182139D01*
X358072Y181448D01*
X357530Y180771D01*
X356971Y180107D01*
X356396Y179457D01*
X355806Y178821D01*
X355200Y178200D01*
X354579Y177594D01*
X353943Y177004D01*
X353293Y176429D01*
X352629Y175870D01*
X351952Y175328D01*
X351261Y174803D01*
X350558Y174294D01*
X349842Y173803D01*
X349115Y173330D01*
X348376Y172875D01*
X347626Y172438D01*
X346866Y172020D01*
X346096Y171620D01*
X345316Y171239D01*
X344527Y170878D01*
X343730Y170536D01*
X342924Y170214D01*
X342111Y169912D01*
X341290Y169629D01*
X340463Y169367D01*
X339630Y169126D01*
X338791Y168905D01*
X337946Y168704D01*
X337097Y168524D01*
X336244Y168366D01*
X335388Y168228D01*
X334528Y168111D01*
X333665Y168015D01*
X332801Y167941D01*
X331935Y167888D01*
X331068Y167856D01*
X330200Y167845D01*
X329332Y167856D01*
X328465Y167888D01*
X327599Y167941D01*
X326735Y168015D01*
X325872Y168111D01*
X325012Y168228D01*
X324156Y168366D01*
X323303Y168524D01*
X322454Y168704D01*
X321609Y168905D01*
X320770Y169126D01*
X319937Y169367D01*
X319110Y169629D01*
X318289Y169912D01*
X317476Y170214D01*
X316670Y170536D01*
X315873Y170878D01*
X315084Y171239D01*
X314304Y171620D01*
X313534Y172020D01*
X312774Y172438D01*
X312024Y172875D01*
X311285Y173330D01*
X310558Y173803D01*
X309842Y174294D01*
X309139Y174803D01*
X308448Y175328D01*
X307771Y175870D01*
X307107Y176429D01*
X306457Y177004D01*
X305821Y177594D01*
X305200Y178200D01*
X304594Y178821D01*
X304004Y179457D01*
X303429Y180107D01*
X302870Y180771D01*
X302328Y181448D01*
X301803Y182139D01*
X301294Y182842D01*
X300803Y183558D01*
X300330Y184285D01*
X299875Y185024D01*
X299438Y185774D01*
X299020Y186534D01*
X298620Y187304D01*
X298239Y188084D01*
X297878Y188873D01*
X297536Y189670D01*
X297214Y190476D01*
X296912Y191289D01*
X296629Y192110D01*
X296367Y192937D01*
X296126Y193770D01*
X295905Y194609D01*
X295704Y195454D01*
X295524Y196303D01*
X295366Y197156D01*
X295228Y198012D01*
X295111Y198872D01*
X295015Y199735D01*
X294941Y200599D01*
X294888Y201465D01*
X294856Y202332D01*
X294845Y203200D01*
X310200Y223200D02*
X350200Y223200D01*
X350200Y183200D01*
X310200Y183200D01*
X310200Y223200D01*
X270200Y240700D02*
X270200Y253200D01*
X270200Y215700D02*
X270200Y190700D01*
X270200Y165700D02*
X270200Y153200D01*
X390200Y240700D02*
X390200Y253200D01*
X390200Y215700D02*
X390200Y190700D01*
X390200Y165700D02*
X390200Y153200D01*
D15*
X283803Y267208D02*
X283902Y267210D01*
X284002Y267216D01*
X284101Y267225D01*
X284199Y267238D01*
X284297Y267255D01*
X284395Y267276D01*
X284491Y267301D01*
X284586Y267329D01*
X284680Y267361D01*
X284773Y267396D01*
X284865Y267435D01*
X284955Y267478D01*
X285043Y267523D01*
X285130Y267573D01*
X285214Y267625D01*
X285297Y267681D01*
X285377Y267739D01*
X285455Y267801D01*
X285530Y267866D01*
X285603Y267934D01*
X285673Y268004D01*
X285741Y268077D01*
X285806Y268152D01*
X285868Y268230D01*
X285926Y268310D01*
X285982Y268393D01*
X286034Y268477D01*
X286084Y268564D01*
X286129Y268652D01*
X286172Y268742D01*
X286211Y268834D01*
X286246Y268927D01*
X286278Y269021D01*
X286306Y269116D01*
X286331Y269212D01*
X286352Y269310D01*
X286369Y269408D01*
X286382Y269506D01*
X286391Y269605D01*
X286397Y269705D01*
X286399Y269804D01*
X283803Y267208D02*
X283659Y267210D01*
X283514Y267216D01*
X283370Y267225D01*
X283227Y267238D01*
X283083Y267255D01*
X282940Y267276D01*
X282798Y267301D01*
X282657Y267329D01*
X282516Y267361D01*
X282376Y267397D01*
X282237Y267436D01*
X282099Y267479D01*
X281963Y267526D01*
X281827Y267576D01*
X281693Y267630D01*
X281561Y267687D01*
X281430Y267748D01*
X281301Y267812D01*
X281173Y267880D01*
X281047Y267950D01*
X280923Y268025D01*
X280802Y268102D01*
X280682Y268183D01*
X280564Y268266D01*
X280449Y268353D01*
X280336Y268443D01*
X280225Y268536D01*
X280117Y268631D01*
X280011Y268730D01*
X279908Y268831D01*
X280233Y276296D02*
X280235Y276395D01*
X280241Y276495D01*
X280250Y276594D01*
X280263Y276692D01*
X280280Y276790D01*
X280301Y276888D01*
X280326Y276984D01*
X280354Y277079D01*
X280386Y277173D01*
X280421Y277266D01*
X280460Y277358D01*
X280503Y277448D01*
X280548Y277536D01*
X280598Y277623D01*
X280650Y277707D01*
X280706Y277790D01*
X280764Y277870D01*
X280826Y277948D01*
X280891Y278023D01*
X280959Y278096D01*
X281029Y278166D01*
X281102Y278234D01*
X281177Y278299D01*
X281255Y278361D01*
X281335Y278419D01*
X281418Y278475D01*
X281502Y278527D01*
X281589Y278577D01*
X281677Y278622D01*
X281767Y278665D01*
X281859Y278704D01*
X281952Y278739D01*
X282046Y278771D01*
X282141Y278799D01*
X282238Y278824D01*
X282335Y278845D01*
X282433Y278862D01*
X282531Y278875D01*
X282630Y278884D01*
X282730Y278890D01*
X282829Y278892D01*
X282965Y278890D01*
X283101Y278884D01*
X283237Y278875D01*
X283373Y278862D01*
X283508Y278844D01*
X283642Y278824D01*
X283776Y278799D01*
X283910Y278771D01*
X284042Y278738D01*
X284173Y278703D01*
X284304Y278663D01*
X284433Y278620D01*
X284561Y278574D01*
X284687Y278523D01*
X284813Y278470D01*
X284936Y278412D01*
X285058Y278352D01*
X285178Y278288D01*
X285297Y278220D01*
X285413Y278150D01*
X285527Y278076D01*
X285640Y277999D01*
X285750Y277918D01*
X281531Y274024D02*
X281445Y274077D01*
X281361Y274134D01*
X281279Y274193D01*
X281199Y274256D01*
X281122Y274322D01*
X281047Y274390D01*
X280975Y274462D01*
X280906Y274536D01*
X280840Y274613D01*
X280777Y274692D01*
X280717Y274774D01*
X280660Y274858D01*
X280606Y274944D01*
X280556Y275032D01*
X280509Y275122D01*
X280465Y275213D01*
X280426Y275307D01*
X280389Y275401D01*
X280357Y275497D01*
X280328Y275595D01*
X280303Y275693D01*
X280282Y275792D01*
X280264Y275892D01*
X280251Y275992D01*
X280241Y276093D01*
X280235Y276195D01*
X280233Y276296D01*
X285101Y272076D02*
X285187Y272023D01*
X285271Y271966D01*
X285353Y271907D01*
X285433Y271844D01*
X285510Y271778D01*
X285585Y271710D01*
X285657Y271638D01*
X285726Y271564D01*
X285792Y271487D01*
X285855Y271408D01*
X285915Y271326D01*
X285972Y271242D01*
X286026Y271156D01*
X286076Y271068D01*
X286123Y270978D01*
X286167Y270887D01*
X286206Y270793D01*
X286243Y270699D01*
X286275Y270603D01*
X286304Y270505D01*
X286329Y270407D01*
X286350Y270308D01*
X286368Y270208D01*
X286381Y270108D01*
X286391Y270007D01*
X286397Y269905D01*
X286399Y269804D01*
X285101Y272076D02*
X281531Y274024D01*
X290534Y278892D02*
X293130Y267208D01*
X295727Y274997D01*
X298323Y267208D01*
X300919Y278892D01*
X305435Y276296D02*
X308681Y278892D01*
X308681Y267208D01*
X311926Y267208D02*
X305435Y267208D01*
X659638Y112522D02*
X659638Y100838D01*
X659638Y112522D02*
X662884Y112522D01*
X662997Y112520D01*
X663110Y112514D01*
X663223Y112504D01*
X663336Y112490D01*
X663448Y112473D01*
X663559Y112451D01*
X663669Y112426D01*
X663779Y112396D01*
X663887Y112363D01*
X663994Y112326D01*
X664100Y112286D01*
X664204Y112241D01*
X664307Y112193D01*
X664408Y112142D01*
X664507Y112087D01*
X664604Y112029D01*
X664699Y111967D01*
X664792Y111902D01*
X664882Y111834D01*
X664970Y111763D01*
X665056Y111688D01*
X665139Y111611D01*
X665219Y111531D01*
X665296Y111448D01*
X665371Y111362D01*
X665442Y111274D01*
X665510Y111184D01*
X665575Y111091D01*
X665637Y110996D01*
X665695Y110899D01*
X665750Y110800D01*
X665801Y110699D01*
X665849Y110596D01*
X665894Y110492D01*
X665934Y110386D01*
X665971Y110279D01*
X666004Y110171D01*
X666034Y110061D01*
X666059Y109951D01*
X666081Y109840D01*
X666098Y109728D01*
X666112Y109615D01*
X666122Y109502D01*
X666128Y109389D01*
X666130Y109276D01*
X666128Y109163D01*
X666122Y109050D01*
X666112Y108937D01*
X666098Y108824D01*
X666081Y108712D01*
X666059Y108601D01*
X666034Y108491D01*
X666004Y108381D01*
X665971Y108273D01*
X665934Y108166D01*
X665894Y108060D01*
X665849Y107956D01*
X665801Y107853D01*
X665750Y107752D01*
X665695Y107653D01*
X665637Y107556D01*
X665575Y107461D01*
X665510Y107368D01*
X665442Y107278D01*
X665371Y107190D01*
X665296Y107104D01*
X665219Y107021D01*
X665139Y106941D01*
X665056Y106864D01*
X664970Y106789D01*
X664882Y106718D01*
X664792Y106650D01*
X664699Y106585D01*
X664604Y106523D01*
X664507Y106465D01*
X664408Y106410D01*
X664307Y106359D01*
X664204Y106311D01*
X664100Y106266D01*
X663994Y106226D01*
X663887Y106189D01*
X663779Y106156D01*
X663669Y106126D01*
X663559Y106101D01*
X663448Y106079D01*
X663336Y106062D01*
X663223Y106048D01*
X663110Y106038D01*
X662997Y106032D01*
X662884Y106030D01*
X662884Y106031D02*
X659638Y106031D01*
X663533Y106031D02*
X666129Y100838D01*
X670994Y100838D02*
X674889Y100838D01*
X674988Y100840D01*
X675088Y100846D01*
X675187Y100855D01*
X675285Y100868D01*
X675383Y100885D01*
X675481Y100906D01*
X675577Y100931D01*
X675672Y100959D01*
X675766Y100991D01*
X675859Y101026D01*
X675951Y101065D01*
X676041Y101108D01*
X676129Y101153D01*
X676216Y101203D01*
X676300Y101255D01*
X676383Y101311D01*
X676463Y101369D01*
X676541Y101431D01*
X676616Y101496D01*
X676689Y101564D01*
X676759Y101634D01*
X676827Y101707D01*
X676892Y101782D01*
X676954Y101860D01*
X677012Y101940D01*
X677068Y102023D01*
X677120Y102107D01*
X677170Y102194D01*
X677215Y102282D01*
X677258Y102372D01*
X677297Y102464D01*
X677332Y102557D01*
X677364Y102651D01*
X677392Y102746D01*
X677417Y102842D01*
X677438Y102940D01*
X677455Y103038D01*
X677468Y103136D01*
X677477Y103235D01*
X677483Y103335D01*
X677485Y103434D01*
X677485Y104733D01*
X677483Y104832D01*
X677477Y104932D01*
X677468Y105031D01*
X677455Y105129D01*
X677438Y105227D01*
X677417Y105325D01*
X677392Y105421D01*
X677364Y105516D01*
X677332Y105610D01*
X677297Y105703D01*
X677258Y105795D01*
X677215Y105885D01*
X677170Y105973D01*
X677120Y106060D01*
X677068Y106144D01*
X677012Y106227D01*
X676954Y106307D01*
X676892Y106385D01*
X676827Y106460D01*
X676759Y106533D01*
X676689Y106603D01*
X676616Y106671D01*
X676541Y106736D01*
X676463Y106798D01*
X676383Y106856D01*
X676300Y106912D01*
X676216Y106964D01*
X676129Y107014D01*
X676041Y107059D01*
X675951Y107102D01*
X675859Y107141D01*
X675766Y107176D01*
X675672Y107208D01*
X675577Y107236D01*
X675481Y107261D01*
X675383Y107282D01*
X675285Y107299D01*
X675187Y107312D01*
X675088Y107321D01*
X674988Y107327D01*
X674889Y107329D01*
X670994Y107329D01*
X670994Y112522D01*
X677485Y112522D01*
D13*
X160400Y309800D02*
X144400Y309800D01*
X144400Y299800D02*
X160400Y299800D01*
X154400Y302800D02*
X154400Y306800D01*
D15*
X140208Y318008D02*
X140208Y325120D01*
X142184Y325120D01*
X142270Y325118D01*
X142356Y325112D01*
X142442Y325103D01*
X142527Y325090D01*
X142612Y325073D01*
X142695Y325053D01*
X142778Y325029D01*
X142860Y325001D01*
X142940Y324970D01*
X143019Y324935D01*
X143096Y324897D01*
X143172Y324855D01*
X143246Y324811D01*
X143317Y324763D01*
X143387Y324712D01*
X143454Y324658D01*
X143519Y324601D01*
X143581Y324541D01*
X143641Y324479D01*
X143698Y324414D01*
X143752Y324347D01*
X143803Y324277D01*
X143851Y324206D01*
X143895Y324132D01*
X143937Y324056D01*
X143975Y323979D01*
X144010Y323900D01*
X144041Y323820D01*
X144069Y323738D01*
X144093Y323655D01*
X144113Y323572D01*
X144130Y323487D01*
X144143Y323402D01*
X144152Y323316D01*
X144158Y323230D01*
X144160Y323144D01*
X144159Y323144D02*
X144159Y319984D01*
X144160Y319984D02*
X144158Y319898D01*
X144152Y319812D01*
X144143Y319726D01*
X144130Y319641D01*
X144113Y319556D01*
X144093Y319473D01*
X144069Y319390D01*
X144041Y319308D01*
X144010Y319228D01*
X143975Y319149D01*
X143937Y319072D01*
X143895Y318996D01*
X143851Y318922D01*
X143803Y318851D01*
X143752Y318781D01*
X143698Y318714D01*
X143641Y318649D01*
X143581Y318587D01*
X143519Y318527D01*
X143454Y318470D01*
X143387Y318416D01*
X143317Y318365D01*
X143246Y318317D01*
X143172Y318273D01*
X143096Y318231D01*
X143019Y318193D01*
X142940Y318158D01*
X142860Y318127D01*
X142778Y318099D01*
X142695Y318075D01*
X142612Y318055D01*
X142527Y318038D01*
X142442Y318025D01*
X142356Y318016D01*
X142270Y318010D01*
X142184Y318008D01*
X140208Y318008D01*
X147767Y323540D02*
X149743Y325120D01*
X149743Y318008D01*
X151718Y318008D02*
X147767Y318008D01*
D13*
X144400Y259000D02*
X160400Y259000D01*
X160400Y249000D02*
X144400Y249000D01*
X154400Y252000D02*
X154400Y256000D01*
D15*
X140208Y267208D02*
X140208Y274320D01*
X142184Y274320D01*
X142270Y274318D01*
X142356Y274312D01*
X142442Y274303D01*
X142527Y274290D01*
X142612Y274273D01*
X142695Y274253D01*
X142778Y274229D01*
X142860Y274201D01*
X142940Y274170D01*
X143019Y274135D01*
X143096Y274097D01*
X143172Y274055D01*
X143246Y274011D01*
X143317Y273963D01*
X143387Y273912D01*
X143454Y273858D01*
X143519Y273801D01*
X143581Y273741D01*
X143641Y273679D01*
X143698Y273614D01*
X143752Y273547D01*
X143803Y273477D01*
X143851Y273406D01*
X143895Y273332D01*
X143937Y273256D01*
X143975Y273179D01*
X144010Y273100D01*
X144041Y273020D01*
X144069Y272938D01*
X144093Y272855D01*
X144113Y272772D01*
X144130Y272687D01*
X144143Y272602D01*
X144152Y272516D01*
X144158Y272430D01*
X144160Y272344D01*
X144159Y272344D02*
X144159Y269184D01*
X144160Y269184D02*
X144158Y269098D01*
X144152Y269012D01*
X144143Y268926D01*
X144130Y268841D01*
X144113Y268756D01*
X144093Y268673D01*
X144069Y268590D01*
X144041Y268508D01*
X144010Y268428D01*
X143975Y268349D01*
X143937Y268272D01*
X143895Y268196D01*
X143851Y268122D01*
X143803Y268051D01*
X143752Y267981D01*
X143698Y267914D01*
X143641Y267849D01*
X143581Y267787D01*
X143519Y267727D01*
X143454Y267670D01*
X143387Y267616D01*
X143317Y267565D01*
X143246Y267517D01*
X143172Y267473D01*
X143096Y267431D01*
X143019Y267393D01*
X142940Y267358D01*
X142860Y267327D01*
X142778Y267299D01*
X142695Y267275D01*
X142612Y267255D01*
X142527Y267238D01*
X142442Y267225D01*
X142356Y267216D01*
X142270Y267210D01*
X142184Y267208D01*
X140208Y267208D01*
X149940Y274320D02*
X150022Y274318D01*
X150104Y274312D01*
X150186Y274303D01*
X150267Y274290D01*
X150347Y274273D01*
X150427Y274252D01*
X150505Y274228D01*
X150582Y274200D01*
X150658Y274169D01*
X150733Y274134D01*
X150805Y274095D01*
X150876Y274054D01*
X150945Y274009D01*
X151011Y273961D01*
X151076Y273910D01*
X151138Y273856D01*
X151197Y273799D01*
X151254Y273740D01*
X151308Y273678D01*
X151359Y273613D01*
X151407Y273547D01*
X151452Y273478D01*
X151493Y273407D01*
X151532Y273335D01*
X151567Y273260D01*
X151598Y273184D01*
X151626Y273107D01*
X151650Y273029D01*
X151671Y272949D01*
X151688Y272869D01*
X151701Y272788D01*
X151710Y272706D01*
X151716Y272624D01*
X151718Y272542D01*
X149940Y274320D02*
X149847Y274318D01*
X149755Y274312D01*
X149663Y274303D01*
X149571Y274290D01*
X149480Y274273D01*
X149390Y274253D01*
X149300Y274229D01*
X149212Y274201D01*
X149124Y274169D01*
X149039Y274135D01*
X148954Y274096D01*
X148872Y274055D01*
X148791Y274010D01*
X148711Y273961D01*
X148634Y273910D01*
X148559Y273856D01*
X148487Y273798D01*
X148417Y273738D01*
X148349Y273674D01*
X148284Y273609D01*
X148221Y273540D01*
X148162Y273469D01*
X148105Y273396D01*
X148051Y273320D01*
X148001Y273243D01*
X147953Y273163D01*
X147909Y273082D01*
X147869Y272998D01*
X147831Y272914D01*
X147797Y272827D01*
X147767Y272740D01*
X151125Y271159D02*
X151186Y271220D01*
X151244Y271283D01*
X151299Y271349D01*
X151352Y271417D01*
X151401Y271488D01*
X151446Y271560D01*
X151489Y271635D01*
X151528Y271711D01*
X151564Y271790D01*
X151596Y271869D01*
X151624Y271950D01*
X151649Y272033D01*
X151670Y272116D01*
X151687Y272200D01*
X151701Y272285D01*
X151710Y272370D01*
X151716Y272456D01*
X151718Y272542D01*
X151125Y271159D02*
X147767Y267208D01*
X151718Y267208D01*
D13*
X144400Y208200D02*
X160400Y208200D01*
X160400Y198200D02*
X144400Y198200D01*
X154400Y201200D02*
X154400Y205200D01*
D15*
X140208Y216408D02*
X140208Y223520D01*
X142184Y223520D01*
X142270Y223518D01*
X142356Y223512D01*
X142442Y223503D01*
X142527Y223490D01*
X142612Y223473D01*
X142695Y223453D01*
X142778Y223429D01*
X142860Y223401D01*
X142940Y223370D01*
X143019Y223335D01*
X143096Y223297D01*
X143172Y223255D01*
X143246Y223211D01*
X143317Y223163D01*
X143387Y223112D01*
X143454Y223058D01*
X143519Y223001D01*
X143581Y222941D01*
X143641Y222879D01*
X143698Y222814D01*
X143752Y222747D01*
X143803Y222677D01*
X143851Y222606D01*
X143895Y222532D01*
X143937Y222456D01*
X143975Y222379D01*
X144010Y222300D01*
X144041Y222220D01*
X144069Y222138D01*
X144093Y222055D01*
X144113Y221972D01*
X144130Y221887D01*
X144143Y221802D01*
X144152Y221716D01*
X144158Y221630D01*
X144160Y221544D01*
X144159Y221544D02*
X144159Y218384D01*
X144160Y218384D02*
X144158Y218298D01*
X144152Y218212D01*
X144143Y218126D01*
X144130Y218041D01*
X144113Y217956D01*
X144093Y217873D01*
X144069Y217790D01*
X144041Y217708D01*
X144010Y217628D01*
X143975Y217549D01*
X143937Y217472D01*
X143895Y217396D01*
X143851Y217322D01*
X143803Y217251D01*
X143752Y217181D01*
X143698Y217114D01*
X143641Y217049D01*
X143581Y216987D01*
X143519Y216927D01*
X143454Y216870D01*
X143387Y216816D01*
X143317Y216765D01*
X143246Y216717D01*
X143172Y216673D01*
X143096Y216631D01*
X143019Y216593D01*
X142940Y216558D01*
X142860Y216527D01*
X142778Y216499D01*
X142695Y216475D01*
X142612Y216455D01*
X142527Y216438D01*
X142442Y216425D01*
X142356Y216416D01*
X142270Y216410D01*
X142184Y216408D01*
X140208Y216408D01*
X147767Y216408D02*
X149743Y216408D01*
X149830Y216410D01*
X149918Y216416D01*
X150005Y216425D01*
X150091Y216439D01*
X150177Y216456D01*
X150261Y216477D01*
X150345Y216502D01*
X150428Y216531D01*
X150509Y216563D01*
X150589Y216598D01*
X150667Y216637D01*
X150744Y216680D01*
X150818Y216726D01*
X150890Y216775D01*
X150960Y216827D01*
X151028Y216883D01*
X151093Y216941D01*
X151156Y217002D01*
X151215Y217066D01*
X151272Y217133D01*
X151326Y217201D01*
X151377Y217273D01*
X151424Y217346D01*
X151469Y217421D01*
X151510Y217499D01*
X151547Y217578D01*
X151581Y217658D01*
X151611Y217740D01*
X151638Y217823D01*
X151661Y217908D01*
X151680Y217993D01*
X151695Y218079D01*
X151707Y218166D01*
X151715Y218253D01*
X151719Y218340D01*
X151719Y218428D01*
X151715Y218515D01*
X151707Y218602D01*
X151695Y218689D01*
X151680Y218775D01*
X151661Y218860D01*
X151638Y218945D01*
X151611Y219028D01*
X151581Y219110D01*
X151547Y219190D01*
X151510Y219269D01*
X151469Y219347D01*
X151424Y219422D01*
X151377Y219495D01*
X151326Y219567D01*
X151272Y219635D01*
X151215Y219702D01*
X151156Y219766D01*
X151093Y219827D01*
X151028Y219885D01*
X150960Y219941D01*
X150890Y219993D01*
X150818Y220042D01*
X150744Y220088D01*
X150667Y220131D01*
X150589Y220170D01*
X150509Y220205D01*
X150428Y220237D01*
X150345Y220266D01*
X150261Y220291D01*
X150177Y220312D01*
X150091Y220329D01*
X150005Y220343D01*
X149918Y220352D01*
X149830Y220358D01*
X149743Y220360D01*
X150138Y223520D02*
X147767Y223520D01*
X150138Y223520D02*
X150217Y223518D01*
X150295Y223512D01*
X150373Y223502D01*
X150451Y223489D01*
X150528Y223471D01*
X150604Y223450D01*
X150678Y223425D01*
X150752Y223396D01*
X150824Y223364D01*
X150894Y223328D01*
X150962Y223288D01*
X151028Y223245D01*
X151092Y223199D01*
X151154Y223150D01*
X151213Y223098D01*
X151269Y223043D01*
X151323Y222985D01*
X151373Y222925D01*
X151421Y222862D01*
X151465Y222797D01*
X151506Y222730D01*
X151544Y222661D01*
X151578Y222590D01*
X151609Y222517D01*
X151636Y222443D01*
X151659Y222368D01*
X151678Y222292D01*
X151694Y222214D01*
X151706Y222136D01*
X151714Y222058D01*
X151718Y221979D01*
X151718Y221901D01*
X151714Y221822D01*
X151706Y221744D01*
X151694Y221666D01*
X151678Y221588D01*
X151659Y221512D01*
X151636Y221437D01*
X151609Y221363D01*
X151578Y221290D01*
X151544Y221219D01*
X151506Y221150D01*
X151465Y221083D01*
X151421Y221018D01*
X151373Y220955D01*
X151323Y220895D01*
X151269Y220837D01*
X151213Y220782D01*
X151154Y220730D01*
X151092Y220681D01*
X151028Y220635D01*
X150962Y220592D01*
X150894Y220552D01*
X150824Y220516D01*
X150752Y220484D01*
X150678Y220455D01*
X150604Y220430D01*
X150528Y220409D01*
X150451Y220391D01*
X150373Y220378D01*
X150295Y220368D01*
X150217Y220362D01*
X150138Y220360D01*
X150138Y220359D02*
X148557Y220359D01*
M02*
