G04 EAGLE Gerber RS-274X export*
G75*
%MOMM*%
%FSLAX34Y34*%
%LPD*%
%INSoldermask Bottom*%
%IPPOS*%
%AMOC8*
5,1,8,0,0,1.08239X$1,22.5*%
G01*
%ADD10R,1.676400X1.676400*%
%ADD11P,1.814519X8X202.500000*%
%ADD12R,1.828800X1.828800*%
%ADD13C,1.828800*%
%ADD14C,4.168400*%
%ADD15R,1.440400X1.440400*%
%ADD16C,1.440400*%
%ADD17C,3.372400*%
%ADD18C,4.597400*%
%ADD19C,0.609600*%
%ADD20C,1.168400*%
%ADD21C,1.552400*%
%ADD22C,2.652400*%
%ADD23C,2.112400*%


D10*
X906100Y517900D03*
D11*
X906100Y543300D03*
X880700Y517900D03*
X880700Y543300D03*
X855300Y517900D03*
X855300Y543300D03*
X829900Y517900D03*
X829900Y543300D03*
X804500Y517900D03*
X804500Y543300D03*
X779100Y517900D03*
X779100Y543300D03*
X753700Y517900D03*
X753700Y543300D03*
X728300Y517900D03*
X728300Y543300D03*
X702900Y517900D03*
X702900Y543300D03*
X677500Y517900D03*
X677500Y543300D03*
X652100Y517900D03*
X652100Y543300D03*
X626700Y517900D03*
X626700Y543300D03*
X601300Y517900D03*
X601300Y543300D03*
X575900Y517900D03*
X575900Y543300D03*
X550500Y517900D03*
X550500Y543300D03*
X525100Y517900D03*
X525100Y543300D03*
X499700Y517900D03*
X499700Y543300D03*
X474300Y517900D03*
X474300Y543300D03*
D10*
X906100Y771900D03*
D11*
X906100Y797300D03*
X880700Y771900D03*
X880700Y797300D03*
X855300Y771900D03*
X855300Y797300D03*
X829900Y771900D03*
X829900Y797300D03*
X804500Y771900D03*
X804500Y797300D03*
X779100Y771900D03*
X779100Y797300D03*
X753700Y771900D03*
X753700Y797300D03*
X728300Y771900D03*
X728300Y797300D03*
X702900Y771900D03*
X702900Y797300D03*
X677500Y771900D03*
X677500Y797300D03*
X652100Y771900D03*
X652100Y797300D03*
X626700Y771900D03*
X626700Y797300D03*
X601300Y771900D03*
X601300Y797300D03*
X575900Y771900D03*
X575900Y797300D03*
X550500Y771900D03*
X550500Y797300D03*
X525100Y771900D03*
X525100Y797300D03*
X499700Y771900D03*
X499700Y797300D03*
X474300Y771900D03*
X474300Y797300D03*
D12*
X1079500Y381000D03*
D13*
X1079500Y406400D03*
X1079500Y431800D03*
X1079500Y457200D03*
X1079500Y482600D03*
X1079500Y508000D03*
X1079500Y533400D03*
X1079500Y558800D03*
X1079500Y584200D03*
X1079500Y609600D03*
X1079500Y635000D03*
X1079500Y660400D03*
X1079500Y685800D03*
X1079500Y711200D03*
X1079500Y736600D03*
X1079500Y762000D03*
X1079500Y787400D03*
X1079500Y812800D03*
X1079500Y838200D03*
X1079500Y863600D03*
D14*
X1079500Y336550D03*
X1079500Y908050D03*
X317500Y336550D03*
X317500Y908050D03*
D15*
X215900Y482600D03*
D16*
X215900Y507600D03*
X215900Y527600D03*
X215900Y552600D03*
D17*
X188800Y451900D03*
X188800Y583300D03*
D18*
X38100Y927100D03*
X38100Y38100D03*
X1231900Y939800D03*
X1231900Y38100D03*
D19*
X1186180Y127000D02*
X1186182Y127187D01*
X1186189Y127374D01*
X1186201Y127561D01*
X1186217Y127747D01*
X1186237Y127933D01*
X1186262Y128118D01*
X1186292Y128303D01*
X1186326Y128487D01*
X1186365Y128670D01*
X1186408Y128852D01*
X1186456Y129032D01*
X1186508Y129212D01*
X1186565Y129390D01*
X1186625Y129567D01*
X1186691Y129742D01*
X1186760Y129916D01*
X1186834Y130088D01*
X1186912Y130258D01*
X1186994Y130426D01*
X1187080Y130592D01*
X1187170Y130756D01*
X1187264Y130917D01*
X1187362Y131077D01*
X1187464Y131233D01*
X1187570Y131388D01*
X1187680Y131539D01*
X1187793Y131688D01*
X1187910Y131834D01*
X1188030Y131977D01*
X1188154Y132117D01*
X1188281Y132254D01*
X1188412Y132388D01*
X1188546Y132519D01*
X1188683Y132646D01*
X1188823Y132770D01*
X1188966Y132890D01*
X1189112Y133007D01*
X1189261Y133120D01*
X1189412Y133230D01*
X1189567Y133336D01*
X1189723Y133438D01*
X1189883Y133536D01*
X1190044Y133630D01*
X1190208Y133720D01*
X1190374Y133806D01*
X1190542Y133888D01*
X1190712Y133966D01*
X1190884Y134040D01*
X1191058Y134109D01*
X1191233Y134175D01*
X1191410Y134235D01*
X1191588Y134292D01*
X1191768Y134344D01*
X1191948Y134392D01*
X1192130Y134435D01*
X1192313Y134474D01*
X1192497Y134508D01*
X1192682Y134538D01*
X1192867Y134563D01*
X1193053Y134583D01*
X1193239Y134599D01*
X1193426Y134611D01*
X1193613Y134618D01*
X1193800Y134620D01*
X1193987Y134618D01*
X1194174Y134611D01*
X1194361Y134599D01*
X1194547Y134583D01*
X1194733Y134563D01*
X1194918Y134538D01*
X1195103Y134508D01*
X1195287Y134474D01*
X1195470Y134435D01*
X1195652Y134392D01*
X1195832Y134344D01*
X1196012Y134292D01*
X1196190Y134235D01*
X1196367Y134175D01*
X1196542Y134109D01*
X1196716Y134040D01*
X1196888Y133966D01*
X1197058Y133888D01*
X1197226Y133806D01*
X1197392Y133720D01*
X1197556Y133630D01*
X1197717Y133536D01*
X1197877Y133438D01*
X1198033Y133336D01*
X1198188Y133230D01*
X1198339Y133120D01*
X1198488Y133007D01*
X1198634Y132890D01*
X1198777Y132770D01*
X1198917Y132646D01*
X1199054Y132519D01*
X1199188Y132388D01*
X1199319Y132254D01*
X1199446Y132117D01*
X1199570Y131977D01*
X1199690Y131834D01*
X1199807Y131688D01*
X1199920Y131539D01*
X1200030Y131388D01*
X1200136Y131233D01*
X1200238Y131077D01*
X1200336Y130917D01*
X1200430Y130756D01*
X1200520Y130592D01*
X1200606Y130426D01*
X1200688Y130258D01*
X1200766Y130088D01*
X1200840Y129916D01*
X1200909Y129742D01*
X1200975Y129567D01*
X1201035Y129390D01*
X1201092Y129212D01*
X1201144Y129032D01*
X1201192Y128852D01*
X1201235Y128670D01*
X1201274Y128487D01*
X1201308Y128303D01*
X1201338Y128118D01*
X1201363Y127933D01*
X1201383Y127747D01*
X1201399Y127561D01*
X1201411Y127374D01*
X1201418Y127187D01*
X1201420Y127000D01*
X1201418Y126813D01*
X1201411Y126626D01*
X1201399Y126439D01*
X1201383Y126253D01*
X1201363Y126067D01*
X1201338Y125882D01*
X1201308Y125697D01*
X1201274Y125513D01*
X1201235Y125330D01*
X1201192Y125148D01*
X1201144Y124968D01*
X1201092Y124788D01*
X1201035Y124610D01*
X1200975Y124433D01*
X1200909Y124258D01*
X1200840Y124084D01*
X1200766Y123912D01*
X1200688Y123742D01*
X1200606Y123574D01*
X1200520Y123408D01*
X1200430Y123244D01*
X1200336Y123083D01*
X1200238Y122923D01*
X1200136Y122767D01*
X1200030Y122612D01*
X1199920Y122461D01*
X1199807Y122312D01*
X1199690Y122166D01*
X1199570Y122023D01*
X1199446Y121883D01*
X1199319Y121746D01*
X1199188Y121612D01*
X1199054Y121481D01*
X1198917Y121354D01*
X1198777Y121230D01*
X1198634Y121110D01*
X1198488Y120993D01*
X1198339Y120880D01*
X1198188Y120770D01*
X1198033Y120664D01*
X1197877Y120562D01*
X1197717Y120464D01*
X1197556Y120370D01*
X1197392Y120280D01*
X1197226Y120194D01*
X1197058Y120112D01*
X1196888Y120034D01*
X1196716Y119960D01*
X1196542Y119891D01*
X1196367Y119825D01*
X1196190Y119765D01*
X1196012Y119708D01*
X1195832Y119656D01*
X1195652Y119608D01*
X1195470Y119565D01*
X1195287Y119526D01*
X1195103Y119492D01*
X1194918Y119462D01*
X1194733Y119437D01*
X1194547Y119417D01*
X1194361Y119401D01*
X1194174Y119389D01*
X1193987Y119382D01*
X1193800Y119380D01*
X1193613Y119382D01*
X1193426Y119389D01*
X1193239Y119401D01*
X1193053Y119417D01*
X1192867Y119437D01*
X1192682Y119462D01*
X1192497Y119492D01*
X1192313Y119526D01*
X1192130Y119565D01*
X1191948Y119608D01*
X1191768Y119656D01*
X1191588Y119708D01*
X1191410Y119765D01*
X1191233Y119825D01*
X1191058Y119891D01*
X1190884Y119960D01*
X1190712Y120034D01*
X1190542Y120112D01*
X1190374Y120194D01*
X1190208Y120280D01*
X1190044Y120370D01*
X1189883Y120464D01*
X1189723Y120562D01*
X1189567Y120664D01*
X1189412Y120770D01*
X1189261Y120880D01*
X1189112Y120993D01*
X1188966Y121110D01*
X1188823Y121230D01*
X1188683Y121354D01*
X1188546Y121481D01*
X1188412Y121612D01*
X1188281Y121746D01*
X1188154Y121883D01*
X1188030Y122023D01*
X1187910Y122166D01*
X1187793Y122312D01*
X1187680Y122461D01*
X1187570Y122612D01*
X1187464Y122767D01*
X1187362Y122923D01*
X1187264Y123083D01*
X1187170Y123244D01*
X1187080Y123408D01*
X1186994Y123574D01*
X1186912Y123742D01*
X1186834Y123912D01*
X1186760Y124084D01*
X1186691Y124258D01*
X1186625Y124433D01*
X1186565Y124610D01*
X1186508Y124788D01*
X1186456Y124968D01*
X1186408Y125148D01*
X1186365Y125330D01*
X1186326Y125513D01*
X1186292Y125697D01*
X1186262Y125882D01*
X1186237Y126067D01*
X1186217Y126253D01*
X1186201Y126439D01*
X1186189Y126626D01*
X1186182Y126813D01*
X1186180Y127000D01*
D20*
X1193800Y127000D03*
D21*
X762400Y139700D03*
X787400Y139700D03*
X812400Y139700D03*
D22*
X737400Y209700D03*
X837400Y209700D03*
D21*
X533800Y139700D03*
X558800Y139700D03*
X583800Y139700D03*
D22*
X508800Y209700D03*
X608800Y209700D03*
D23*
X1103900Y228200D03*
X1103900Y178200D03*
X978900Y178200D03*
X978900Y228200D03*
X392700Y228200D03*
X392700Y178200D03*
X267700Y178200D03*
X267700Y228200D03*
D19*
X1186180Y850900D02*
X1186182Y851087D01*
X1186189Y851274D01*
X1186201Y851461D01*
X1186217Y851647D01*
X1186237Y851833D01*
X1186262Y852018D01*
X1186292Y852203D01*
X1186326Y852387D01*
X1186365Y852570D01*
X1186408Y852752D01*
X1186456Y852932D01*
X1186508Y853112D01*
X1186565Y853290D01*
X1186625Y853467D01*
X1186691Y853642D01*
X1186760Y853816D01*
X1186834Y853988D01*
X1186912Y854158D01*
X1186994Y854326D01*
X1187080Y854492D01*
X1187170Y854656D01*
X1187264Y854817D01*
X1187362Y854977D01*
X1187464Y855133D01*
X1187570Y855288D01*
X1187680Y855439D01*
X1187793Y855588D01*
X1187910Y855734D01*
X1188030Y855877D01*
X1188154Y856017D01*
X1188281Y856154D01*
X1188412Y856288D01*
X1188546Y856419D01*
X1188683Y856546D01*
X1188823Y856670D01*
X1188966Y856790D01*
X1189112Y856907D01*
X1189261Y857020D01*
X1189412Y857130D01*
X1189567Y857236D01*
X1189723Y857338D01*
X1189883Y857436D01*
X1190044Y857530D01*
X1190208Y857620D01*
X1190374Y857706D01*
X1190542Y857788D01*
X1190712Y857866D01*
X1190884Y857940D01*
X1191058Y858009D01*
X1191233Y858075D01*
X1191410Y858135D01*
X1191588Y858192D01*
X1191768Y858244D01*
X1191948Y858292D01*
X1192130Y858335D01*
X1192313Y858374D01*
X1192497Y858408D01*
X1192682Y858438D01*
X1192867Y858463D01*
X1193053Y858483D01*
X1193239Y858499D01*
X1193426Y858511D01*
X1193613Y858518D01*
X1193800Y858520D01*
X1193987Y858518D01*
X1194174Y858511D01*
X1194361Y858499D01*
X1194547Y858483D01*
X1194733Y858463D01*
X1194918Y858438D01*
X1195103Y858408D01*
X1195287Y858374D01*
X1195470Y858335D01*
X1195652Y858292D01*
X1195832Y858244D01*
X1196012Y858192D01*
X1196190Y858135D01*
X1196367Y858075D01*
X1196542Y858009D01*
X1196716Y857940D01*
X1196888Y857866D01*
X1197058Y857788D01*
X1197226Y857706D01*
X1197392Y857620D01*
X1197556Y857530D01*
X1197717Y857436D01*
X1197877Y857338D01*
X1198033Y857236D01*
X1198188Y857130D01*
X1198339Y857020D01*
X1198488Y856907D01*
X1198634Y856790D01*
X1198777Y856670D01*
X1198917Y856546D01*
X1199054Y856419D01*
X1199188Y856288D01*
X1199319Y856154D01*
X1199446Y856017D01*
X1199570Y855877D01*
X1199690Y855734D01*
X1199807Y855588D01*
X1199920Y855439D01*
X1200030Y855288D01*
X1200136Y855133D01*
X1200238Y854977D01*
X1200336Y854817D01*
X1200430Y854656D01*
X1200520Y854492D01*
X1200606Y854326D01*
X1200688Y854158D01*
X1200766Y853988D01*
X1200840Y853816D01*
X1200909Y853642D01*
X1200975Y853467D01*
X1201035Y853290D01*
X1201092Y853112D01*
X1201144Y852932D01*
X1201192Y852752D01*
X1201235Y852570D01*
X1201274Y852387D01*
X1201308Y852203D01*
X1201338Y852018D01*
X1201363Y851833D01*
X1201383Y851647D01*
X1201399Y851461D01*
X1201411Y851274D01*
X1201418Y851087D01*
X1201420Y850900D01*
X1201418Y850713D01*
X1201411Y850526D01*
X1201399Y850339D01*
X1201383Y850153D01*
X1201363Y849967D01*
X1201338Y849782D01*
X1201308Y849597D01*
X1201274Y849413D01*
X1201235Y849230D01*
X1201192Y849048D01*
X1201144Y848868D01*
X1201092Y848688D01*
X1201035Y848510D01*
X1200975Y848333D01*
X1200909Y848158D01*
X1200840Y847984D01*
X1200766Y847812D01*
X1200688Y847642D01*
X1200606Y847474D01*
X1200520Y847308D01*
X1200430Y847144D01*
X1200336Y846983D01*
X1200238Y846823D01*
X1200136Y846667D01*
X1200030Y846512D01*
X1199920Y846361D01*
X1199807Y846212D01*
X1199690Y846066D01*
X1199570Y845923D01*
X1199446Y845783D01*
X1199319Y845646D01*
X1199188Y845512D01*
X1199054Y845381D01*
X1198917Y845254D01*
X1198777Y845130D01*
X1198634Y845010D01*
X1198488Y844893D01*
X1198339Y844780D01*
X1198188Y844670D01*
X1198033Y844564D01*
X1197877Y844462D01*
X1197717Y844364D01*
X1197556Y844270D01*
X1197392Y844180D01*
X1197226Y844094D01*
X1197058Y844012D01*
X1196888Y843934D01*
X1196716Y843860D01*
X1196542Y843791D01*
X1196367Y843725D01*
X1196190Y843665D01*
X1196012Y843608D01*
X1195832Y843556D01*
X1195652Y843508D01*
X1195470Y843465D01*
X1195287Y843426D01*
X1195103Y843392D01*
X1194918Y843362D01*
X1194733Y843337D01*
X1194547Y843317D01*
X1194361Y843301D01*
X1194174Y843289D01*
X1193987Y843282D01*
X1193800Y843280D01*
X1193613Y843282D01*
X1193426Y843289D01*
X1193239Y843301D01*
X1193053Y843317D01*
X1192867Y843337D01*
X1192682Y843362D01*
X1192497Y843392D01*
X1192313Y843426D01*
X1192130Y843465D01*
X1191948Y843508D01*
X1191768Y843556D01*
X1191588Y843608D01*
X1191410Y843665D01*
X1191233Y843725D01*
X1191058Y843791D01*
X1190884Y843860D01*
X1190712Y843934D01*
X1190542Y844012D01*
X1190374Y844094D01*
X1190208Y844180D01*
X1190044Y844270D01*
X1189883Y844364D01*
X1189723Y844462D01*
X1189567Y844564D01*
X1189412Y844670D01*
X1189261Y844780D01*
X1189112Y844893D01*
X1188966Y845010D01*
X1188823Y845130D01*
X1188683Y845254D01*
X1188546Y845381D01*
X1188412Y845512D01*
X1188281Y845646D01*
X1188154Y845783D01*
X1188030Y845923D01*
X1187910Y846066D01*
X1187793Y846212D01*
X1187680Y846361D01*
X1187570Y846512D01*
X1187464Y846667D01*
X1187362Y846823D01*
X1187264Y846983D01*
X1187170Y847144D01*
X1187080Y847308D01*
X1186994Y847474D01*
X1186912Y847642D01*
X1186834Y847812D01*
X1186760Y847984D01*
X1186691Y848158D01*
X1186625Y848333D01*
X1186565Y848510D01*
X1186508Y848688D01*
X1186456Y848868D01*
X1186408Y849048D01*
X1186365Y849230D01*
X1186326Y849413D01*
X1186292Y849597D01*
X1186262Y849782D01*
X1186237Y849967D01*
X1186217Y850153D01*
X1186201Y850339D01*
X1186189Y850526D01*
X1186182Y850713D01*
X1186180Y850900D01*
D20*
X1193800Y850900D03*
D19*
X68580Y114300D02*
X68582Y114487D01*
X68589Y114674D01*
X68601Y114861D01*
X68617Y115047D01*
X68637Y115233D01*
X68662Y115418D01*
X68692Y115603D01*
X68726Y115787D01*
X68765Y115970D01*
X68808Y116152D01*
X68856Y116332D01*
X68908Y116512D01*
X68965Y116690D01*
X69025Y116867D01*
X69091Y117042D01*
X69160Y117216D01*
X69234Y117388D01*
X69312Y117558D01*
X69394Y117726D01*
X69480Y117892D01*
X69570Y118056D01*
X69664Y118217D01*
X69762Y118377D01*
X69864Y118533D01*
X69970Y118688D01*
X70080Y118839D01*
X70193Y118988D01*
X70310Y119134D01*
X70430Y119277D01*
X70554Y119417D01*
X70681Y119554D01*
X70812Y119688D01*
X70946Y119819D01*
X71083Y119946D01*
X71223Y120070D01*
X71366Y120190D01*
X71512Y120307D01*
X71661Y120420D01*
X71812Y120530D01*
X71967Y120636D01*
X72123Y120738D01*
X72283Y120836D01*
X72444Y120930D01*
X72608Y121020D01*
X72774Y121106D01*
X72942Y121188D01*
X73112Y121266D01*
X73284Y121340D01*
X73458Y121409D01*
X73633Y121475D01*
X73810Y121535D01*
X73988Y121592D01*
X74168Y121644D01*
X74348Y121692D01*
X74530Y121735D01*
X74713Y121774D01*
X74897Y121808D01*
X75082Y121838D01*
X75267Y121863D01*
X75453Y121883D01*
X75639Y121899D01*
X75826Y121911D01*
X76013Y121918D01*
X76200Y121920D01*
X76387Y121918D01*
X76574Y121911D01*
X76761Y121899D01*
X76947Y121883D01*
X77133Y121863D01*
X77318Y121838D01*
X77503Y121808D01*
X77687Y121774D01*
X77870Y121735D01*
X78052Y121692D01*
X78232Y121644D01*
X78412Y121592D01*
X78590Y121535D01*
X78767Y121475D01*
X78942Y121409D01*
X79116Y121340D01*
X79288Y121266D01*
X79458Y121188D01*
X79626Y121106D01*
X79792Y121020D01*
X79956Y120930D01*
X80117Y120836D01*
X80277Y120738D01*
X80433Y120636D01*
X80588Y120530D01*
X80739Y120420D01*
X80888Y120307D01*
X81034Y120190D01*
X81177Y120070D01*
X81317Y119946D01*
X81454Y119819D01*
X81588Y119688D01*
X81719Y119554D01*
X81846Y119417D01*
X81970Y119277D01*
X82090Y119134D01*
X82207Y118988D01*
X82320Y118839D01*
X82430Y118688D01*
X82536Y118533D01*
X82638Y118377D01*
X82736Y118217D01*
X82830Y118056D01*
X82920Y117892D01*
X83006Y117726D01*
X83088Y117558D01*
X83166Y117388D01*
X83240Y117216D01*
X83309Y117042D01*
X83375Y116867D01*
X83435Y116690D01*
X83492Y116512D01*
X83544Y116332D01*
X83592Y116152D01*
X83635Y115970D01*
X83674Y115787D01*
X83708Y115603D01*
X83738Y115418D01*
X83763Y115233D01*
X83783Y115047D01*
X83799Y114861D01*
X83811Y114674D01*
X83818Y114487D01*
X83820Y114300D01*
X83818Y114113D01*
X83811Y113926D01*
X83799Y113739D01*
X83783Y113553D01*
X83763Y113367D01*
X83738Y113182D01*
X83708Y112997D01*
X83674Y112813D01*
X83635Y112630D01*
X83592Y112448D01*
X83544Y112268D01*
X83492Y112088D01*
X83435Y111910D01*
X83375Y111733D01*
X83309Y111558D01*
X83240Y111384D01*
X83166Y111212D01*
X83088Y111042D01*
X83006Y110874D01*
X82920Y110708D01*
X82830Y110544D01*
X82736Y110383D01*
X82638Y110223D01*
X82536Y110067D01*
X82430Y109912D01*
X82320Y109761D01*
X82207Y109612D01*
X82090Y109466D01*
X81970Y109323D01*
X81846Y109183D01*
X81719Y109046D01*
X81588Y108912D01*
X81454Y108781D01*
X81317Y108654D01*
X81177Y108530D01*
X81034Y108410D01*
X80888Y108293D01*
X80739Y108180D01*
X80588Y108070D01*
X80433Y107964D01*
X80277Y107862D01*
X80117Y107764D01*
X79956Y107670D01*
X79792Y107580D01*
X79626Y107494D01*
X79458Y107412D01*
X79288Y107334D01*
X79116Y107260D01*
X78942Y107191D01*
X78767Y107125D01*
X78590Y107065D01*
X78412Y107008D01*
X78232Y106956D01*
X78052Y106908D01*
X77870Y106865D01*
X77687Y106826D01*
X77503Y106792D01*
X77318Y106762D01*
X77133Y106737D01*
X76947Y106717D01*
X76761Y106701D01*
X76574Y106689D01*
X76387Y106682D01*
X76200Y106680D01*
X76013Y106682D01*
X75826Y106689D01*
X75639Y106701D01*
X75453Y106717D01*
X75267Y106737D01*
X75082Y106762D01*
X74897Y106792D01*
X74713Y106826D01*
X74530Y106865D01*
X74348Y106908D01*
X74168Y106956D01*
X73988Y107008D01*
X73810Y107065D01*
X73633Y107125D01*
X73458Y107191D01*
X73284Y107260D01*
X73112Y107334D01*
X72942Y107412D01*
X72774Y107494D01*
X72608Y107580D01*
X72444Y107670D01*
X72283Y107764D01*
X72123Y107862D01*
X71967Y107964D01*
X71812Y108070D01*
X71661Y108180D01*
X71512Y108293D01*
X71366Y108410D01*
X71223Y108530D01*
X71083Y108654D01*
X70946Y108781D01*
X70812Y108912D01*
X70681Y109046D01*
X70554Y109183D01*
X70430Y109323D01*
X70310Y109466D01*
X70193Y109612D01*
X70080Y109761D01*
X69970Y109912D01*
X69864Y110067D01*
X69762Y110223D01*
X69664Y110383D01*
X69570Y110544D01*
X69480Y110708D01*
X69394Y110874D01*
X69312Y111042D01*
X69234Y111212D01*
X69160Y111384D01*
X69091Y111558D01*
X69025Y111733D01*
X68965Y111910D01*
X68908Y112088D01*
X68856Y112268D01*
X68808Y112448D01*
X68765Y112630D01*
X68726Y112813D01*
X68692Y112997D01*
X68662Y113182D01*
X68637Y113367D01*
X68617Y113553D01*
X68601Y113739D01*
X68589Y113926D01*
X68582Y114113D01*
X68580Y114300D01*
D20*
X76200Y114300D03*
M02*
